<svg xmlns="http://www.w3.org/2000/svg" width="84.804" height="80" viewBox="0 0 84.804 80">
  <g id="Hand_coding-bro_1_" data-name="Hand coding-bro (1)" transform="translate(-2.509 -3.243)">
    <g id="freepik--background-simple--inject-110">
      <path id="패스_42" data-name="패스 42" d="M84.507,42.756c-.886,7.5-4.306,16.22-11.149,20.226-10.335,6.054-9.47,15.364-29.64,19.413a41.364,41.364,0,0,1-8.942.843,34.32,34.32,0,0,1-4.39-.359A29.764,29.764,0,0,1,5.774,61.349c-4.159-14.162,4.154-23.416,9.667-29S24.99,9.387,44.787,5.261a40.255,40.255,0,0,1,9.192-.872c7.044.179,14.727,2.485,20.043,7.313q.6.538,1.166,1.125C82.576,20.4,85.716,32.531,84.507,42.756Z" fill="#2ba5f7"/>
      <path id="패스_43" data-name="패스 43" d="M84.507,42.756c-.886,7.5-4.306,16.22-11.149,20.226-10.335,6.054-9.47,15.364-29.64,19.413a41.364,41.364,0,0,1-8.942.843,34.32,34.32,0,0,1-4.39-.359A29.764,29.764,0,0,1,5.774,61.349c-4.159-14.162,4.154-23.416,9.667-29S24.99,9.387,44.787,5.261a40.255,40.255,0,0,1,9.192-.872c7.044.179,14.727,2.485,20.043,7.313q.6.538,1.166,1.125C82.576,20.4,85.716,32.531,84.507,42.756Z" fill="#fff" opacity="0.7"/>
    </g>
    <g id="freepik--Table--inject-110">
      <path id="패스_44" data-name="패스 44" d="M85.942,50.853H83.213a.09.09,0,0,1,0-.179h2.729a.09.09,0,0,1,.09.09A.091.091,0,0,1,85.942,50.853Z" fill="#263238"/>
      <path id="패스_45" data-name="패스 45" d="M81.995,50.853H4.055a.09.09,0,0,1,0-.179h77.94a.09.09,0,0,1,.09.09.092.092,0,0,1-.09.09Z" fill="#263238"/>
    </g>
    <g id="freepik--Gears--inject-110">
      <path id="패스_46" data-name="패스 46" d="M73.629,35.294H72.068l-.194-1.364a4.938,4.938,0,0,1-1.794-.75l-1.1.824-1.1-1.1.827-1.1A4.947,4.947,0,0,1,67.966,30l-1.358-.2V28.25l1.364-.2a4.93,4.93,0,0,1,.75-1.794l-.824-1.1,1.1-1.1,1.1.827a4.916,4.916,0,0,1,1.794-.739l.2-1.358h1.559l.2,1.364a4.93,4.93,0,0,1,1.794.75l1.1-.824,1.1,1.1-.827,1.1a4.891,4.891,0,0,1,.739,1.794l1.358.194v1.561l-1.364.2A4.943,4.943,0,0,1,77,31.822l.824,1.1-1.1,1.1-1.1-.831a4.921,4.921,0,0,1-1.794.739Zm-1.4-.179H73.48l.19-1.331.065-.013a4.767,4.767,0,0,0,1.839-.757l.054-.038,1.077.811.883-.885-.807-1.077.038-.052a4.774,4.774,0,0,0,.77-1.843l.011-.063,1.347-.192V28.42l-1.331-.19-.013-.065a4.728,4.728,0,0,0-.757-1.846l-.036-.054.809-1.077-.883-.883-1.077.807-.054-.038a4.774,4.774,0,0,0-1.843-.77L73.7,24.3l-.2-1.33H72.243l-.19,1.331-.063.013a4.747,4.747,0,0,0-1.848.757l-.054.036-1.077-.809-.883.883.807,1.077-.036.054a4.747,4.747,0,0,0-.77,1.843l-.013.063-1.337.192V29.66l1.331.19.013.063a4.74,4.74,0,0,0,.772,1.844l.036.054-.811,1.077.885.883,1.077-.807.052.036a4.721,4.721,0,0,0,1.843.77l.063.013Zm.639-2.582a3.5,3.5,0,1,1,3.5-3.5A3.5,3.5,0,0,1,72.862,32.532Zm0-6.809a3.316,3.316,0,1,0,3.316,3.314,3.316,3.316,0,0,0-3.316-3.314Z" fill="#263238"/>
      <path id="패스_47" data-name="패스 47" d="M79.081,42.122H77.922l-.14-.98a3.569,3.569,0,0,1-1.256-.527l-.788.592-.82-.82.594-.793a3.5,3.5,0,0,1-.519-1.256l-.976-.138V37.032l.98-.14a3.542,3.542,0,0,1,.526-1.256l-.59-.789.82-.82.791.594A3.545,3.545,0,0,1,77.8,34.1l.14-.976H79.1l.14.98a3.576,3.576,0,0,1,1.256.526l.789-.59.82.82-.594.791a3.526,3.526,0,0,1,.519,1.256l.976.14v1.168l-.98.14a3.556,3.556,0,0,1-.526,1.256l.59.788-.813.822-.791-.594a3.578,3.578,0,0,1-1.256.519Zm-1-.179h.85l.135-.949.065-.013a3.375,3.375,0,0,0,1.31-.538l.054-.036.77.578.6-.6-.574-.766.036-.054a3.368,3.368,0,0,0,.547-1.308l.011-.063.953-.136v-.849l-.949-.136-.011-.063a3.384,3.384,0,0,0-.538-1.312l-.036-.054.576-.768-.6-.606-.768.574-.054-.036a3.377,3.377,0,0,0-1.306-.547l-.065-.011L78.95,33.3H78.1l-.135.949-.065.013a3.321,3.321,0,0,0-1.31.538l-.054.036-.773-.563-.6.6.574.766-.036.054A3.384,3.384,0,0,0,75.155,37l-.011.063-.953.136v.84l.949.136.011.063a3.384,3.384,0,0,0,.538,1.312l.036.052-.576.77.6.6.768-.576.052.038a3.391,3.391,0,0,0,1.308.538l.065.013Zm.436-1.794a2.524,2.524,0,1,1,2.524-2.524,2.524,2.524,0,0,1-2.524,2.524Zm0-4.869a2.345,2.345,0,1,0,2.345,2.345,2.345,2.345,0,0,0-2.345-2.345Z" fill="#263238"/>
      <path id="패스_48" data-name="패스 48" d="M18.267,43.813H16.831l-.179-1.245a4.509,4.509,0,0,1-1.631-.682l-1,.752L13,41.625l.754-1.007a4.55,4.55,0,0,1-.671-1.635l-1.24-.179V37.37l1.245-.179a4.514,4.514,0,0,1,.682-1.629l-.752-1,1.016-1.017,1.007.755a4.518,4.518,0,0,1,1.643-.675l.179-1.242H18.3l.179,1.247a4.5,4.5,0,0,1,1.629.68l1-.752,1.017,1.017-.755,1.007a4.505,4.505,0,0,1,.671,1.635l1.242.179v1.435l-1.256.179a4.505,4.505,0,0,1-.68,1.631l.752,1-1.017,1.016L20.079,41.9a4.485,4.485,0,0,1-1.635.671Zm-1.281-.179h1.136l.179-1.215.065-.011a4.331,4.331,0,0,0,1.683-.691l.052-.036.985.737.8-.795-.736-.981.036-.054a4.324,4.324,0,0,0,.7-1.679l.013-.063,1.218-.179V37.542L21.9,37.362l-.013-.065a4.331,4.331,0,0,0-.691-1.683l-.036-.052.739-.985-.8-.8-.981.736-.054-.036a4.344,4.344,0,0,0-1.678-.7l-.063-.011-.179-1.22H17.011l-.179,1.215-.063.013a4.32,4.32,0,0,0-1.683.691l-.054.036-.985-.739-.795.8.736.981-.038.054a4.306,4.306,0,0,0-.7,1.678l-.013.063-1.218.179v1.127l1.215.179.011.063a4.337,4.337,0,0,0,.691,1.683l.036.054-.737.985.8.795.981-.736.052.038a4.32,4.32,0,0,0,1.679.7l.063.013Zm.576-2.332a3.193,3.193,0,1,0,0-.007Zm0-6.213a3.02,3.02,0,1,0,0-.007Z" fill="#263238"/>
      <path id="패스_49" data-name="패스 49" d="M12.658,34.388H11.72l-.109-.766a2.768,2.768,0,0,1-.962-.4l-.617.463-.662-.669.463-.619a2.763,2.763,0,0,1-.395-.963l-.763-.109v-.938l.764-.109a2.8,2.8,0,0,1,.4-.962l-.461-.6.662-.664.619.465a2.776,2.776,0,0,1,.965-.4l.109-.763h.937l.109.766a2.768,2.768,0,0,1,.962.4l.61-.468.662.664-.463.619a2.8,2.8,0,0,1,.4.963l.763.109v.937l-.766.109a2.8,2.8,0,0,1-.4.963l.461.615-.651.664-.619-.465a2.811,2.811,0,0,1-.965.4Zm-.782-.179H12.5l.1-.736.065-.013a2.612,2.612,0,0,0,1.012-.414l.054-.038.6.449.443-.443-.445-.594.036-.054a2.6,2.6,0,0,0,.422-1.01l.013-.063.739-.106v-.626l-.737-.106-.011-.063a2.607,2.607,0,0,0-.416-1.014l-.036-.054.447-.6-.443-.443-.594.447-.054-.038a2.591,2.591,0,0,0-1.01-.422l-.063-.013-.106-.737H11.89l-.1.736-.065.013a2.612,2.612,0,0,0-1.012.414l-.054.036-.6-.447-.443.443.445.594-.036.054a2.6,2.6,0,0,0-.422,1.01l-.013.063-.737.106v.626l.736.106.011.063a2.607,2.607,0,0,0,.416,1.014l.036.052-.447.6.441.443L10.641,33l.054.038a2.591,2.591,0,0,0,1.01.422l.063.011ZM12.2,32.85a1.984,1.984,0,1,1,1.974-1.99A1.984,1.984,0,0,1,12.2,32.85Zm0-3.784a1.8,1.8,0,1,0,1.794,1.794A1.8,1.8,0,0,0,12.2,29.066Z" fill="#263238"/>
      <path id="패스_50" data-name="패스 50" d="M44.2,21.552H42.967l-.149-1.046a3.8,3.8,0,0,1-1.353-.565l-.841.632-.87-.87.635-.845a3.757,3.757,0,0,1-.558-1.355l-1.041-.149V16.123l1.041-.154a3.791,3.791,0,0,1,.563-1.353l-.63-.841.874-.856.845.633A3.768,3.768,0,0,1,42.84,13l.149-1.042h1.229L44.367,13a3.768,3.768,0,0,1,1.353.565l.841-.646.87.868-.633.845a3.807,3.807,0,0,1,.556,1.356l1.041.149v1.229l-1.046.151a3.8,3.8,0,0,1-.563,1.351l.632.843-.87.868-.845-.633a3.782,3.782,0,0,1-1.356.556Zm-1.077-.179h.917l.145-1.016.065-.011a3.617,3.617,0,0,0,1.4-.578l.054-.036.824.617.66-.65-.614-.82.036-.054a3.6,3.6,0,0,0,.585-1.4l.013-.063,1.017-.145V16.3L47.2,16.148l-.013-.063a3.6,3.6,0,0,0-.576-1.4l-.036-.054.61-.811-.649-.649-.82.615-.054-.038a3.637,3.637,0,0,0-1.4-.585l-.065-.011-.145-1.019h-.917l-.145,1.016-.065.011a3.624,3.624,0,0,0-1.4.576l-.054.038-.824-.617-.637.644.614.822-.036.052a3.633,3.633,0,0,0-.585,1.4l-.013.063-1.017.145V17.2l1.014.145.013.063a3.6,3.6,0,0,0,.576,1.4l.036.052-.617.824.649.65.82-.615.054.036a3.588,3.588,0,0,0,1.4.585l.065.013ZM43.6,19.44a2.691,2.691,0,1,1,2.691-2.691A2.691,2.691,0,0,1,43.6,19.44Zm0-5.2a2.512,2.512,0,1,0,2.512,2.512A2.512,2.512,0,0,0,43.6,14.237Z" fill="#263238"/>
    </g>
    <g id="freepik--Device--inject-110">
      <path id="패스_51" data-name="패스 51" d="M20.617,16.148H69.974a1.435,1.435,0,0,1,1.435,1.435V51.926H19.2V17.583a1.435,1.435,0,0,1,1.419-1.435Z" fill="#263238"/>
      <path id="패스_52" data-name="패스 52" d="M71.409,52.016H19.2a.09.09,0,0,1-.09-.09V17.583a1.52,1.52,0,0,1,1.52-1.52H69.974a1.521,1.521,0,0,1,1.521,1.52V51.926A.09.09,0,0,1,71.409,52.016ZM19.28,51.836H71.312V17.583a1.342,1.342,0,0,0-1.338-1.346H20.617a1.342,1.342,0,0,0-1.34,1.346Z" fill="#263238"/>
      <path id="패스_53" data-name="패스 53" d="M79.237,67.744H11.354l7.833-15.818H71.406Z" fill="#fff"/>
      <path id="패스_54" data-name="패스 54" d="M79.237,67.833H11.354a.093.093,0,0,1-.077-.043.086.086,0,0,1,0-.086L19.11,51.886a.09.09,0,0,1,.081-.05H71.409a.088.088,0,0,1,.079.05L79.322,67.7a.086.086,0,0,1,0,.086.092.092,0,0,1-.084.043ZM11.5,67.654h67.6L71.35,52.016H19.243Z" fill="#263238"/>
      <rect id="사각형_44" data-name="사각형 44" width="45.892" height="30.114" transform="translate(22.349 18.981)" fill="#2ba5f7"/>
      <path id="패스_55" data-name="패스 55" d="M68.242,49.183H22.349a.09.09,0,0,1-.09-.09V18.981a.09.09,0,0,1,.09-.09H68.242a.09.09,0,0,1,.09.09V49.093A.09.09,0,0,1,68.242,49.183ZM22.438,49H68.153V19.071H22.438Z" fill="#263238"/>
      <path id="패스_56" data-name="패스 56" d="M43.116,56.934l.092-1.927H40.448l-.183,1.927Z" fill="#263238"/>
      <path id="패스_57" data-name="패스 57" d="M43.118,57.023H40.265a.093.093,0,0,1-.066-.029.091.091,0,0,1-.022-.07L40.357,55a.09.09,0,0,1,.09-.081h2.759a.086.086,0,0,1,.065.027.084.084,0,0,1,.025.066L43.2,56.937A.09.09,0,0,1,43.118,57.023Zm-2.754-.179h2.668l.083-1.748H40.531Z" fill="#fff"/>
      <path id="패스_58" data-name="패스 58" d="M48.82,56.934l-.1-1.927H45.967l0,1.927Z" fill="#263238"/>
      <path id="패스_59" data-name="패스 59" d="M48.82,57.023H45.969a.09.09,0,0,1-.09-.09V55.007a.086.086,0,0,1,.09-.09h2.759a.088.088,0,0,1,.088.084l.1,1.927a.084.084,0,0,1-.025.066.086.086,0,0,1-.066.029Zm-2.761-.179h2.666L48.641,55.1H46.057Z" fill="#fff"/>
      <path id="패스_60" data-name="패스 60" d="M63.671,58.993h2.95l-.693-2.06H63.077Z" fill="#263238"/>
      <path id="패스_61" data-name="패스 61" d="M66.62,59.083h-2.95a.088.088,0,0,1-.086-.065l-.594-2.06a.1.1,0,0,1,.014-.079.088.088,0,0,1,.072-.036h2.851a.091.091,0,0,1,.086.061l.693,2.06a.1.1,0,0,1-.013.083A.09.09,0,0,1,66.62,59.083ZM63.739,58.9H66.5l-.633-1.88H63.2Z" fill="#fff"/>
      <path id="패스_62" data-name="패스 62" d="M40.265,56.934l.183-1.927H37.689l-.275,1.927Z" fill="#263238"/>
      <path id="패스_63" data-name="패스 63" d="M40.265,57.023H37.414a.093.093,0,0,1-.068-.031.088.088,0,0,1-.02-.072l.275-1.927a.088.088,0,0,1,.088-.077h2.759a.092.092,0,0,1,.066.029.086.086,0,0,1,.023.068l-.179,1.929A.09.09,0,0,1,40.265,57.023Zm-2.747-.179H40.19l.165-1.748H37.768Z" fill="#fff"/>
      <path id="패스_64" data-name="패스 64" d="M34.563,56.934l.368-1.927H32.172l-.459,1.927Z" fill="#263238"/>
      <path id="패스_65" data-name="패스 65" d="M34.563,57.023H31.712a.089.089,0,0,1-.088-.111l.459-1.927a.09.09,0,0,1,.088-.068h2.759a.086.086,0,0,1,.068.032.09.09,0,0,1,.02.074l-.368,1.927A.088.088,0,0,1,34.563,57.023Zm-2.738-.179H34.49l.332-1.748h-2.58Z" fill="#fff"/>
      <path id="패스_66" data-name="패스 66" d="M60.226,56.934l-.463-1.927H57l.371,1.927Z" fill="#263238"/>
      <path id="패스_67" data-name="패스 67" d="M60.226,57.023H57.375a.088.088,0,0,1-.088-.074l-.371-1.927A.088.088,0,0,1,57,54.917h2.759a.086.086,0,0,1,.086.068l.465,1.927a.092.092,0,0,1-.018.077A.088.088,0,0,1,60.226,57.023Zm-2.777-.179h2.657l-.42-1.748H57.111Z" fill="#fff"/>
      <path id="패스_68" data-name="패스 68" d="M63.077,56.934l-.556-1.927H59.763l.463,1.927Z" fill="#263238"/>
      <path id="패스_69" data-name="패스 69" d="M63.077,57.023H60.226a.092.092,0,0,1-.088-.068l-.463-1.929a.093.093,0,0,1,.016-.075.092.092,0,0,1,.072-.034h2.758a.09.09,0,0,1,.088.065l.547,1.927a.09.09,0,0,1-.014.079.092.092,0,0,1-.065.036ZM60.3,56.844h2.663l-.5-1.748H59.876Z" fill="#fff"/>
      <path id="패스_70" data-name="패스 70" d="M31.712,56.934l.459-1.927H29.412l-.553,1.927Z" fill="#263238"/>
      <path id="패스_71" data-name="패스 71" d="M31.712,57.023H28.86a.091.091,0,0,1-.072-.036.1.1,0,0,1-.014-.079l.553-1.927a.088.088,0,0,1,.086-.065h2.759a.092.092,0,0,1,.07.034.088.088,0,0,1,.016.075L31.8,56.953A.088.088,0,0,1,31.712,57.023Zm-2.733-.179h2.661l.416-1.748H29.48Z" fill="#fff"/>
      <path id="패스_72" data-name="패스 72" d="M51.671,56.934l-.187-1.927H48.725l.1,1.927Z" fill="#263238"/>
      <path id="패스_73" data-name="패스 73" d="M51.673,57.023H48.82a.09.09,0,0,1-.09-.086l-.093-1.927a.09.09,0,0,1,.023-.066.092.092,0,0,1,.066-.027h2.767a.088.088,0,0,1,.09.081l.179,1.927a.092.092,0,0,1-.09.1Zm-2.765-.179h2.666L51.406,55.1H48.82Z" fill="#fff"/>
      <path id="패스_74" data-name="패스 74" d="M65.928,56.934l-.648-1.927H62.521l.556,1.927Z" fill="#263238"/>
      <path id="패스_75" data-name="패스 75" d="M65.928,57.023H63.077a.09.09,0,0,1-.086-.065l-.553-1.929a.092.092,0,0,1,.086-.113h2.759a.09.09,0,0,1,.086.061l.648,1.927a.093.093,0,0,1-.013.081A.092.092,0,0,1,65.928,57.023Zm-2.783-.179H65.8L65.216,55.1H62.641Z" fill="#fff"/>
      <path id="패스_76" data-name="패스 76" d="M57.375,56.934,57,55.007H54.244l.278,1.927Z" fill="#263238"/>
      <path id="패스_77" data-name="패스 77" d="M57.375,57.023H54.522a.09.09,0,0,1-.088-.077l-.278-1.927a.088.088,0,0,1,.088-.1H57a.09.09,0,0,1,.088.072l.371,1.927a.092.092,0,0,1-.088.108ZM54.6,56.844h2.664L56.93,55.1H54.348Z" fill="#fff"/>
      <path id="패스_78" data-name="패스 78" d="M54.522,56.934l-.278-1.927H51.485l.187,1.927Z" fill="#263238"/>
      <path id="패스_79" data-name="패스 79" d="M54.522,57.023H51.673a.091.091,0,0,1-.09-.081L51.4,55.014a.084.084,0,0,1,.022-.068.093.093,0,0,1,.066-.029h2.759a.091.091,0,0,1,.09.075l.278,1.929a.088.088,0,0,1-.022.072A.093.093,0,0,1,54.522,57.023Zm-2.768-.179H54.42L54.167,55.1H51.583Z" fill="#fff"/>
      <path id="패스_80" data-name="패스 80" d="M45.969,56.934l0-1.927H43.208l-.092,1.927Z" fill="#263238"/>
      <path id="패스_81" data-name="패스 81" d="M45.969,57.023H43.118a.093.093,0,0,1-.066-.029.09.09,0,0,1-.023-.066L43.118,55a.09.09,0,0,1,.09-.084h2.759a.09.09,0,0,1,.09.09v1.927A.092.092,0,0,1,46.03,57,.084.084,0,0,1,45.969,57.023Zm-2.758-.179h2.668V55.1H43.294Z" fill="#fff"/>
      <path id="패스_82" data-name="패스 82" d="M26.009,56.934H23.158l-.788,2.06h2.95Z" fill="#263238"/>
      <path id="패스_83" data-name="패스 83" d="M25.32,59.083H22.37a.091.091,0,0,1-.074-.038.1.1,0,0,1-.011-.084l.788-2.06a.091.091,0,0,1,.084-.057h2.858a.093.093,0,0,1,.074.038.091.091,0,0,1,.013.081l-.7,2.067A.09.09,0,0,1,25.32,59.083ZM22.5,58.9h2.754l.63-1.88H23.219Z" fill="#fff"/>
      <path id="패스_84" data-name="패스 84" d="M26.653,55.007H23.893l-.736,1.927h2.851Z" fill="#263238"/>
      <path id="패스_85" data-name="패스 85" d="M26.016,57.023H23.158a.088.088,0,0,1-.074-.039.086.086,0,0,1-.011-.083l.737-1.927a.086.086,0,0,1,.083-.057h2.759a.088.088,0,0,1,.086.117l-.644,1.929a.092.092,0,0,1-.079.061Zm-2.72-.179h2.655l.585-1.748h-2.58Z" fill="#fff"/>
      <path id="패스_86" data-name="패스 86" d="M28.86,56.934l.553-1.927H26.653l-.644,1.927Z" fill="#263238"/>
      <path id="패스_87" data-name="패스 87" d="M28.86,57.023H26.016a.09.09,0,0,1-.084-.118l.644-1.927a.088.088,0,0,1,.084-.061h2.759a.088.088,0,0,1,.072.036.09.09,0,0,1,.014.077l-.553,1.929A.09.09,0,0,1,28.86,57.023Zm-2.725-.179h2.659l.5-1.748H26.717Z" fill="#fff"/>
      <path id="패스_88" data-name="패스 88" d="M21.527,61.2l-.906,2.374h3.169l.793-2.374Z" fill="#263238"/>
      <path id="패스_89" data-name="패스 89" d="M23.789,63.665H20.621a.1.1,0,0,1-.075-.039.09.09,0,0,1-.009-.083l.906-2.374a.092.092,0,0,1,.084-.057h3.05a.093.093,0,0,1,.074.038.086.086,0,0,1,.011.081L23.87,63.6A.09.09,0,0,1,23.789,63.665Zm-3.039-.179h2.975l.734-2.194H21.588Z" fill="#fff"/>
      <path id="패스_90" data-name="패스 90" d="M25.32,58.993H22.37L21.527,61.2h3.056Z" fill="#263238"/>
      <path id="패스_91" data-name="패스 91" d="M24.581,61.292H21.53a.09.09,0,0,1-.084-.122l.843-2.209a.091.091,0,0,1,.084-.057h2.95a.09.09,0,0,1,.086.118l-.739,2.209a.09.09,0,0,1-.09.061Zm-2.926-.179h2.871l.678-2.029H22.427Z" fill="#fff"/>
      <path id="패스_92" data-name="패스 92" d="M24.582,61.2l-.793,2.374h3.169l.68-2.374Z" fill="#263238"/>
      <path id="패스_93" data-name="패스 93" d="M26.96,63.665h-3.17a.09.09,0,0,1-.084-.118l.793-2.365a.09.09,0,0,1,.084-.061h3.05a.092.092,0,0,1,.072.036.09.09,0,0,1,.014.079l-.678,2.372A.092.092,0,0,1,26.96,63.665Zm-3.05-.179h2.977l.628-2.194H24.643Z" fill="#fff"/>
      <path id="패스_94" data-name="패스 94" d="M37.414,56.934l.275-1.927H34.931l-.368,1.927Z" fill="#263238"/>
      <path id="패스_95" data-name="패스 95" d="M37.414,57.023H34.563a.088.088,0,0,1-.088-.108l.359-1.927a.092.092,0,0,1,.09-.072h2.758a.09.09,0,0,1,.09.1L37.5,56.946A.092.092,0,0,1,37.414,57.023Zm-2.743-.179h2.666l.249-1.748H35Z" fill="#fff"/>
      <path id="패스_96" data-name="패스 96" d="M37.12,58.993l.294-2.06H34.563l-.393,2.06Z" fill="#263238"/>
      <path id="패스_97" data-name="패스 97" d="M37.12,59.083h-2.95a.088.088,0,0,1-.088-.106l.393-2.062a.088.088,0,0,1,.088-.072h2.851a.09.09,0,0,1,.068.031.1.1,0,0,1,.022.072l-.294,2.06a.091.091,0,0,1-.09.077ZM34.278,58.9h2.765l.276-1.88H34.646Z" fill="#fff"/>
      <path id="패스_98" data-name="패스 98" d="M34.171,58.993l.393-2.06H31.712l-.492,2.06Z" fill="#263238"/>
      <path id="패스_99" data-name="패스 99" d="M34.171,59.083H31.219a.091.091,0,0,1-.072-.034.093.093,0,0,1-.016-.075l.492-2.062a.09.09,0,0,1,.088-.068h2.851a.083.083,0,0,1,.068.032.086.086,0,0,1,.02.074l-.393,2.062A.088.088,0,0,1,34.171,59.083ZM31.334,58.9H34.09l.359-1.88H31.782Z" fill="#fff"/>
      <path id="패스_100" data-name="패스 100" d="M40.07,58.993l.2-2.06H37.414l-.294,2.06Z" fill="#263238"/>
      <path id="패스_101" data-name="패스 101" d="M40.07,59.083H37.12a.088.088,0,0,1-.088-.1l.287-2.06a.088.088,0,0,1,.088-.077h2.851a.091.091,0,0,1,.066.029.093.093,0,0,1,.023.07l-.2,2.06A.088.088,0,0,1,40.07,59.083ZM37.224,58.9h2.765l.179-1.88H37.5Z" fill="#fff"/>
      <path id="패스_102" data-name="패스 102" d="M28.86,56.934H26.009l-.689,2.06h2.951Z" fill="#263238"/>
      <path id="패스_103" data-name="패스 103" d="M28.271,59.083H25.32a.086.086,0,0,1-.072-.036.088.088,0,0,1-.013-.081l.689-2.062a.092.092,0,0,1,.084-.061H28.86a.086.086,0,0,1,.072.036.083.083,0,0,1,.014.079l-.588,2.06A.09.09,0,0,1,28.271,59.083ZM25.445,58.9H28.2l.538-1.88H26.073Z" fill="#fff"/>
      <path id="패스_104" data-name="패스 104" d="M64.308,61.2h3.056l-.743-2.209h-2.95Z" fill="#263238"/>
      <path id="패스_105" data-name="패스 105" d="M67.363,61.292h-3.05a.09.09,0,0,1-.086-.065l-.637-2.209a.1.1,0,0,1,.014-.079.093.093,0,0,1,.072-.036h2.95a.091.091,0,0,1,.086.061l.736,2.218a.086.086,0,0,1-.013.081A.083.083,0,0,1,67.363,61.292Zm-2.989-.179h2.871l-.68-2.029H63.789Z" fill="#fff"/>
      <path id="패스_106" data-name="패스 106" d="M31.221,58.993l.492-2.06H28.86l-.588,2.06Z" fill="#263238"/>
      <path id="패스_107" data-name="패스 107" d="M31.219,59.083H28.271a.086.086,0,0,1-.072-.036.081.081,0,0,1-.014-.077l.588-2.062a.09.09,0,0,1,.086-.065h2.853a.091.091,0,0,1,.07.034.088.088,0,0,1,.016.075l-.492,2.062a.088.088,0,0,1-.088.068ZM28.388,58.9h2.759l.449-1.88H28.928Z" fill="#fff"/>
      <path id="패스_108" data-name="패스 108" d="M25.32,58.993,24.582,61.2h3.056l.633-2.209Z" fill="#263238"/>
      <path id="패스_109" data-name="패스 109" d="M27.631,61.292h-3.05a.088.088,0,0,1-.074-.038.086.086,0,0,1-.011-.081l.737-2.207a.09.09,0,0,1,.084-.063h2.951a.091.091,0,0,1,.086.115l-.633,2.209A.09.09,0,0,1,27.631,61.292ZM24.7,61.112H27.57l.581-2.029H25.384Z" fill="#fff"/>
      <path id="패스_110" data-name="패스 110" d="M57.771,58.993l-.4-2.06H54.522l.3,2.06Z" fill="#263238"/>
      <path id="패스_111" data-name="패스 111" d="M57.773,59.083H54.82a.09.09,0,0,1-.088-.075l-.3-2.062a.088.088,0,0,1,.022-.072.086.086,0,0,1,.066-.031h2.853a.09.09,0,0,1,.088.072l.4,2.062a.09.09,0,0,1-.088.106ZM54.9,58.9h2.763l-.359-1.88H54.633Z" fill="#fff"/>
      <path id="패스_112" data-name="패스 112" d="M54.82,58.993l-.3-2.06H51.671l.2,2.06Z" fill="#263238"/>
      <path id="패스_113" data-name="패스 113" d="M54.82,59.083H51.87a.09.09,0,0,1-.09-.081l-.2-2.06a.1.1,0,0,1,.023-.07.093.093,0,0,1,.066-.029h2.851a.091.091,0,0,1,.09.077l.291,2.06a.09.09,0,0,1-.09.1ZM51.949,58.9h2.774l-.273-1.88H51.77Z" fill="#fff"/>
      <path id="패스_114" data-name="패스 114" d="M63.671,58.993l-.594-2.06H60.226l.5,2.06Z" fill="#263238"/>
      <path id="패스_115" data-name="패스 115" d="M63.671,59.083h-2.95a.09.09,0,0,1-.088-.068l-.5-2.06a.092.092,0,0,1,.018-.077.088.088,0,0,1,.07-.034h2.851a.09.09,0,0,1,.086.065l.594,2.062a.09.09,0,0,1-.014.077A.088.088,0,0,1,63.671,59.083Zm-2.88-.179h2.761l-.538-1.88H60.339Z" fill="#fff"/>
      <path id="패스_116" data-name="패스 116" d="M45.971,58.993l0-2.06H43.116l-.1,2.06Z" fill="#263238"/>
      <path id="패스_117" data-name="패스 117" d="M45.971,59.083h-2.95a.091.091,0,0,1-.066-.027.09.09,0,0,1-.023-.066l.1-2.062a.09.09,0,0,1,.09-.084h2.851a.09.09,0,0,1,.09.09v2.06a.088.088,0,0,1-.027.065.09.09,0,0,1-.061.025ZM43.115,58.9h2.767v-1.88H43.2Z" fill="#fff"/>
      <path id="패스_118" data-name="패스 118" d="M51.87,58.993l-.2-2.06H48.82l.1,2.06Z" fill="#263238"/>
      <path id="패스_119" data-name="패스 119" d="M51.87,59.083h-2.95a.09.09,0,0,1-.09-.084l-.1-2.062a.089.089,0,0,1,.09-.093h2.853a.09.09,0,0,1,.09.081l.2,2.062a.086.086,0,0,1-.023.068.092.092,0,0,1-.068.029ZM49,58.9h2.765l-.179-1.88H48.913Z" fill="#fff"/>
      <path id="패스_120" data-name="패스 120" d="M48.921,58.993l-.1-2.06H45.969l0,2.06Z" fill="#263238"/>
      <path id="패스_121" data-name="패스 121" d="M48.921,59.083h-2.95a.09.09,0,0,1-.09-.09v-2.06a.1.1,0,0,1,.025-.065.093.093,0,0,1,.065-.025H48.82a.09.09,0,0,1,.09.084l.1,2.062a.084.084,0,0,1-.025.066.086.086,0,0,1-.065.027Zm-2.86-.179h2.767l-.093-1.88H46.059Z" fill="#fff"/>
      <path id="패스_122" data-name="패스 122" d="M43.021,58.993l.1-2.06H40.265l-.2,2.06Z" fill="#263238"/>
      <path id="패스_123" data-name="패스 123" d="M43.021,59.083H40.07A.093.093,0,0,1,40,59.054a.084.084,0,0,1-.022-.068l.2-2.062a.088.088,0,0,1,.088-.081h2.853a.086.086,0,0,1,.088.093L43.111,59A.092.092,0,0,1,43.021,59.083ZM40.169,58.9h2.767l.088-1.88H40.348Z" fill="#fff"/>
      <path id="패스_124" data-name="패스 124" d="M51.87,58.993l.214,2.209h3.056l-.319-2.209Z" fill="#263238"/>
      <path id="패스_125" data-name="패스 125" d="M55.139,61.292h-3.05a.09.09,0,0,1-.09-.081L51.786,59a.093.093,0,0,1,.023-.068.09.09,0,0,1,.066-.031h2.95a.091.091,0,0,1,.09.077l.314,2.2a.1.1,0,0,1-.09.109Zm-2.973-.179h2.871l-.294-2.029H51.969Z" fill="#fff"/>
      <path id="패스_126" data-name="패스 126" d="M54.82,58.993l.319,2.209H58.2l-.425-2.209Z" fill="#263238"/>
      <path id="패스_127" data-name="패스 127" d="M58.195,61.292h-3.05a.088.088,0,0,1-.088-.077l-.319-2.207a.086.086,0,0,1,.022-.072.088.088,0,0,1,.066-.032h2.948a.09.09,0,0,1,.088.074l.423,2.205a.092.092,0,0,1-.02.074.09.09,0,0,1-.07.036Zm-2.977-.179h2.871L57.7,59.083H54.924Z" fill="#fff"/>
      <path id="패스_128" data-name="패스 128" d="M28.271,58.993,27.638,61.2h3.056l.527-2.209Z" fill="#263238"/>
      <path id="패스_129" data-name="패스 129" d="M30.693,61.292H27.631a.088.088,0,0,1-.072-.036.093.093,0,0,1-.014-.079l.633-2.207a.088.088,0,0,1,.086-.066h2.955a.09.09,0,0,1,.086.111l-.526,2.209A.09.09,0,0,1,30.693,61.292Zm-2.937-.179h2.871l.483-2.029H28.338Z" fill="#fff"/>
      <path id="패스_130" data-name="패스 130" d="M57.771,58.993,58.2,61.2h3.056l-.531-2.209Z" fill="#263238"/>
      <path id="패스_131" data-name="패스 131" d="M61.252,61.292H58.2a.092.092,0,0,1-.088-.072l-.431-2.209a.088.088,0,0,1,.018-.074.091.091,0,0,1,.07-.034h2.95a.088.088,0,0,1,.086.07l.538,2.209a.088.088,0,0,1-.016.075A.092.092,0,0,1,61.252,61.292Zm-2.982-.179h2.871l-.5-2.029H57.879Z" fill="#fff"/>
      <path id="패스_132" data-name="패스 132" d="M45.971,58.993l0,2.209h3.056l-.108-2.209Z" fill="#263238"/>
      <path id="패스_133" data-name="패스 133" d="M49.028,61.292h-3.05a.09.09,0,0,1-.09-.09V58.993a.09.09,0,0,1,.025-.063.1.1,0,0,1,.065-.027h2.95a.09.09,0,0,1,.09.086l.108,2.209a.089.089,0,0,1-.1.093Zm-2.966-.179h2.871l-.1-2.029H46.061Z" fill="#fff"/>
      <path id="패스_134" data-name="패스 134" d="M60.721,58.993l.531,2.209h3.056l-.637-2.209Z" fill="#263238"/>
      <path id="패스_135" data-name="패스 135" d="M64.308,61.292h-3.05a.09.09,0,0,1-.088-.068l-.538-2.209a.092.092,0,0,1,.018-.077.086.086,0,0,1,.07-.034h2.95a.09.09,0,0,1,.086.066l.639,2.212a.1.1,0,0,1-.014.079.091.091,0,0,1-.072.03Zm-2.986-.179h2.871l-.585-2.029H60.834Z" fill="#fff"/>
      <path id="패스_136" data-name="패스 136" d="M48.921,58.993l.108,2.209h3.056l-.214-2.209Z" fill="#263238"/>
      <path id="패스_137" data-name="패스 137" d="M52.084,61.292h-3.05a.09.09,0,0,1-.09-.084L48.836,59a.084.084,0,0,1,.025-.066.086.086,0,0,1,.065-.029H51.87a.09.09,0,0,1,.09.083l.214,2.207a.093.093,0,0,1-.023.07A.092.092,0,0,1,52.084,61.292Zm-2.969-.179h2.871l-.2-2.029H49.016Z" fill="#fff"/>
      <path id="패스_138" data-name="패스 138" d="M34.171,58.993,33.749,61.2H36.8l.316-2.209Z" fill="#263238"/>
      <path id="패스_139" data-name="패스 139" d="M36.806,61.292h-3.05a.086.086,0,0,1-.068-.032.09.09,0,0,1-.02-.074l.422-2.209a.088.088,0,0,1,.088-.074h2.95a.091.091,0,0,1,.09.1L36.9,61.214A.09.09,0,0,1,36.806,61.292Zm-2.948-.179h2.871l.291-2.029H34.244Z" fill="#fff"/>
      <path id="패스_140" data-name="패스 140" d="M31.221,58.993,30.693,61.2h3.056l.422-2.209Z" fill="#263238"/>
      <path id="패스_141" data-name="패스 141" d="M33.749,61.292H30.7a.092.092,0,0,1-.07-.034.088.088,0,0,1-.016-.075l.526-2.209a.09.09,0,0,1,.088-.07h2.95a.093.093,0,0,1,.088.108l-.42,2.209a.092.092,0,0,1-.1.072Zm-2.941-.179h2.871l.386-2.029H31.291Z" fill="#fff"/>
      <path id="패스_142" data-name="패스 142" d="M43.021,58.993l-.1,2.209h3.056l0-2.209Z" fill="#263238"/>
      <path id="패스_143" data-name="패스 143" d="M45.973,61.292h-3.05a.086.086,0,0,1-.065-.027.084.084,0,0,1-.025-.066l.1-2.209a.09.09,0,0,1,.09-.086h2.95a.092.092,0,0,1,.09.09V61.2a.091.091,0,0,1-.027.065.09.09,0,0,1-.066.025Zm-2.962-.179h2.871V59.083H43.106Z" fill="#fff"/>
      <path id="패스_144" data-name="패스 144" d="M40.07,58.993,39.862,61.2h3.056l.1-2.209Z" fill="#263238"/>
      <path id="패스_145" data-name="패스 145" d="M42.917,61.292h-3.05a.092.092,0,0,1-.066-.029.088.088,0,0,1-.023-.068l.21-2.209a.09.09,0,0,1,.088-.083h2.951a.093.093,0,0,1,.065.029.1.1,0,0,1,.025.066l-.1,2.209a.092.092,0,0,1-.1.084Zm-2.957-.179h2.871l.1-2.029H40.152Z" fill="#fff"/>
      <path id="패스_146" data-name="패스 146" d="M37.12,58.993,36.8,61.2h3.057l.208-2.209Z" fill="#263238"/>
      <path id="패스_147" data-name="패스 147" d="M39.862,61.292h-3.05a.09.09,0,0,1-.09-.1l.316-2.209a.09.09,0,0,1,.088-.077h2.95a.086.086,0,0,1,.066.031.081.081,0,0,1,.023.068l-.21,2.209A.088.088,0,0,1,39.862,61.292Zm-2.953-.179h2.871l.192-2.029H37.2Z" fill="#fff"/>
      <path id="패스_148" data-name="패스 148" d="M60.721,58.993l-.5-2.06H57.375l.4,2.06Z" fill="#263238"/>
      <path id="패스_149" data-name="패스 149" d="M60.721,59.083H57.773a.088.088,0,0,1-.088-.072l-.4-2.062a.091.091,0,0,1,.018-.074.09.09,0,0,1,.07-.032h2.851a.092.092,0,0,1,.088.068l.493,2.062a.083.083,0,0,1-.016.075.088.088,0,0,1-.072.034ZM57.85,58.9h2.761l-.452-1.88H57.483Z" fill="#fff"/>
      <path id="패스_150" data-name="패스 150" d="M26.653,55.007l.66-1.974H24.649l-.755,1.974Z" fill="#263238"/>
      <path id="패스_151" data-name="패스 151" d="M26.653,55.1H23.893a.09.09,0,0,1-.083-.122L24.564,53a.09.09,0,0,1,.083-.057h2.666a.09.09,0,0,1,.084.118l-.658,1.974A.09.09,0,0,1,26.653,55.1Zm-2.629-.179h2.564l.6-1.794H24.71Z" fill="#fff"/>
      <path id="패스_152" data-name="패스 152" d="M23.893,55.007H21.347l-.822,1.927h2.632Z" fill="#263238"/>
      <path id="패스_153" data-name="패스 153" d="M23.158,57.023H20.526a.093.093,0,0,1-.075-.041.088.088,0,0,1,0-.084l.822-1.927a.092.092,0,0,1,.083-.054H23.9a.1.1,0,0,1,.075.038.09.09,0,0,1,0,.083l-.736,1.929a.092.092,0,0,1-.083.057Zm-2.5-.179H23.1l.667-1.748H21.407Z" fill="#fff"/>
      <path id="패스_154" data-name="패스 154" d="M24.649,53.033h-2.46l-.841,1.974h2.546Z" fill="#263238"/>
      <path id="패스_155" data-name="패스 155" d="M23.893,55.1H21.351a.09.09,0,0,1-.075-.041.088.088,0,0,1,0-.084L22.117,53a.086.086,0,0,1,.083-.054h2.458a.092.092,0,0,1,.075.039.09.09,0,0,1,.009.083l-.754,1.974A.09.09,0,0,1,23.893,55.1Zm-2.41-.179h2.349l.685-1.794h-2.27Z" fill="#fff"/>
      <path id="패스_156" data-name="패스 156" d="M23.158,56.934H20.526l-.879,2.06H22.37Z" fill="#263238"/>
      <path id="패스_157" data-name="패스 157" d="M22.37,59.083H19.646a.09.09,0,0,1-.083-.124l.879-2.062a.092.092,0,0,1,.083-.054h2.632a.088.088,0,0,1,.074.039.084.084,0,0,1,.011.083l-.788,2.063A.09.09,0,0,1,22.37,59.083ZM19.783,58.9h2.526l.718-1.88H20.585Z" fill="#fff"/>
      <path id="패스_158" data-name="패스 158" d="M22.37,58.993H19.646l-.94,2.209h2.82Z" fill="#263238"/>
      <path id="패스_159" data-name="패스 159" d="M21.53,61.292H18.706a.088.088,0,0,1-.083-.124l.933-2.209a.09.09,0,0,1,.083-.056h2.724a.091.091,0,0,1,.084.122L21.6,61.234A.092.092,0,0,1,21.53,61.292Zm-2.691-.179h2.623l.786-2.029H19.706Z" fill="#fff"/>
      <path id="패스_160" data-name="패스 160" d="M21.527,61.2h-2.82l-1.012,2.374h2.926Z" fill="#263238"/>
      <path id="패스_161" data-name="패스 161" d="M20.621,63.665H17.694a.093.093,0,0,1-.075-.041.088.088,0,0,1,0-.084l1.012-2.372a.09.09,0,0,1,.083-.056H21.53a.088.088,0,0,1,.074.039.1.1,0,0,1,.011.083l-.908,2.372a.088.088,0,0,1-.086.059Zm-2.79-.179h2.727l.838-2.194h-2.63Z" fill="#fff"/>
      <path id="패스_162" data-name="패스 162" d="M68.781,56.934l.789,2.06h2.611l-.879-2.06Z" fill="#263238"/>
      <path id="패스_163" data-name="패스 163" d="M72.181,59.083H69.572a.088.088,0,0,1-.084-.057l-.791-2.06a.089.089,0,0,1,.083-.122H71.3a.088.088,0,0,1,.083.054l.879,2.062a.088.088,0,0,1,0,.084.091.091,0,0,1-.083.039ZM69.633,58.9h2.411l-.8-1.88H68.91Z" fill="#fff"/>
      <path id="패스_164" data-name="패스 164" d="M70.419,61.2h2.7l-.942-2.209H69.57Z" fill="#263238"/>
      <path id="패스_165" data-name="패스 165" d="M73.123,61.292h-2.7a.092.092,0,0,1-.084-.057l-.847-2.205a.09.09,0,0,1,.084-.122h2.609a.09.09,0,0,1,.083.056l.94,2.205a.09.09,0,0,1-.083.124Zm-2.643-.179h2.512l-.865-2.029H69.7Z" fill="#fff"/>
      <path id="패스_166" data-name="패스 166" d="M71.33,63.576h2.8L73.123,61.2h-2.7Z" fill="#263238"/>
      <path id="패스_167" data-name="패스 167" d="M74.133,63.665h-2.8a.09.09,0,0,1-.084-.057l-.913-2.374a.091.091,0,0,1,.084-.122h2.7a.09.09,0,0,1,.083.056l1.01,2.372a.088.088,0,0,1,0,.084A.09.09,0,0,1,74.133,63.665Zm-2.742-.179H74l-.935-2.194H70.551Z" fill="#fff"/>
      <path id="패스_168" data-name="패스 168" d="M48.725,55.007l-.1-1.974H45.966l0,1.974Z" fill="#263238"/>
      <path id="패스_169" data-name="패스 169" d="M48.727,55.1H45.967a.09.09,0,0,1-.09-.09V53.033a.09.09,0,0,1,.025-.063.088.088,0,0,1,.065-.027h2.655a.09.09,0,0,1,.09.086l.1,1.974a.09.09,0,0,1-.023.066A.093.093,0,0,1,48.727,55.1Zm-2.67-.179h2.575l-.088-1.794H46.055Z" fill="#fff"/>
      <path id="패스_170" data-name="패스 170" d="M68.781,56.934H71.3l-.822-1.927H68.04Z" fill="#263238"/>
      <path id="패스_171" data-name="패스 171" d="M71.3,57.023H68.779a.09.09,0,0,1-.083-.057l-.739-1.929a.088.088,0,0,1,.083-.12h2.442a.091.091,0,0,1,.083.054l.82,1.927a.088.088,0,0,1,0,.084A.09.09,0,0,1,71.3,57.023Zm-2.46-.179h2.332L70.429,55.1H68.18Z" fill="#fff"/>
      <path id="패스_172" data-name="패스 172" d="M67.363,61.2h3.056l-.849-2.209H66.62Z" fill="#263238"/>
      <path id="패스_173" data-name="패스 173" d="M70.419,61.292h-3.05a.09.09,0,0,1-.086-.061l-.746-2.2a.09.09,0,0,1,.084-.118h2.951a.09.09,0,0,1,.083.057l.858,2.2a.093.093,0,0,1-.011.084A.092.092,0,0,1,70.419,61.292Zm-2.991-.179h2.86l-.779-2.029H66.744Z" fill="#fff"/>
      <path id="패스_174" data-name="패스 174" d="M29.412,55.007l.565-1.974H27.313l-.66,1.974Z" fill="#263238"/>
      <path id="패스_175" data-name="패스 175" d="M29.412,55.1H26.653a.09.09,0,0,1-.084-.118L27.227,53a.091.091,0,0,1,.086-.061h2.664a.091.091,0,0,1,.072.036.1.1,0,0,1,.014.079L29.5,55.032A.09.09,0,0,1,29.412,55.1Zm-2.634-.179h2.566l.513-1.794h-2.48Z" fill="#fff"/>
      <path id="패스_176" data-name="패스 176" d="M65.28,55.007l.648,1.927h2.853l-.741-1.927Z" fill="#263238"/>
      <path id="패스_177" data-name="패스 177" d="M68.779,57.023H65.928a.092.092,0,0,1-.084-.061L65.2,55.035a.091.091,0,0,1,.013-.083.086.086,0,0,1,.072-.036H68.04a.09.09,0,0,1,.084.057l.739,1.927a.09.09,0,0,1-.009.083.092.092,0,0,1-.075.039Zm-2.786-.179H68.65L67.979,55.1H65.406Z" fill="#fff"/>
      <path id="패스_178" data-name="패스 178" d="M70.48,55.007l-.84-1.974H67.282l.757,1.974Z" fill="#263238"/>
      <path id="패스_179" data-name="패스 179" d="M70.482,55.1H68.04a.088.088,0,0,1-.083-.057L67.2,53.065a.09.09,0,0,1,.011-.083.088.088,0,0,1,.074-.039H69.64a.092.092,0,0,1,.083.054l.841,1.974a.088.088,0,0,1-.009.084.09.09,0,0,1-.074.041ZM68.1,54.917h2.243l-.764-1.794H67.413Z" fill="#fff"/>
      <path id="패스_180" data-name="패스 180" d="M68.04,55.007l-.757-1.974H64.618l.662,1.974Z" fill="#263238"/>
      <path id="패스_181" data-name="패스 181" d="M68.04,55.1H65.28a.092.092,0,0,1-.084-.061l-.664-1.974a.09.09,0,0,1,.086-.118h2.664a.091.091,0,0,1,.084.057l.757,1.974a.091.091,0,0,1-.084.122Zm-2.691-.179h2.564l-.687-1.794H64.742Z" fill="#fff"/>
      <path id="패스_182" data-name="패스 182" d="M58.2,61.2l.456,2.374h3.169L61.252,61.2Z" fill="#263238"/>
      <path id="패스_183" data-name="패스 183" d="M61.821,63.665H58.652a.088.088,0,0,1-.088-.074l-.458-2.372a.1.1,0,0,1,.02-.075.091.091,0,0,1,.068-.032h3.05a.088.088,0,0,1,.086.07l.571,2.372a.089.089,0,0,1-.081.111Zm-3.095-.179h2.982l-.526-2.194H58.311Z" fill="#fff"/>
      <path id="패스_184" data-name="패스 184" d="M68.16,63.576h3.17L70.419,61.2H67.363Z" fill="#263238"/>
      <path id="패스_185" data-name="패스 185" d="M71.33,63.665H68.16a.092.092,0,0,1-.084-.061l-.793-2.374a.09.09,0,0,1,.086-.118h3.05a.092.092,0,0,1,.084.057l.906,2.374a.09.09,0,0,1,0,.083.093.093,0,0,1-.079.039Zm-3.106-.179H71.2l-.841-2.194H67.487Z" fill="#fff"/>
      <path id="패스_186" data-name="패스 186" d="M65.28,55.007l-.662-1.974H61.954l.567,1.974Z" fill="#263238"/>
      <path id="패스_187" data-name="패스 187" d="M65.28,55.1H62.521a.092.092,0,0,1-.086-.066l-.567-1.974a.084.084,0,0,1,.014-.079.091.091,0,0,1,.072-.036h2.664A.092.092,0,0,1,64.7,53l.664,1.974a.093.093,0,0,1-.013.081.092.092,0,0,1-.074.039Zm-2.691-.179h2.567l-.6-1.794H62.079Z" fill="#fff"/>
      <path id="패스_188" data-name="패스 188" d="M64.308,61.2l.684,2.374H68.16l-.8-2.374Z" fill="#263238"/>
      <path id="패스_189" data-name="패스 189" d="M68.16,63.665H64.991a.09.09,0,0,1-.086-.066l-.684-2.372a.084.084,0,0,1,.014-.079.092.092,0,0,1,.072-.036h3.05a.092.092,0,0,1,.084.061l.8,2.374a.091.091,0,0,1-.081.118Zm-3.1-.179h2.978L67.3,61.292H64.428Z" fill="#fff"/>
      <path id="패스_190" data-name="패스 190" d="M61.252,61.2l.569,2.374h3.17L64.308,61.2Z" fill="#263238"/>
      <path id="패스_191" data-name="패스 191" d="M64.991,63.665h-3.17a.088.088,0,0,1-.086-.07l-.571-2.372a.089.089,0,0,1,.088-.111H64.3a.09.09,0,0,1,.086.065l.684,2.374a.1.1,0,0,1-.014.079.1.1,0,0,1-.066.036Zm-3.1-.179h2.978l-.639-2.194H61.362Z" fill="#fff"/>
      <path id="패스_192" data-name="패스 192" d="M66.62,58.993h2.95l-.789-2.06H65.928Z" fill="#263238"/>
      <path id="패스_193" data-name="패스 193" d="M69.572,59.083H66.62a.088.088,0,0,1-.084-.061l-.689-2.06a.09.09,0,0,1,.084-.118h2.851a.09.09,0,0,1,.084.057l.791,2.06a.088.088,0,0,1-.083.122ZM66.685,58.9h2.751l-.718-1.88H66.053Z" fill="#fff"/>
      <path id="패스_194" data-name="패스 194" d="M40.448,55.007l.187-1.974H37.971l-.282,1.974Z" fill="#263238"/>
      <path id="패스_195" data-name="패스 195" d="M40.448,55.1H37.689a.088.088,0,0,1-.066-.032.084.084,0,0,1-.022-.07l.282-1.974a.088.088,0,0,1,.088-.077h2.664a.091.091,0,0,1,.066.029.086.086,0,0,1,.023.07l-.179,1.974a.09.09,0,0,1-.1.081Zm-2.655-.179h2.576l.169-1.794H38.05Z" fill="#fff"/>
      <path id="패스_196" data-name="패스 196" d="M62.521,55.007l-.567-1.974H59.289l.474,1.974Z" fill="#263238"/>
      <path id="패스_197" data-name="패스 197" d="M62.521,55.1H59.763a.09.09,0,0,1-.088-.07L59.2,53.053a.089.089,0,0,1,.088-.111h2.664a.09.09,0,0,1,.086.065l.569,1.974a.091.091,0,0,1-.088.115Zm-2.691-.179H62.4l-.517-1.794H59.4Z" fill="#fff"/>
      <path id="패스_198" data-name="패스 198" d="M37.689,55.007l.282-1.974H35.306l-.375,1.974Z" fill="#263238"/>
      <path id="패스_199" data-name="패스 199" d="M37.689,55.1H34.931a.092.092,0,0,1-.07-.034.1.1,0,0,1-.02-.074l.377-1.974a.088.088,0,0,1,.088-.074h2.664a.09.09,0,0,1,.09.1l-.282,1.974A.092.092,0,0,1,37.689,55.1Zm-2.65-.179h2.573l.257-1.794H35.38Z" fill="#fff"/>
      <path id="패스_200" data-name="패스 200" d="M45.967,55.007l0-1.974H43.3l-.093,1.974Z" fill="#263238"/>
      <path id="패스_201" data-name="패스 201" d="M45.967,55.1H43.208a.086.086,0,0,1-.065-.029A.084.084,0,0,1,43.118,55l.093-1.974a.09.09,0,0,1,.09-.086h2.664a.09.09,0,0,1,.09.09V55a.092.092,0,0,1-.09.09ZM43.3,54.917h2.576V53.123H43.386Z" fill="#fff"/>
      <path id="패스_202" data-name="패스 202" d="M34.931,55.007l.375-1.974H32.642l-.47,1.974Z" fill="#263238"/>
      <path id="패스_203" data-name="패스 203" d="M34.931,55.1H32.172a.092.092,0,0,1-.072-.034.1.1,0,0,1-.016-.077l.47-1.974a.091.091,0,0,1,.088-.068h2.664a.1.1,0,0,1,.07.032.092.092,0,0,1,.018.074l-.375,1.974a.09.09,0,0,1-.088.074Zm-2.646-.179h2.571l.343-1.794H32.712Z" fill="#fff"/>
      <path id="패스_204" data-name="패스 204" d="M32.172,55.007l.47-1.974H29.977l-.565,1.974Z" fill="#263238"/>
      <path id="패스_205" data-name="패스 205" d="M32.172,55.1H29.412a.092.092,0,0,1-.072-.036.1.1,0,0,1-.014-.079l.565-1.974a.09.09,0,0,1,.086-.065h2.664a.088.088,0,0,1,.07.034.092.092,0,0,1,.018.077l-.472,1.974A.088.088,0,0,1,32.172,55.1Zm-2.641-.179H32.1l.429-1.794H30.044Z" fill="#fff"/>
      <path id="패스_206" data-name="패스 206" d="M43.208,55.007l.093-1.974H40.635l-.187,1.974Z" fill="#263238"/>
      <path id="패스_207" data-name="패스 207" d="M43.208,55.1H40.448a.09.09,0,0,1-.066-.031A.093.093,0,0,1,40.359,55l.188-1.974a.09.09,0,0,1,.088-.081H43.3a.092.092,0,0,1,.09.093L43.3,55.01A.09.09,0,0,1,43.208,55.1Zm-2.661-.179h2.575l.084-1.794H40.718Z" fill="#fff"/>
      <path id="패스_208" data-name="패스 208" d="M59.763,55.007l-.474-1.974H56.623L57,55.007Z" fill="#263238"/>
      <path id="패스_209" data-name="패스 209" d="M59.763,55.1H57a.088.088,0,0,1-.088-.074l-.38-1.974a.091.091,0,0,1,.088-.108h2.666a.088.088,0,0,1,.086.068l.474,1.974a.09.09,0,0,1-.086.111Zm-2.691-.179h2.571l-.431-1.794h-2.48Z" fill="#fff"/>
      <path id="패스_210" data-name="패스 210" d="M57,55.007l-.38-1.974H53.959l.285,1.974Z" fill="#263238"/>
      <path id="패스_211" data-name="패스 211" d="M57,55.1H54.244a.09.09,0,0,1-.088-.077l-.285-1.974a.087.087,0,0,1,.088-.1h2.664a.091.091,0,0,1,.09.074l.379,1.974A.09.09,0,0,1,57,55.1Zm-2.682-.179h2.573l-.344-1.794H54.063Z" fill="#fff"/>
      <path id="패스_212" data-name="패스 212" d="M51.485,55.007l-.19-1.974H48.63l.1,1.974Z" fill="#263238"/>
      <path id="패스_213" data-name="패스 213" d="M51.494,55.1H48.727a.09.09,0,0,1-.09-.086l-.1-1.974a.083.083,0,0,1,.025-.066.086.086,0,0,1,.065-.029h2.664a.092.092,0,0,1,.09.081L51.574,55a.092.092,0,0,1-.09.1Zm-2.673-.179h2.566l-.179-1.794H48.723Z" fill="#fff"/>
      <path id="패스_214" data-name="패스 214" d="M58.2,61.2H27.638l-.68,2.374H58.652Z" fill="#263238"/>
      <path id="패스_215" data-name="패스 215" d="M58.652,63.665H26.96a.092.092,0,0,1-.072-.036.084.084,0,0,1-.014-.079l.678-2.368a.09.09,0,0,1,.086-.065H58.195a.091.091,0,0,1,.09.074l.456,2.372a.088.088,0,0,1-.018.074A.091.091,0,0,1,58.652,63.665Zm-31.578-.179H58.543l-.422-2.194H27.706Z" fill="#fff"/>
      <path id="패스_216" data-name="패스 216" d="M54.244,55.007l-.285-1.974H51.294l.19,1.974Z" fill="#263238"/>
      <path id="패스_217" data-name="패스 217" d="M54.244,55.1H51.494a.09.09,0,0,1-.088-.083l-.192-1.974a.093.093,0,0,1,.023-.068.086.086,0,0,1,.066-.03h2.664a.092.092,0,0,1,.09.077l.285,1.974a.093.093,0,0,1-.022.072.092.092,0,0,1-.077.032Zm-2.677-.179H54.14l-.258-1.794H51.393Z" fill="#fff"/>
      <rect id="사각형_45" data-name="사각형 45" width="67.914" height="0.963" transform="translate(11.354 67.744)" fill="#263238"/>
      <path id="패스_218" data-name="패스 218" d="M79.268,68.8H11.354a.09.09,0,0,1-.09-.09v-.963a.09.09,0,0,1,.09-.09H79.268a.09.09,0,0,1,.09.09v.963A.09.09,0,0,1,79.268,68.8Zm-67.821-.179H79.178v-.784H11.443Z" fill="#263238"/>
      <path id="패스_219" data-name="패스 219" d="M28.268,21.624h-2.96a.269.269,0,0,1,0-.538h2.96a.269.269,0,1,1,0,.538Z" fill="#263238"/>
      <path id="패스_220" data-name="패스 220" d="M36.422,23.145H25.3a.269.269,0,0,1,0-.538H36.422a.269.269,0,1,1,0,.538Z" fill="#fff"/>
      <path id="패스_221" data-name="패스 221" d="M53.616,23.145H42.5a.269.269,0,0,1,0-.538H53.616a.269.269,0,1,1,0,.538Z" fill="#fff"/>
      <path id="패스_222" data-name="패스 222" d="M41.541,23.145h-4.4a.269.269,0,1,1,0-.538h4.4a.269.269,0,0,1,0,.538Z" fill="#263238"/>
      <path id="패스_223" data-name="패스 223" d="M31.705,24.663h-6.4a.269.269,0,0,1,0-.538h6.4a.269.269,0,0,1,0,.538Z" fill="#263238"/>
      <path id="패스_224" data-name="패스 224" d="M38.9,24.663h-6.4a.269.269,0,1,1,0-.538h6.4a.269.269,0,1,1,0,.538Z" fill="#263238"/>
      <path id="패스_225" data-name="패스 225" d="M46.1,24.663H39.7a.269.269,0,0,1,0-.538h6.4a.269.269,0,1,1,0,.538Z" fill="#263238"/>
      <path id="패스_226" data-name="패스 226" d="M49.617,24.663H46.9a.269.269,0,1,1,0-.538h2.718a.269.269,0,1,1,0,.538Z" fill="#263238"/>
      <path id="패스_227" data-name="패스 227" d="M32.025,21.624H29.066a.269.269,0,0,1,0-.538h2.959a.269.269,0,1,1,0,.538Z" fill="#263238"/>
      <path id="패스_228" data-name="패스 228" d="M49.617,21.624H46.658a.269.269,0,1,1,0-.538h2.959a.269.269,0,1,1,0,.538Z" fill="#263238"/>
      <path id="패스_229" data-name="패스 229" d="M45.7,21.624H42.74a.269.269,0,1,1,0-.538H45.7a.269.269,0,0,1,0,.538Z" fill="#fff"/>
      <path id="패스_230" data-name="패스 230" d="M41.46,21.624H32.834a.269.269,0,1,1,0-.538h8.635a.269.269,0,1,1,0,.538Z" fill="#263238"/>
      <path id="패스_231" data-name="패스 231" d="M28.268,30.9h-2.96a.269.269,0,0,1,0-.538h2.96a.269.269,0,1,1,0,.538Z" fill="#263238"/>
      <path id="패스_232" data-name="패스 232" d="M36.422,32.419H25.3a.269.269,0,1,1,0-.538H36.422a.269.269,0,1,1,0,.538Z" fill="#fff"/>
      <path id="패스_233" data-name="패스 233" d="M53.616,32.419H42.5a.269.269,0,1,1,0-.538H53.616a.269.269,0,1,1,0,.538Z" fill="#263238"/>
      <path id="패스_234" data-name="패스 234" d="M41.541,32.419h-4.4a.269.269,0,1,1,0-.538h4.4a.269.269,0,0,1,0,.538Z" fill="#263238"/>
      <path id="패스_235" data-name="패스 235" d="M31.705,33.939h-6.4a.269.269,0,0,1,0-.538h6.4a.269.269,0,1,1,0,.538Z" fill="#263238"/>
      <path id="패스_236" data-name="패스 236" d="M38.9,33.939h-6.4a.269.269,0,1,1,0-.538h6.4a.269.269,0,1,1,0,.538Z" fill="#263238"/>
      <path id="패스_237" data-name="패스 237" d="M46.1,33.939H39.7a.269.269,0,0,1,0-.538h6.4a.269.269,0,1,1,0,.538Z" fill="#fff"/>
      <path id="패스_238" data-name="패스 238" d="M49.617,33.939H46.9a.269.269,0,1,1,0-.538h2.718a.269.269,0,1,1,0,.538Z" fill="#263238"/>
      <path id="패스_239" data-name="패스 239" d="M32.025,30.9H29.066a.269.269,0,0,1,0-.538h2.959a.269.269,0,1,1,0,.538Z" fill="#263238"/>
      <path id="패스_240" data-name="패스 240" d="M49.617,30.9H46.658a.269.269,0,1,1,0-.538h2.959a.269.269,0,1,1,0,.538Z" fill="#263238"/>
      <path id="패스_241" data-name="패스 241" d="M45.7,30.9H42.74a.269.269,0,1,1,0-.538H45.7a.269.269,0,0,1,0,.538Z" fill="#fff"/>
      <path id="패스_242" data-name="패스 242" d="M41.46,30.9H32.834a.269.269,0,1,1,0-.538h8.635a.269.269,0,1,1,0,.538Z" fill="#263238"/>
      <path id="패스_243" data-name="패스 243" d="M28.268,44.573h-2.96a.269.269,0,0,1,0-.538h2.96a.269.269,0,1,1,0,.538Z" fill="#263238"/>
      <path id="패스_244" data-name="패스 244" d="M36.422,46.093H25.3a.269.269,0,1,1,0-.538H36.422a.269.269,0,1,1,0,.538Z" fill="#fff"/>
      <path id="패스_245" data-name="패스 245" d="M53.616,46.093H42.5a.269.269,0,0,1,0-.538H53.616a.269.269,0,1,1,0,.538Z" fill="#263238"/>
      <path id="패스_246" data-name="패스 246" d="M41.541,46.093h-4.4a.269.269,0,1,1,0-.538h4.4a.269.269,0,0,1,0,.538Z" fill="#263238"/>
      <path id="패스_247" data-name="패스 247" d="M31.705,47.613h-6.4a.269.269,0,0,1,0-.538h6.4a.269.269,0,0,1,0,.538Z" fill="#263238"/>
      <path id="패스_248" data-name="패스 248" d="M38.9,47.613h-6.4a.269.269,0,0,1,0-.538h6.4a.269.269,0,0,1,0,.538Z" fill="#263238"/>
      <path id="패스_249" data-name="패스 249" d="M46.1,47.613H39.7a.269.269,0,0,1,0-.538h6.4a.269.269,0,1,1,0,.538Z" fill="#fff"/>
      <path id="패스_250" data-name="패스 250" d="M49.617,47.613H46.9a.269.269,0,0,1,0-.538h2.718a.269.269,0,1,1,0,.538Z" fill="#263238"/>
      <path id="패스_251" data-name="패스 251" d="M32.025,44.573H29.066a.269.269,0,1,1,0-.538h2.959a.269.269,0,1,1,0,.538Z" fill="#263238"/>
      <path id="패스_252" data-name="패스 252" d="M49.617,44.573H46.658a.269.269,0,1,1,0-.538h2.959a.269.269,0,1,1,0,.538Z" fill="#263238"/>
      <path id="패스_253" data-name="패스 253" d="M45.7,44.573H42.74a.269.269,0,1,1,0-.538H45.7a.269.269,0,0,1,0,.538Z" fill="#fff"/>
      <path id="패스_254" data-name="패스 254" d="M41.46,44.573H32.834a.269.269,0,1,1,0-.538h8.635a.269.269,0,1,1,0,.538Z" fill="#263238"/>
      <path id="패스_255" data-name="패스 255" d="M44.9,26.262H41.941a.269.269,0,1,1,0-.538H44.9a.269.269,0,1,1,0,.538Z" fill="#263238"/>
      <path id="패스_256" data-name="패스 256" d="M40.981,26.262H38.023a.269.269,0,1,1,0-.538h2.959a.269.269,0,1,1,0,.538Z" fill="#263238"/>
      <path id="패스_257" data-name="패스 257" d="M36.743,26.262H28.106a.269.269,0,0,1,0-.538h8.637a.269.269,0,0,1,0,.538Z" fill="#263238"/>
      <path id="패스_258" data-name="패스 258" d="M44.9,28.98H41.941a.269.269,0,1,1,0-.538H44.9a.269.269,0,1,1,0,.538Z" fill="#263238"/>
      <path id="패스_259" data-name="패스 259" d="M40.981,28.98H38.023a.269.269,0,1,1,0-.538h2.959a.269.269,0,1,1,0,.538Z" fill="#263238"/>
      <path id="패스_260" data-name="패스 260" d="M36.743,28.98H28.106a.269.269,0,1,1,0-.538h8.637a.269.269,0,0,1,0,.538Z" fill="#fff"/>
      <path id="패스_261" data-name="패스 261" d="M31.065,27.631H28.106a.269.269,0,0,1,0-.538h2.959a.269.269,0,1,1,0,.538Z" fill="#263238"/>
      <path id="패스_262" data-name="패스 262" d="M34.987,27.631H32.025a.269.269,0,0,1,0-.538h2.962a.269.269,0,1,1,0,.538Z" fill="#263238"/>
      <path id="패스_263" data-name="패스 263" d="M44.9,27.631H36.263a.269.269,0,1,1,0-.538H44.9a.269.269,0,1,1,0,.538Z" fill="#fff"/>
      <path id="패스_264" data-name="패스 264" d="M44.9,35.778H41.941a.269.269,0,1,1,0-.538H44.9a.269.269,0,1,1,0,.538Z" fill="#263238"/>
      <path id="패스_265" data-name="패스 265" d="M40.981,35.778H38.023a.269.269,0,1,1,0-.538h2.959a.269.269,0,1,1,0,.538Z" fill="#263238"/>
      <path id="패스_266" data-name="패스 266" d="M36.743,35.778H28.106a.269.269,0,1,1,0-.538h8.637a.269.269,0,1,1,0,.538Z" fill="#263238"/>
      <path id="패스_267" data-name="패스 267" d="M44.9,38.5H41.941a.269.269,0,1,1,0-.538H44.9a.269.269,0,1,1,0,.538Z" fill="#263238"/>
      <path id="패스_268" data-name="패스 268" d="M40.981,38.5H38.023a.269.269,0,1,1,0-.538h2.959a.269.269,0,1,1,0,.538Z" fill="#263238"/>
      <path id="패스_269" data-name="패스 269" d="M36.743,38.5H28.106a.269.269,0,1,1,0-.538h8.637a.269.269,0,0,1,0,.538Z" fill="#fff"/>
      <path id="패스_270" data-name="패스 270" d="M31.065,37.14H28.106a.269.269,0,1,1,0-.538h2.959a.269.269,0,1,1,0,.538Z" fill="#263238"/>
      <path id="패스_271" data-name="패스 271" d="M34.987,37.14H32.025a.269.269,0,1,1,0-.538h2.962a.269.269,0,1,1,0,.538Z" fill="#263238"/>
      <path id="패스_272" data-name="패스 272" d="M44.9,37.14H36.263a.269.269,0,1,1,0-.538H44.9a.269.269,0,1,1,0,.538Z" fill="#fff"/>
      <path id="패스_273" data-name="패스 273" d="M31.065,40.1H28.106a.269.269,0,0,1,0-.538h2.959a.269.269,0,0,1,0,.538Z" fill="#263238"/>
      <path id="패스_274" data-name="패스 274" d="M34.987,40.1H32.025a.269.269,0,0,1,0-.538h2.962a.269.269,0,0,1,0,.538Z" fill="#263238"/>
      <path id="패스_275" data-name="패스 275" d="M44.9,40.1H36.263a.269.269,0,1,1,0-.538H44.9a.269.269,0,1,1,0,.538Z" fill="#fff"/>
      <path id="패스_276" data-name="패스 276" d="M31.065,42.815H28.106a.269.269,0,1,1,0-.538h2.959a.269.269,0,1,1,0,.538Z" fill="#263238"/>
      <path id="패스_277" data-name="패스 277" d="M34.987,42.815H32.025a.269.269,0,1,1,0-.538h2.962a.269.269,0,1,1,0,.538Z" fill="#263238"/>
      <path id="패스_278" data-name="패스 278" d="M44.9,42.815H36.263a.269.269,0,1,1,0-.538H44.9a.269.269,0,1,1,0,.538Z" fill="#fff"/>
      <path id="패스_279" data-name="패스 279" d="M44.9,41.455H41.941a.269.269,0,1,1,0-.538H44.9a.269.269,0,1,1,0,.538Z" fill="#263238"/>
      <path id="패스_280" data-name="패스 280" d="M40.981,41.455H38.023a.269.269,0,1,1,0-.538h2.959a.269.269,0,1,1,0,.538Z" fill="#263238"/>
      <path id="패스_281" data-name="패스 281" d="M36.743,41.455H28.106a.269.269,0,1,1,0-.538h8.637a.269.269,0,0,1,0,.538Z" fill="#fff"/>
      <rect id="사각형_46" data-name="사각형 46" width="0.946" height="0.933" transform="translate(23.265 20.827)" fill="#263238"/>
      <rect id="사각형_47" data-name="사각형 47" width="0.946" height="0.933" transform="translate(23.265 22.359)" fill="#263238"/>
      <rect id="사각형_48" data-name="사각형 48" width="0.946" height="0.933" transform="translate(23.265 23.893)" fill="#263238"/>
      <rect id="사각형_49" data-name="사각형 49" width="0.946" height="0.933" transform="translate(23.265 25.426)" fill="#263238"/>
      <rect id="사각형_50" data-name="사각형 50" width="0.946" height="0.933" transform="translate(23.265 26.958)" fill="#263238"/>
      <rect id="사각형_51" data-name="사각형 51" width="0.946" height="0.933" transform="translate(23.265 28.492)" fill="#263238"/>
      <rect id="사각형_52" data-name="사각형 52" width="0.946" height="0.933" transform="translate(23.265 30.024)" fill="#263238"/>
      <rect id="사각형_53" data-name="사각형 53" width="0.946" height="0.933" transform="translate(23.265 31.556)" fill="#263238"/>
      <rect id="사각형_54" data-name="사각형 54" width="0.946" height="0.933" transform="translate(23.265 33.09)" fill="#263238"/>
      <rect id="사각형_55" data-name="사각형 55" width="0.946" height="0.933" transform="translate(23.265 34.623)" fill="#263238"/>
      <rect id="사각형_56" data-name="사각형 56" width="0.946" height="0.933" transform="translate(23.265 36.155)" fill="#263238"/>
      <rect id="사각형_57" data-name="사각형 57" width="0.946" height="0.933" transform="translate(23.265 37.689)" fill="#263238"/>
      <rect id="사각형_58" data-name="사각형 58" width="0.946" height="0.933" transform="translate(23.265 39.221)" fill="#263238"/>
      <rect id="사각형_59" data-name="사각형 59" width="0.946" height="0.933" transform="translate(23.265 40.753)" fill="#263238"/>
      <rect id="사각형_60" data-name="사각형 60" width="0.946" height="0.933" transform="translate(23.265 42.287)" fill="#263238"/>
      <rect id="사각형_61" data-name="사각형 61" width="0.946" height="0.933" transform="translate(23.265 43.82)" fill="#263238"/>
      <rect id="사각형_62" data-name="사각형 62" width="0.946" height="0.933" transform="translate(23.265 45.352)" fill="#263238"/>
      <rect id="사각형_63" data-name="사각형 63" width="0.946" height="0.933" transform="translate(23.265 46.886)" fill="#263238"/>
    </g>
    <g id="freepik--speech-bubble--inject-110">
      <path id="패스_282" data-name="패스 282" d="M68.18,4.066A10.259,10.259,0,0,0,61.089,21.74l-1.46,2.727L63.217,23.3A10.261,10.261,0,1,0,68.18,4.066Z" fill="#263238"/>
      <path id="패스_283" data-name="패스 283" d="M68.18,24.679A10.342,10.342,0,0,1,63.2,23.4l-3.545,1.15a.1.1,0,0,1-.1-.027.09.09,0,0,1-.009-.1l1.435-2.666a10.347,10.347,0,1,1,7.195,2.921Zm-4.97-1.464a.075.075,0,0,1,.043.013,10.156,10.156,0,1,0-2.1-1.545.093.093,0,0,1,.018.108l-1.355,2.53,3.368-1.093Z" fill="#263238"/>
      <path id="패스_284" data-name="패스 284" d="M67.7,3.334a10.259,10.259,0,0,0-7.091,17.675l-1.46,2.725,3.588-1.161A10.261,10.261,0,1,0,67.7,3.334Z" fill="#fff"/>
      <path id="패스_285" data-name="패스 285" d="M67.7,23.945a10.371,10.371,0,0,1-4.979-1.276l-3.544,1.15a.092.092,0,0,1-.1-.029.093.093,0,0,1-.011-.1L60.5,21.026a10.351,10.351,0,1,1,7.2,2.919Zm-4.968-1.462a.1.1,0,0,1,.043.011,10.195,10.195,0,1,0-2.1-1.55.088.088,0,0,1,.016.106l-1.355,2.53,3.37-1.093Z" fill="#263238"/>
      <g id="freepik--Code--inject-110">
        <path id="패스_286" data-name="패스 286" d="M64.261,17.824l-3.947-2.785V13.562l3.947-2.812V12.24l-2.826,2.054,2.826,2.054Z" fill="#2ba5f7"/>
        <path id="패스_287" data-name="패스 287" d="M65.461,18.321,68.467,7.152h1.283L66.73,18.321Z" fill="#2ba5f7"/>
        <path id="패스_288" data-name="패스 288" d="M70.948,17.824V16.349l2.84-2.069-2.84-2.04V10.751l3.958,2.8v1.475Z" fill="#2ba5f7"/>
        <path id="패스_289" data-name="패스 289" d="M64.751,17.212,60.8,14.427V12.952l3.947-2.813v1.489l-2.828,2.054,2.828,2.054Z" fill="#263238"/>
        <path id="패스_290" data-name="패스 290" d="M65.949,17.709,68.955,6.542h1.283l-3.02,11.167Z" fill="#263238"/>
        <path id="패스_291" data-name="패스 291" d="M71.436,17.212V15.737L74.28,13.67l-2.844-2.042V10.139l3.958,2.8v1.477Z" fill="#263238"/>
      </g>
    </g>
    <g id="freepik--hand-2--inject-110">
      <path id="패스_292" data-name="패스 292" d="M59.9,68.813l6.213,5.13a8.9,8.9,0,0,0,1.222,2.076c.856,1.1,10.873,5.253,10.873,5.253l1.71.488L61.223,67.711Z" fill="#263238"/>
      <path id="패스_293" data-name="패스 293" d="M79.914,81.85a.064.064,0,0,1-.025,0l-1.71-.488c-.42-.179-10.058-4.179-10.918-5.284A8.928,8.928,0,0,1,66.035,74l-6.2-5.113a.091.091,0,0,1-.034-.07.1.1,0,0,1,.032-.07l1.328-1.1a.09.09,0,0,1,.111,0L79.967,81.7a.092.092,0,0,1,.027.113A.09.09,0,0,1,79.914,81.85ZM60.037,68.813l6.129,5.06a.092.092,0,0,1,.027.038A8.815,8.815,0,0,0,67.4,75.965c.831,1.068,10.735,5.183,10.835,5.225l1.234.359L61.225,67.821Z" fill="#263238"/>
      <path id="패스_294" data-name="패스 294" d="M72,64.738A33.14,33.14,0,0,1,69.59,61.4c-.741-1.3-1.794-4.322-2.594-6.113a5.192,5.192,0,0,0-3.395-2.9c-1.421-.556-1.974-.432-1.974-.061s.556,1.05.556,1.05l-2.408.432a2.721,2.721,0,0,0-1.606-.371A7.238,7.238,0,0,0,56.376,54.8a4.5,4.5,0,0,0-1.974-.248,30.011,30.011,0,0,0-3.642,1.606c-.865.432-1.794.493-1.73.865a1.722,1.722,0,0,0,1.73.865,23.818,23.818,0,0,1,3.025-.619,2.569,2.569,0,0,1,1.728.5,37.887,37.887,0,0,1,2.471,3.149,6.015,6.015,0,0,1,.493,1.543,7.561,7.561,0,0,1-1.767-1.077c-.678-.612-1.651-2.065-2.763-2.187s-2.322.863-1.7,1.356a9.334,9.334,0,0,1,1.667,1.358c.432.556,1.111,2.223,2.284,4.014a9.789,9.789,0,0,0,3.7,2.9l5.248,2.153s1.358-3.21,3.89-4.075a33.484,33.484,0,0,0,3.273-1.231Z" fill="#fff"/>
      <path id="패스_295" data-name="패스 295" d="M65.144,71.063a.113.113,0,0,1-.034,0L59.862,68.9a9.958,9.958,0,0,1-3.744-2.935,29.876,29.876,0,0,1-1.565-2.749,10.226,10.226,0,0,0-.718-1.256,4.564,4.564,0,0,0-1.044-.9c-.2-.138-.4-.282-.608-.447a.488.488,0,0,1-.153-.608,2.016,2.016,0,0,1,1.925-.908A4.329,4.329,0,0,1,56.2,60.712c.206.226.4.44.571.594a6.979,6.979,0,0,0,1.584.994,4.915,4.915,0,0,0-.44-1.331c-.061-.075-.208-.275-.409-.551a24.292,24.292,0,0,0-2.044-2.582,2.53,2.53,0,0,0-1.676-.477,8.761,8.761,0,0,0-1.9.359c-.413.108-.8.208-1.114.257a1.8,1.8,0,0,1-1.83-.938c-.05-.305.319-.425.831-.594a6.6,6.6,0,0,0,.946-.359,32.124,32.124,0,0,1,3.662-1.615,4.331,4.331,0,0,1,1.974.231,6.7,6.7,0,0,1,1.794-1.342,2.775,2.775,0,0,1,1.645.359l2.23-.4a2.2,2.2,0,0,1-.483-.987.359.359,0,0,1,.158-.307c.289-.2.96-.1,1.94.285a5.292,5.292,0,0,1,3.445,2.948c.316.7.66,1.574,1.024,2.5a34.717,34.717,0,0,0,1.565,3.608,33,33,0,0,0,2.4,3.321.091.091,0,0,1,.016.029l.309.926a.09.09,0,0,1-.045.109,32.713,32.713,0,0,1-3.283,1.24c-2.463.84-3.822,3.992-3.836,4.024A.088.088,0,0,1,65.144,71.063Zm-11.39-11.8a1.818,1.818,0,0,0-1.557.807.314.314,0,0,0,.1.4c.2.161.4.3.6.44a4.756,4.756,0,0,1,1.077.933,10.178,10.178,0,0,1,.732,1.286,30.205,30.205,0,0,0,1.557,2.733,9.792,9.792,0,0,0,3.666,2.871l5.164,2.128c.235-.51,1.6-3.255,3.908-4.044,2.078-.718,2.953-1.089,3.19-1.2l-.278-.836a33.093,33.093,0,0,1-2.406-3.332A34.508,34.508,0,0,1,67.93,57.82c-.359-.92-.709-1.794-1.021-2.489a5.08,5.08,0,0,0-3.346-2.855c-1.272-.5-1.665-.379-1.774-.3a.179.179,0,0,0-.079.158,2.412,2.412,0,0,0,.538.992.09.09,0,0,1-.054.145l-2.408.432a.086.086,0,0,1-.059-.011,2.615,2.615,0,0,0-1.536-.359,7.62,7.62,0,0,0-1.753,1.335.083.083,0,0,1-.092.022,4.533,4.533,0,0,0-1.925-.244,28.566,28.566,0,0,0-3.624,1.6,6.76,6.76,0,0,1-.971.375c-.395.129-.736.24-.718.395a1.669,1.669,0,0,0,1.626.789c.3-.047.687-.147,1.094-.253a8.349,8.349,0,0,1,1.945-.359,2.692,2.692,0,0,1,1.78.511,21.715,21.715,0,0,1,2.083,2.621c.194.264.346.472.405.538a6.013,6.013,0,0,1,.511,1.582.091.091,0,0,1-.031.088.1.1,0,0,1-.093.013,7.536,7.536,0,0,1-1.794-1.1c-.179-.16-.373-.377-.583-.606-.594-.655-1.335-1.471-2.128-1.559A.715.715,0,0,0,53.754,59.262Z" fill="#263238"/>
      <path id="패스_296" data-name="패스 296" d="M49.03,57.111a.09.09,0,1,1-.022-.179s.6-.153.77-.208a1.317,1.317,0,0,0,.344-.215.092.092,0,0,1,.127.011.088.088,0,0,1-.011.126,1.451,1.451,0,0,1-.405.249c-.179.057-.757.206-.78.212Z" fill="#263238"/>
      <path id="패스_297" data-name="패스 297" d="M62.237,59.747a.083.083,0,0,1-.059-.023,3.486,3.486,0,0,1-.888-1.516,2.221,2.221,0,0,0-1.238-1.256l-.07-.038c-.795-.427-3.621-2.006-3.648-2.022a.092.092,0,0,1-.036-.122.09.09,0,0,1,.122-.036c.029.016,2.853,1.6,3.646,2.022l.07.038a2.4,2.4,0,0,1,1.326,1.369A3.373,3.373,0,0,0,62.3,59.6a.09.09,0,0,1-.061.156Z" fill="#263238"/>
      <path id="패스_298" data-name="패스 298" d="M64.527,57.976a.093.093,0,0,1-.081-.05s-.31-.623-.615-1.17a1.412,1.412,0,0,0-.987-.6c-.057-.013-.1-.023-.136-.034-.19-.065-2.523-1.875-2.989-2.237a.09.09,0,1,1,.109-.142c1.057.822,2.788,2.153,2.939,2.209.027.009.068.018.118.031a1.584,1.584,0,0,1,1.1.689c.305.553.615,1.172.619,1.177a.09.09,0,0,1-.041.12A.077.077,0,0,1,64.527,57.976Z" fill="#263238"/>
      <path id="패스_299" data-name="패스 299" d="M65.515,56.555a.086.086,0,0,1-.068-.031,20.179,20.179,0,0,1-1.988-2.55c-.336-.671-1.256-.51-1.256-.508A.092.092,0,0,1,62.1,53.4a.09.09,0,0,1,.072-.1c.011,0,1.06-.19,1.455.6a20.418,20.418,0,0,0,1.963,2.512.087.087,0,0,1-.072.149Z" fill="#263238"/>
      <path id="패스_300" data-name="패스 300" d="M53.352,61.432a.092.092,0,0,1-.081-.048.09.09,0,0,1,.041-.12.879.879,0,0,0,.411-.441.429.429,0,0,0-.075-.359,1.36,1.36,0,0,0-1.037-.515.09.09,0,0,1,0-.179,1.5,1.5,0,0,1,1.186.6.594.594,0,0,1,.1.5,1.035,1.035,0,0,1-.506.554.075.075,0,0,1-.039.013Z" fill="#263238"/>
      <path id="패스_301" data-name="패스 301" d="M71.874,63.936a12.389,12.389,0,0,0-5.433,3.21c-2.1,2.347-2.1,4.322-1.914,4.631a45.751,45.751,0,0,0,4.191,2.469s2.469-4.755,4.2-5.921a10.767,10.767,0,0,1,2.978-1.487,37.714,37.714,0,0,1-3.21-2.223C72.561,64.365,72.306,63.75,71.874,63.936Z" fill="#2ba5f7"/>
      <path id="패스_302" data-name="패스 302" d="M68.718,74.335a.1.1,0,0,1-.043-.011,38.618,38.618,0,0,1-4.233-2.5c-.188-.314-.215-2.345,1.923-4.735a12.474,12.474,0,0,1,5.471-3.23c.468-.194.746.377.879.653l.034.072a35.613,35.613,0,0,0,3.178,2.187.09.09,0,0,1,.041.09.088.088,0,0,1-.068.072A10.4,10.4,0,0,0,72.966,68.4c-1.692,1.148-4.145,5.847-4.17,5.894a.092.092,0,0,1-.052.045Zm3.3-10.344a.3.3,0,0,0-.118.027h-.013A12.389,12.389,0,0,0,66.506,67.2c-2.051,2.3-2.079,4.233-1.9,4.525a39.693,39.693,0,0,0,4.084,2.393c.344-.651,2.56-4.776,4.186-5.88a11.413,11.413,0,0,1,2.8-1.435,28.637,28.637,0,0,1-3.077-2.153l-.036-.074c-.136-.287-.3-.587-.531-.587Zm-.153-.056Z" fill="#263238"/>
      <path id="패스_303" data-name="패스 303" d="M81.257,82.519s-3.4-1.73-4.2-2.162l-6.3-3.386a7.489,7.489,0,0,1-1.05-.37c-.37-.179-.926-.124-1.172-1.421s.37-3.89,3.149-6.482,4.505-2.469,4.505-2.469,1.173-.124,1.482.124.371.987.68,1.111,8.851,2.691,8.851,2.691" fill="#2ba5f7"/>
      <path id="패스_304" data-name="패스 304" d="M81.257,82.609a.088.088,0,0,1-.041-.011c-.034-.016-3.409-1.733-4.2-2.153l-6.28-3.391a7.256,7.256,0,0,1-1.057-.375,1.918,1.918,0,0,0-.2-.079c-.359-.127-.809-.283-1.021-1.4s.208-3.795,3.174-6.563c2.777-2.591,4.505-2.5,4.575-2.494.108-.013,1.2-.12,1.53.144a1.453,1.453,0,0,1,.359.6c.086.219.179.445.3.5.3.12,8.759,2.655,8.844,2.681a.093.093,0,0,1-.05.179c-.359-.106-8.551-2.564-8.86-2.691-.2-.079-.3-.33-.4-.6a1.358,1.358,0,0,0-.3-.527,3.1,3.1,0,0,0-1.416-.1c-.034,0-1.748-.083-4.455,2.445-2.91,2.715-3.332,5.3-3.122,6.4.194,1.017.571,1.15.9,1.269a1.712,1.712,0,0,1,.221.088,7.27,7.27,0,0,0,1.033.359h.018l6.3,3.395c.791.427,4.163,2.144,4.2,2.153a.092.092,0,0,1,.039.12A.09.09,0,0,1,81.257,82.609Z" fill="#263238"/>
      <path id="패스_305" data-name="패스 305" d="M72.059,76.5a.093.093,0,0,1-.079-.045,5.565,5.565,0,0,1-.5-3.457.088.088,0,0,1,.1-.07.09.09,0,0,1,.072.106,5.474,5.474,0,0,0,.484,3.334.09.09,0,0,1-.079.133Z" fill="#263238"/>
      <path id="패스_306" data-name="패스 306" d="M73.047,77.237a.088.088,0,0,1-.077-.043c-.547-.888-.775-1.473-.676-1.74a.19.19,0,0,1,.108-.12.091.091,0,0,1,.113.057.088.088,0,0,1-.045.108c-.013.022-.154.289.653,1.6a.09.09,0,0,1-.029.124A.091.091,0,0,1,73.047,77.237ZM72.459,75.5ZM72.459,75.5ZM72.459,75.5Z" fill="#263238"/>
    </g>
    <g id="freepik--hand-1--inject-110">
      <path id="패스_307" data-name="패스 307" d="M34.386,63.364s-4.069,4.844-5.291,5.813a18.612,18.612,0,0,1-2.322,1.588l-4.4,4.4s.122.61-1.1,1.344A33.879,33.879,0,0,1,17,78.34c-.61.244-7.331,3.3-7.331,3.3Z" fill="#263238"/>
      <path id="패스_308" data-name="패스 308" d="M9.671,81.728a.093.093,0,0,1-.077-.043.09.09,0,0,1,.025-.118L34.332,63.292a.09.09,0,0,1,.122.131c-.167.2-4.089,4.853-5.3,5.824a19.248,19.248,0,0,1-2.322,1.591l-4.36,4.36c0,.17-.072.741-1.146,1.385a27.707,27.707,0,0,1-3.768,1.643c-.224.083-.4.151-.517.2-.6.24-7.259,3.267-7.326,3.3A.093.093,0,0,1,9.671,81.728ZM33.815,63.9,10.406,81.205c1.794-.813,6.072-2.754,6.56-2.95l.519-.2a27.211,27.211,0,0,0,3.744-1.627c1.139-.684,1.059-1.245,1.057-1.256a.1.1,0,0,1,.025-.081l4.4-4.4.025-.005a19,19,0,0,0,2.309-1.581A66.73,66.73,0,0,0,33.815,63.9Z" fill="#263238"/>
      <path id="패스_309" data-name="패스 309" d="M40.289,55.963a10.575,10.575,0,0,1-1.974.043s-.94-.718-1.41-1.155S35.236,51.9,34.637,51.77,31.513,53.1,31.513,53.1a10.133,10.133,0,0,0-2.566-.813,10.282,10.282,0,0,0-2.184,1.582s-2.309-.343-2.738.343-1.112,2.871-1.794,4.234-3.167,5.006-3.167,5.006l-.341.47a21.426,21.426,0,0,1,2.1.985c1.582.806,4.107,4.665,4.107,4.665s3.508-1.626,5.476-2.524a9.922,9.922,0,0,0,3.98-3.68,7.907,7.907,0,0,1,2.053-2.309c.9-.727,2.568-1.028,2.953-1.541s-.258-1.283-.258-1.283a6.232,6.232,0,0,0,.685-.429c.214-.179,1.077-.641,1.155-1.154S40.718,55.835,40.289,55.963ZM33.7,60.07l.813-2.476a13.7,13.7,0,0,0,1.841.813A10.035,10.035,0,0,0,33.7,60.07Z" fill="#fff"/>
      <path id="패스_310" data-name="패스 310" d="M24.939,69.658a.091.091,0,0,1-.075-.041c-.025-.038-2.528-3.84-4.073-4.633a19.411,19.411,0,0,0-2.083-.978.09.09,0,0,1-.048-.133L19,63.4c.023-.034,2.485-3.646,3.158-4.993.337-.673.678-1.557.98-2.332a14.489,14.489,0,0,1,.822-1.907c.425-.682,2.456-.434,2.785-.389a9.382,9.382,0,0,1,2.2-1.577,9.044,9.044,0,0,1,2.576.8c.4-.228,2.557-1.435,3.147-1.315.375.081.868.854,1.525,1.936a7.572,7.572,0,0,0,.784,1.166c.423.384,1.24,1.021,1.385,1.134a10.094,10.094,0,0,0,1.909-.041h0a.624.624,0,0,1,.6.108.718.718,0,0,1,.194.678c-.075.452-.658.847-1.007,1.077-.077.052-.14.1-.179.127a5.637,5.637,0,0,1-.606.386c.163.224.538.845.2,1.308a3.355,3.355,0,0,1-1.312.718,6.608,6.608,0,0,0-1.656.84,7.656,7.656,0,0,0-2.031,2.284,10.023,10.023,0,0,1-4.028,3.714c-1.945.888-5.44,2.512-5.476,2.524A.1.1,0,0,1,24.939,69.658Zm-6.07-5.784c.224.088.809.337,2,.946,1.491.766,3.748,4.1,4.1,4.629.506-.233,3.614-1.672,5.406-2.492a9.794,9.794,0,0,0,3.947-3.639,7.708,7.708,0,0,1,2.076-2.332,6.736,6.736,0,0,1,1.7-.868,3.458,3.458,0,0,0,1.234-.657c.337-.45-.249-1.164-.255-1.172a.093.093,0,0,1-.02-.074.088.088,0,0,1,.047-.063,6.366,6.366,0,0,0,.671-.42c.043-.034.109-.079.192-.135.3-.206.868-.588.929-.965a.538.538,0,0,0-.135-.513.44.44,0,0,0-.434-.07h0a10.4,10.4,0,0,1-2,.047.1.1,0,0,1-.05-.018c-.009-.009-.949-.736-1.417-1.161a7.5,7.5,0,0,1-.818-1.206c-.456-.752-1.077-1.783-1.408-1.853-.461-.1-2.365.917-3.059,1.317a.086.086,0,0,1-.081,0,9.434,9.434,0,0,0-2.512-.806,9.718,9.718,0,0,0-2.137,1.561.084.084,0,0,1-.074.022c-.626-.091-2.323-.219-2.648.3a14.832,14.832,0,0,0-.807,1.877c-.307.791-.646,1.672-.985,2.35-.68,1.36-3.147,4.981-3.172,5.024Zm21.419-7.916Zm-6.588,4.2a.1.1,0,0,1-.05-.014.092.092,0,0,1-.034-.1l.813-2.481a.084.084,0,0,1,.057-.057.091.091,0,0,1,.081.013,13.778,13.778,0,0,0,1.818.8.09.09,0,1,1,0,.179,10.2,10.2,0,0,0-2.618,1.649A.084.084,0,0,1,33.7,60.159Zm.863-2.431-.682,2.078a10.176,10.176,0,0,1,2.2-1.41A13.537,13.537,0,0,1,34.563,57.728Z" fill="#263238"/>
      <path id="패스_311" data-name="패스 311" d="M25.144,56.779a.088.088,0,0,1-.088-.074,3.178,3.178,0,0,1-.039-1.028,15.274,15.274,0,0,1,1.69-1.875.09.09,0,0,1,.127.127,16.862,16.862,0,0,0-1.647,1.8,3.225,3.225,0,0,0,.047.94.092.092,0,0,1-.074.1Z" fill="#263238"/>
      <path id="패스_312" data-name="패스 312" d="M26.513,57.635a.064.064,0,0,1-.025,0,.086.086,0,0,1-.059-.111l.341-1.112a.092.092,0,0,1,.034-.047l4.665-3.337a.09.09,0,0,1,.126.022.088.088,0,0,1-.022.124l-4.638,3.319L26.6,57.569A.086.086,0,0,1,26.513,57.635Z" fill="#263238"/>
      <path id="패스_313" data-name="패스 313" d="M28.824,58.448h-.014a.09.09,0,0,1-.074-.1c.029-.179.188-1.114.416-1.3a10.306,10.306,0,0,1,1.855-.569c.454-.391,2.512-2.153,2.95-2.153a7,7,0,0,1,1.495.576,10.386,10.386,0,0,0,2.86,1.007.09.09,0,0,1,.02.179,9.742,9.742,0,0,1-2.951-1.021,8.8,8.8,0,0,0-1.423-.562,15.351,15.351,0,0,0-2.849,2.117.117.117,0,0,1-.039.02,10.385,10.385,0,0,0-1.794.538,3.382,3.382,0,0,0-.359,1.184.088.088,0,0,1-.092.083Z" fill="#263238"/>
      <path id="패스_314" data-name="패스 314" d="M39.989,56.815a.8.8,0,0,1-.624-.235c-.1-.118-.135-.224-.093-.316.075-.167.359-.179.418-.179h0a.09.09,0,0,1,.09.09.088.088,0,0,1-.088.09c-.1,0-.239.032-.257.072,0,.013,0,.052.065.124.271.31.91.127,1.15.059a.086.086,0,0,1,.109.061.088.088,0,0,1-.061.111A2.68,2.68,0,0,1,39.989,56.815Z" fill="#263238"/>
      <path id="패스_315" data-name="패스 315" d="M36.354,58.491a.09.09,0,0,1-.047-.167,3.124,3.124,0,0,1,2.871-.17.088.088,0,0,1,.032.122.092.092,0,0,1-.124.032,3.012,3.012,0,0,0-2.691.17A.084.084,0,0,1,36.354,58.491Z" fill="#263238"/>
      <path id="패스_316" data-name="패스 316" d="M38.321,60.075A.09.09,0,0,1,38.233,60l-.043-.257a5.363,5.363,0,0,0-.377-.917.088.088,0,0,1,0-.074.084.084,0,0,1,.052-.05l.856-.3a.09.09,0,1,1,.059.169l-.759.267a4.9,4.9,0,0,1,.348.874l.043.257a.092.092,0,0,1-.074.1Z" fill="#263238"/>
      <path id="패스_317" data-name="패스 317" d="M32.931,61.871a.081.081,0,0,1-.036,0,.091.091,0,0,1-.047-.12l.772-1.71A.088.088,0,0,1,33.738,60a.09.09,0,0,1,.045.118l-.77,1.7A.092.092,0,0,1,32.931,61.871Z" fill="#263238"/>
      <path id="패스_318" data-name="패스 318" d="M13.379,66.7s2.691-1.753,3.68-2.481a4.249,4.249,0,0,1,2.01-.77c.513-.17,3.081.6,4.794,2.738s1.539,3.721,1.326,4.15-5.6,3.68-5.6,3.68A10.346,10.346,0,0,0,16.548,69.1,35.959,35.959,0,0,0,13.379,66.7Z" fill="#2ba5f7"/>
      <path id="패스_319" data-name="패스 319" d="M19.584,74.1a.1.1,0,0,1-.034,0,.092.092,0,0,1-.054-.061,10.24,10.24,0,0,0-3.007-4.873,37.82,37.82,0,0,0-3.156-2.388.088.088,0,0,1-.043-.075.092.092,0,0,1,.041-.077c.027-.018,2.7-1.76,3.675-2.478a3.307,3.307,0,0,1,1.615-.689,2.9,2.9,0,0,0,.427-.093c.61-.2,3.219.678,4.889,2.767,1.746,2.182,1.557,3.805,1.337,4.245s-5.09,3.382-5.645,3.723a.079.079,0,0,1-.045,0Zm-6.039-7.4c.31.208,1.256.867,3.05,2.332a10.39,10.39,0,0,1,3.036,4.844A51.481,51.481,0,0,0,25.1,70.29c.206-.413.373-1.945-1.315-4.055-1.717-2.153-4.267-2.851-4.694-2.709a2.949,2.949,0,0,1-.452.1,3.106,3.106,0,0,0-1.532.655C16.254,64.927,14.07,66.358,13.544,66.7Z" fill="#263238"/>
      <path id="패스_320" data-name="패스 320" d="M2.6,71.82s4.993-3.05,5.826-3.553,1.794-1.184,1.794-1.184a1.7,1.7,0,0,1,1.532-1.365,8.192,8.192,0,0,1,4.161,1.365c1.663.91,3.723,4.236,3.947,5.562s.657,1.73.307,2.594-1.665.911-1.927.911-.876.547-.876.547L7.99,82.8" fill="#2ba5f7"/>
      <path id="패스_321" data-name="패스 321" d="M7.986,82.892a.092.092,0,0,1-.075-.041.088.088,0,0,1,.027-.124l9.371-6.1c.1-.088.642-.562.926-.562.249,0,1.514-.041,1.844-.854a1.874,1.874,0,0,0-.047-1.435,8.541,8.541,0,0,1-.266-1.109c-.221-1.324-2.268-4.6-3.9-5.492a8.136,8.136,0,0,0-4.114-1.355,1.618,1.618,0,0,0-1.448,1.294.091.091,0,0,1-.036.056c-.011,0-.976.691-1.794,1.188S2.691,71.865,2.645,71.9a.088.088,0,0,1-.122-.029.09.09,0,0,1,.029-.124c.05-.031,5-3.05,5.826-3.553.743-.447,1.6-1.046,1.764-1.161a1.781,1.781,0,0,1,1.615-1.4A8.294,8.294,0,0,1,15.963,67c1.667.913,3.768,4.265,3.987,5.619a8.625,8.625,0,0,0,.262,1.087,2.067,2.067,0,0,1,.039,1.557c-.371.92-1.739.967-2.01.967a2.269,2.269,0,0,0-.816.524L8.042,82.87a.1.1,0,0,1-.056.022Z" fill="#263238"/>
      <path id="패스_322" data-name="패스 322" d="M17.7,75.43a.09.09,0,0,1-.048-.014.088.088,0,0,1-.027-.124c.718-1.111.413-1.392.411-1.394a.092.092,0,0,1-.013-.126.086.086,0,0,1,.122-.016c.047.034.436.377-.37,1.633a.092.092,0,0,1-.075.041Z" fill="#263238"/>
      <path id="패스_323" data-name="패스 323" d="M16.3,76.942a.1.1,0,0,1-.065-.025.09.09,0,0,1,0-.127,3.947,3.947,0,0,0,1.2-2.384.09.09,0,0,1,.179,0,4.086,4.086,0,0,1-1.256,2.512.088.088,0,0,1-.063.025Z" fill="#263238"/>
    </g>
  </g>
</svg>
