<svg xmlns="http://www.w3.org/2000/svg" width="107.524" height="80" viewBox="0 0 107.524 80">
  <g id="Discussion-rafiki" transform="translate(0 -11.828)">
    <g id="freepik--background-complete--inject-1">
      <rect id="사각형_64" data-name="사각형 64" width="7.122" height="0.054" transform="translate(89.628 85.694)" fill="#ebebeb"/>
      <rect id="사각형_65" data-name="사각형 65" width="1.869" height="0.054" transform="translate(69.359 86.279)" fill="#ebebeb"/>
      <rect id="사각형_66" data-name="사각형 66" width="4.127" height="0.054" transform="translate(85.286 83.699)" fill="#ebebeb"/>
      <rect id="사각형_67" data-name="사각형 67" width="9.288" height="0.054" transform="translate(11.281 84.06)" fill="#ebebeb"/>
      <rect id="사각형_68" data-name="사각형 68" width="1.361" height="0.054" transform="translate(22.485 84.06)" fill="#ebebeb"/>
      <rect id="사각형_69" data-name="사각형 69" width="20.146" height="0.054" transform="translate(28.272 84.968)" fill="#ebebeb"/>
      <path id="패스_324" data-name="패스 324" d="M50.966,72.643H9.443a1.228,1.228,0,0,1-1.226-1.228V13.045a1.228,1.228,0,0,1,1.226-1.217H50.966a1.228,1.228,0,0,1,1.228,1.228v58.36A1.228,1.228,0,0,1,50.966,72.643ZM9.443,11.871a1.174,1.174,0,0,0-1.172,1.174v58.37a1.174,1.174,0,0,0,1.172,1.174H50.966a1.176,1.176,0,0,0,1.174-1.174V13.045a1.176,1.176,0,0,0-1.174-1.174Z" fill="#ebebeb"/>
      <path id="패스_325" data-name="패스 325" d="M97.483,72.643H55.958a1.23,1.23,0,0,1-1.228-1.228V13.045a1.23,1.23,0,0,1,1.228-1.217H97.483a1.228,1.228,0,0,1,1.224,1.217v58.37A1.228,1.228,0,0,1,97.483,72.643ZM55.958,11.871a1.176,1.176,0,0,0-1.174,1.174v58.37a1.176,1.176,0,0,0,1.174,1.174H97.483a1.176,1.176,0,0,0,1.174-1.174V13.045a1.176,1.176,0,0,0-1.174-1.174Z" fill="#ebebeb"/>
      <rect id="사각형_70" data-name="사각형 70" width="107.524" height="0.054" transform="translate(0 82.234)" fill="#ebebeb"/>
      <path id="패스_326" data-name="패스 326" d="M61.719,69.9a.105.105,0,0,1-.037-.077c-.026-.544-.353-5.892-3.628-9.555-2.77-3.1.071-.886,1.305.11a.114.114,0,0,0,.17-.146c-.86-1.469-3.049-5.353-2.295-6.11.716-.714,2.191,2.832,2.852,4.553a.114.114,0,0,0,.215-.052c-.189-1.821-.467-5.63.559-5.494s.731,5.161.531,7.623a.114.114,0,0,0,.215.043c.458-1.505,1.329-3.753,2.353-3.161,1.516.88-2.23,3.961-2,7.312C62.2,68.224,62.263,70.377,61.719,69.9Z" fill="#f0f0f0"/>
      <path id="패스_327" data-name="패스 327" d="M63.68,70.4c.011,0,.026-.052.019-.088-.714-4.531,4.086-7.826,7.454-9.462a9.692,9.692,0,0,0,2.168-1.29,15.313,15.313,0,0,0-3.692,1.006c-.157.054-.241-.11-.1-.2,1.527-1.062,5.783-4.965,4.557-6.1-.553-.514-3.608,3.561-4.329,4.3-.116.118-.3.013-.215-.125.948-1.587,1.262-6.593.3-6.533-.406.026-.561,2.366-.774,3.327a24.351,24.351,0,0,1-1.935,5.112c-.071.144-.312.12-.275-.026.273-1.095.374-4.3-.974-4.073-.976.168-.819,2.058-.828,3.071a12.261,12.261,0,0,1-.942,5.241C63.581,65.637,62.925,70.488,63.68,70.4Z" fill="#f0f0f0"/>
      <path id="패스_328" data-name="패스 328" d="M62.594,70.9a.065.065,0,0,0,.024-.052,11.312,11.312,0,0,1,2.434-6.413c1.86-2.08-.047-.6-.875.073a.077.077,0,0,1-.114-.1c.583-.985,2.047-3.591,1.54-4.1s-1.471,1.9-1.914,3.056a.075.075,0,0,1-.146-.037c.127-1.221.312-3.778-.376-3.688s-.49,3.467-.357,5.118a.076.076,0,0,1-.148.03c-.308-1.017-.895-2.52-1.581-2.123-1.017.589,1.505,2.658,1.34,4.905C62.265,69.772,62.224,71.217,62.594,70.9Z" fill="#ebebeb"/>
      <path id="패스_329" data-name="패스 329" d="M65.071,80.989a66.066,66.066,0,0,0,1.877-11.625H58.506a66.067,66.067,0,0,0,1.877,11.625A1.774,1.774,0,0,0,62.1,82.3H63.36a1.776,1.776,0,0,0,1.712-1.314Z" fill="#e6e6e6"/>
      <path id="패스_330" data-name="패스 330" d="M66.7,72.157c.065-.514.114-.981.155-1.391H58.6c.039.411.09.877.153,1.391Z" fill="#f5f5f5"/>
      <rect id="사각형_71" data-name="사각형 71" width="10.269" height="9.251" transform="translate(34.294 54.366) rotate(180)" fill="#f5f5f5"/>
      <rect id="사각형_72" data-name="사각형 72" width="8.288" height="7.464" rx="0.989" transform="translate(33.302 53.474) rotate(180)" fill="#ebebeb"/>
      <path id="패스_331" data-name="패스 331" d="M30.87,46.007a.617.617,0,0,1-.611.447h-2.2a.617.617,0,0,1-.611-.447Z" fill="#e0e0e0"/>
      <rect id="사각형_73" data-name="사각형 73" width="10.269" height="9.251" transform="translate(34.294 63.615) rotate(180)" fill="#f0f0f0"/>
      <rect id="사각형_74" data-name="사각형 74" width="8.288" height="7.464" rx="0.989" transform="translate(33.302 62.723) rotate(180)" fill="#fafafa"/>
      <path id="패스_332" data-name="패스 332" d="M30.87,55.267a.615.615,0,0,1-.611.445h-2.2a.615.615,0,0,1-.611-.445Z" fill="#e0e0e0"/>
      <rect id="사각형_75" data-name="사각형 75" width="10.269" height="9.251" transform="translate(34.294 72.867) rotate(180)" fill="#f5f5f5"/>
      <rect id="사각형_76" data-name="사각형 76" width="8.288" height="7.464" rx="0.989" transform="translate(33.302 71.974) rotate(180)" fill="#ebebeb"/>
      <path id="패스_333" data-name="패스 333" d="M30.87,64.514a.615.615,0,0,1-.611.445h-2.2a.615.615,0,0,1-.611-.445Z" fill="#e0e0e0"/>
      <rect id="사각형_77" data-name="사각형 77" width="10.269" height="9.251" transform="translate(34.294 82.118) rotate(180)" fill="#f0f0f0"/>
      <rect id="사각형_78" data-name="사각형 78" width="8.288" height="7.464" rx="0.989" transform="translate(33.302 81.226) rotate(180)" fill="#fafafa"/>
      <path id="패스_334" data-name="패스 334" d="M30.87,73.761a.617.617,0,0,1-.611.447h-2.2a.617.617,0,0,1-.611-.447Z" fill="#e0e0e0"/>
      <rect id="사각형_79" data-name="사각형 79" width="1.258" height="37.003" transform="translate(24.025 82.118) rotate(180)" fill="#e6e6e6"/>
      <rect id="사각형_80" data-name="사각형 80" width="10.269" height="9.251" transform="translate(23.69 54.366) rotate(180)" fill="#f5f5f5"/>
      <rect id="사각형_81" data-name="사각형 81" width="8.288" height="7.464" rx="0.989" transform="translate(22.698 53.474) rotate(180)" fill="#ebebeb"/>
      <path id="패스_335" data-name="패스 335" d="M20.264,46.007a.615.615,0,0,1-.609.443h-2.2A.613.613,0,0,1,16.845,46Z" fill="#e0e0e0"/>
      <rect id="사각형_82" data-name="사각형 82" width="10.269" height="9.251" transform="translate(23.69 63.615) rotate(180)" fill="#f0f0f0"/>
      <rect id="사각형_83" data-name="사각형 83" width="8.288" height="7.464" rx="0.989" transform="translate(22.698 62.723) rotate(180)" fill="#fafafa"/>
      <path id="패스_336" data-name="패스 336" d="M20.264,55.267a.615.615,0,0,1-.609.43h-2.2a.613.613,0,0,1-.609-.43Z" fill="#e0e0e0"/>
      <rect id="사각형_84" data-name="사각형 84" width="10.269" height="9.251" transform="translate(23.69 72.867) rotate(180)" fill="#f5f5f5"/>
      <rect id="사각형_85" data-name="사각형 85" width="8.288" height="7.464" rx="0.989" transform="translate(22.698 71.974) rotate(180)" fill="#ebebeb"/>
      <path id="패스_337" data-name="패스 337" d="M20.264,64.514a.615.615,0,0,1-.611.445h-2.2a.613.613,0,0,1-.609-.445Z" fill="#e0e0e0"/>
      <rect id="사각형_86" data-name="사각형 86" width="10.269" height="9.251" transform="translate(23.69 82.118) rotate(180)" fill="#f0f0f0"/>
      <rect id="사각형_87" data-name="사각형 87" width="8.288" height="7.464" rx="0.989" transform="translate(22.698 81.226) rotate(180)" fill="#fafafa"/>
      <path id="패스_338" data-name="패스 338" d="M20.264,73.761a.617.617,0,0,1-.611.447h-2.2a.613.613,0,0,1-.609-.447Z" fill="#e0e0e0"/>
      <rect id="사각형_88" data-name="사각형 88" width="1.258" height="37.003" transform="translate(13.419 82.118) rotate(180)" fill="#e6e6e6"/>
      <rect id="사각형_89" data-name="사각형 89" width="0.387" height="30.186" transform="translate(68.263 20.931)" fill="#e0e0e0"/>
      <rect id="사각형_90" data-name="사각형 90" width="0.387" height="30.186" transform="translate(92.359 20.931)" fill="#e0e0e0"/>
      <path id="패스_339" data-name="패스 339" d="M94.262,22.829H66.747l-.578-1.355H94.845Z" fill="#ebebeb"/>
      <path id="패스_340" data-name="패스 340" d="M94.262,24.69H66.747l-.578-1.355H94.845Z" fill="#ebebeb"/>
      <path id="패스_341" data-name="패스 341" d="M94.262,26.55H66.747L66.168,25.2H94.845Z" fill="#ebebeb"/>
      <path id="패스_342" data-name="패스 342" d="M94.262,28.41H66.747l-.578-1.355H94.845Z" fill="#ebebeb"/>
      <path id="패스_343" data-name="패스 343" d="M94.262,30.268H66.747l-.578-1.353H94.845Z" fill="#ebebeb"/>
      <path id="패스_344" data-name="패스 344" d="M94.262,32.128H66.747l-.578-1.355H94.845Z" fill="#ebebeb"/>
      <path id="패스_345" data-name="패스 345" d="M94.262,33.988H66.747l-.578-1.355H94.845Z" fill="#ebebeb"/>
      <path id="패스_346" data-name="패스 346" d="M94.262,35.848H66.747l-.578-1.355H94.845Z" fill="#ebebeb"/>
      <path id="패스_347" data-name="패스 347" d="M94.262,37.709H66.747l-.578-1.355H94.845Z" fill="#ebebeb"/>
      <path id="패스_348" data-name="패스 348" d="M94.262,39.569H66.747l-.578-1.355H94.845Z" fill="#ebebeb"/>
      <path id="패스_349" data-name="패스 349" d="M94.262,41.429H66.747l-.578-1.355H94.845Z" fill="#ebebeb"/>
      <path id="패스_350" data-name="패스 350" d="M94.262,43.289H66.747l-.578-1.355H94.845Z" fill="#ebebeb"/>
      <path id="패스_351" data-name="패스 351" d="M94.262,45.149H66.747l-.578-1.355H94.845Z" fill="#ebebeb"/>
      <path id="패스_352" data-name="패스 352" d="M94.262,47.009H66.747l-.578-1.355H94.845Z" fill="#ebebeb"/>
      <path id="패스_353" data-name="패스 353" d="M94.262,48.87H66.747l-.578-1.355H94.845Z" fill="#ebebeb"/>
      <path id="패스_354" data-name="패스 354" d="M94.262,50.73H66.747l-.578-1.355H94.845Z" fill="#ebebeb"/>
      <rect id="사각형_91" data-name="사각형 91" width="28.677" height="0.774" transform="translate(66.166 50.73)" fill="#e0e0e0"/>
      <rect id="사각형_92" data-name="사각형 92" width="30.677" height="1.806" transform="translate(65.166 19.778)" fill="#e0e0e0"/>
      <path id="패스_355" data-name="패스 355" d="M65.482,37.962h0a.312.312,0,0,1-.312-.312V27.113a.312.312,0,0,1,.312-.312h0a.312.312,0,0,1,.312.312V37.651a.312.312,0,0,1-.312.312Z" fill="#e0e0e0"/>
      <rect id="사각형_93" data-name="사각형 93" width="0.226" height="6.258" transform="translate(65.368 21.221)" fill="#e0e0e0"/>
      <rect id="사각형_94" data-name="사각형 94" width="35.231" height="21.468" transform="translate(11.681 19.466)" fill="#ebebeb"/>
      <rect id="사각형_95" data-name="사각형 95" width="0.258" height="21.468" transform="translate(46.915 19.458)" fill="#e0e0e0"/>
      <rect id="사각형_96" data-name="사각형 96" width="0.213" height="19.318" transform="translate(12.748 20.399)" fill="#e0e0e0"/>
      <rect id="사각형_97" data-name="사각형 97" width="33.038" height="19.318" transform="translate(12.727 20.399)" fill="#fff"/>
      <rect id="사각형_98" data-name="사각형 98" width="2.723" height="3.91" transform="translate(32.369 26.836)" fill="#f5f5f5"/>
      <rect id="사각형_99" data-name="사각형 99" width="2.723" height="3.91" transform="translate(14.318 33.034)" fill="#f5f5f5"/>
      <rect id="사각형_100" data-name="사각형 100" width="2.723" height="2.723" transform="translate(14.051 24.877)" fill="#f5f5f5"/>
      <rect id="사각형_101" data-name="사각형 101" width="2.723" height="2.723" transform="translate(27.595 34.279)" fill="#f5f5f5"/>
      <rect id="사각형_102" data-name="사각형 102" width="6.972" height="9.798" transform="translate(36.717 27.173)" fill="#f5f5f5"/>
      <rect id="사각형_103" data-name="사각형 103" width="5.008" height="0.108" transform="translate(37.672 28.593)" fill="#e0e0e0"/>
      <rect id="사각형_104" data-name="사각형 104" width="0.108" height="7.256" transform="translate(40.122 28.696)" fill="#e0e0e0"/>
      <rect id="사각형_105" data-name="사각형 105" width="0.108" height="7.256" transform="translate(42.42 28.696)" fill="#e0e0e0"/>
      <rect id="사각형_106" data-name="사각형 106" width="0.108" height="7.256" transform="translate(38.079 28.696)" fill="#e0e0e0"/>
      <rect id="사각형_107" data-name="사각형 107" width="0.108" height="7.256" transform="translate(37.719 28.696)" fill="#e0e0e0"/>
      <rect id="사각형_108" data-name="사각형 108" width="4.649" height="0.108" transform="translate(37.773 29.079)" fill="#e0e0e0"/>
      <rect id="사각형_109" data-name="사각형 109" width="0.92" height="2.146" transform="translate(25.374 25.137) rotate(-90)" fill="#f5f5f5"/>
      <rect id="사각형_110" data-name="사각형 110" width="0.716" height="2.146" transform="translate(25.791 31.857) rotate(-90)" fill="#f5f5f5"/>
      <rect id="사각형_111" data-name="사각형 111" width="6.972" height="9.798" transform="translate(19.169 23.915)" fill="#f0f0f0"/>
      <rect id="사각형_112" data-name="사각형 112" width="0.716" height="2.146" transform="translate(25.311 33.442) rotate(-90)" fill="#f5f5f5"/>
      <rect id="사각형_113" data-name="사각형 113" width="0.716" height="2.146" transform="translate(25.67 26.894) rotate(-90)" fill="#f5f5f5"/>
      <rect id="사각형_114" data-name="사각형 114" width="0.716" height="2.146" transform="translate(25.197 28.672) rotate(-90)" fill="#f5f5f5"/>
      <rect id="사각형_115" data-name="사각형 115" width="4.753" height="0.843" transform="translate(19.991 25.12)" fill="#e6e6e6"/>
      <path id="패스_356" data-name="패스 356" d="M24.819,28.722H20.066l-.075-.383h4.753Z" fill="#e6e6e6"/>
      <rect id="사각형_116" data-name="사각형 116" width="1.686" height="0.843" transform="translate(19.991 26.806)" fill="#e6e6e6"/>
      <circle id="타원_12" data-name="타원 12" cx="4.398" cy="4.398" r="4.398" transform="matrix(0.16, -0.987, 0.987, 0.16, 51.229, 21.864)" fill="#e0e0e0"/>
      <circle id="타원_13" data-name="타원 13" cx="3.529" cy="3.529" r="3.529" transform="translate(52.689 14.699)" fill="#fff" opacity="0.8"/>
      <path id="패스_357" data-name="패스 357" d="M56.558,18.52a.359.359,0,1,1-.171-.334A.359.359,0,0,1,56.558,18.52Z" fill="#e0e0e0"/>
      <path id="패스_358" data-name="패스 358" d="M56.168,18.651l-1.518-1.43.146-.155,1.376,1.295,2.464-2.178.144.161Z" fill="#e0e0e0"/>
    </g>
    <g id="freepik--Shadow--inject-1">
      <ellipse id="freepik--path--inject-1" cx="41.696" cy="2.434" rx="41.696" ry="2.434" transform="translate(12.066 86.959)" fill="#f5f5f5"/>
    </g>
    <g id="freepik--character-3--inject-1">
      <path id="패스_359" data-name="패스 359" d="M76.25,75.458h7.077a26.186,26.186,0,0,1-2.729.92v1.146H78.976V76.379A26.068,26.068,0,0,1,76.25,75.458Z" fill="#263238"/>
      <path id="패스_360" data-name="패스 360" d="M86.417,72.516H84a15.619,15.619,0,0,0,0-5.062h2.419a15.619,15.619,0,0,1,0,5.062Z" fill="#263238"/>
      <rect id="사각형_117" data-name="사각형 117" width="2.101" height="8.469" transform="translate(78.738 77.525)" fill="#263238"/>
      <rect id="사각형_118" data-name="사각형 118" width="2.101" height="8.469" transform="translate(78.738 77.525)" fill="#fff" opacity="0.2"/>
      <path id="패스_361" data-name="패스 361" d="M90.456,68.035H80.024a1.905,1.905,0,0,1-1.895-2.262,75.712,75.712,0,0,0,.8-10.243,1.888,1.888,0,0,1,1.918-1.953h8.78a2.366,2.366,0,0,1,2.29,1.953,75.774,75.774,0,0,1,.849,10.243,2.344,2.344,0,0,1-2.314,2.262Z" fill="#2ba5f7"/>
      <path id="패스_362" data-name="패스 362" d="M90.92,65.772a74,74,0,0,0-.86-10.243,2.366,2.366,0,0,0-2.29-1.953H80.858A1.888,1.888,0,0,0,78.94,55.53a75.631,75.631,0,0,1-.8,10.243,1.905,1.905,0,0,0,1.895,2.262H88.6a2.344,2.344,0,0,0,2.32-2.262Z" fill="#2ba5f7"/>
      <path id="패스_363" data-name="패스 363" d="M90.92,65.772a74,74,0,0,0-.86-10.243,2.366,2.366,0,0,0-2.29-1.953H80.858A1.888,1.888,0,0,0,78.94,55.53a75.631,75.631,0,0,1-.8,10.243,1.905,1.905,0,0,0,1.895,2.262H88.6a2.344,2.344,0,0,0,2.32-2.262Z" opacity="0.1"/>
      <path id="패스_364" data-name="패스 364" d="M86.058,87.176a.312.312,0,0,1-.376.305,42.892,42.892,0,0,0-5.894-.97,42.859,42.859,0,0,0-5.892.97.312.312,0,0,1-.376-.305h0a.815.815,0,0,1,.645-.8,40.21,40.21,0,0,1,5.624-.912,39.985,39.985,0,0,1,5.626.912.815.815,0,0,1,.645.8Z" fill="#263238"/>
      <path id="패스_365" data-name="패스 365" d="M84.662,88.013a.824.824,0,1,0,.824-.824.824.824,0,0,0-.824.824Z" fill="#263238"/>
      <path id="패스_366" data-name="패스 366" d="M74.3,88.013a.824.824,0,1,1-.824-.824.824.824,0,0,1,.824.824Z" fill="#263238"/>
      <path id="패스_367" data-name="패스 367" d="M80.523,87.74a.824.824,0,1,1-.824-.824.824.824,0,0,1,.824.824Z" fill="#263238"/>
      <path id="패스_368" data-name="패스 368" d="M82.963,72.357a85.48,85.48,0,0,1-12.524-.443,1.355,1.355,0,0,0-1.546,1.372v.2a1.778,1.778,0,0,0,1.546,1.731,85.482,85.482,0,0,0,12.524.43Z" fill="#2ba5f7"/>
      <path id="패스_369" data-name="패스 369" d="M82.963,72.357a85.48,85.48,0,0,1-12.524-.443,1.355,1.355,0,0,0-1.546,1.372v.2a1.778,1.778,0,0,0,1.546,1.731,85.482,85.482,0,0,0,12.524.43Z" opacity="0.2"/>
      <path id="패스_370" data-name="패스 370" d="M89.219,75.213c-2.393.215-4.75.381-7.15.477A1.437,1.437,0,0,1,80.6,74.247V73.88a1.505,1.505,0,0,1,1.473-1.495c2.4-.1,4.757-.256,7.15-.48a1.29,1.29,0,0,1,1.464,1.29v.368a1.69,1.69,0,0,1-1.464,1.649Z" fill="#2ba5f7"/>
      <path id="패스_371" data-name="패스 371" d="M66.643,82.11l-1.667.125,1.443-4.746,1.389,2.034Z" fill="#ffc3bd"/>
      <g id="그룹_17" data-name="그룹 17" opacity="0.2">
        <path id="패스_372" data-name="패스 372" d="M66.452,77.424l-.6,2.021,1.63.811.361-.8Z"/>
      </g>
      <path id="패스_373" data-name="패스 373" d="M66.88,81.731a1.419,1.419,0,0,1-.06.645c-.241.768-.92,2.8-.92,2.8l-.172-.049s.26-1.021.327-1.557-.166-.138-.615.31a2.6,2.6,0,0,1-2.475.447c-1.307-.344-1.815-.557-1.338-.783a3.939,3.939,0,0,1,1.4-.194,4.138,4.138,0,0,0,2.292-2.828c.12-.486.323-.43.561-.187a5.262,5.262,0,0,0,1.219.92A2.516,2.516,0,0,0,66.88,81.731Z" fill="#2ba5f7"/>
      <path id="패스_374" data-name="패스 374" d="M77.68,84.041l-1.168,1.2-2.064-4.51,2.391.6Z" fill="#ffc3bd"/>
      <g id="그룹_18" data-name="그룹 18" opacity="0.2">
        <path id="패스_375" data-name="패스 375" d="M74.43,80.658l.89,1.912L77.08,82.1l-.26-.837Z"/>
      </g>
      <path id="패스_376" data-name="패스 376" d="M77.6,83.6a1.434,1.434,0,0,1,.385.525c.331.735,1.166,2.707,1.166,2.707l-.161.075s-.484-.935-.787-1.381-.215,0-.256.645a2.577,2.577,0,0,1-1.557,1.974c-1.209.611-1.72.787-1.52.3a3.819,3.819,0,0,1,.92-1.075,4.138,4.138,0,0,0-.159-3.636c-.232-.445-.047-.54.3-.512a5.2,5.2,0,0,0,1.52-.12,2.581,2.581,0,0,0,.151.5Z" fill="#2ba5f7"/>
      <path id="패스_377" data-name="패스 377" d="M82.458,72.381H74.071c1.368.976,2.978,9.032,2.978,9.032l-2.258.783s-.645-1.389-1.856-4.688c-.615-1.669-1.357-3.381-1.791-5.058h0a11.857,11.857,0,0,1-.308-1.572q-.015-.12-.026-.239v-.318a.246.246,0,0,1,.015-.1v-.026a.906.906,0,0,1,.026-.1.03.03,0,0,1,0-.015,1.086,1.086,0,0,1,.039-.118v-.021a1.087,1.087,0,0,1,.052-.114.067.067,0,0,1,.011-.022c.017-.034.037-.067.056-.1a1.847,1.847,0,0,1,.155-.215l.019-.022.088-.1a2.364,2.364,0,0,1,.215-.2H71.5l.125-.1.133-.095.142-.09c.1-.058.2-.116.308-.17h.011l.286-.135.1-.043h.013c.938.3,2.66,1.088,4.516,1.875a26.722,26.722,0,0,0,5.783,1.963,3.32,3.32,0,0,1-.454,0Z" fill="#2ba5f7"/>
      <path id="패스_378" data-name="패스 378" d="M82.458,72.381H74.071c1.368.976,2.978,9.032,2.978,9.032l-2.258.783s-.645-1.389-1.856-4.688c-.615-1.669-1.357-3.381-1.791-5.058h0a11.857,11.857,0,0,1-.308-1.572q-.015-.12-.026-.239v-.318a.246.246,0,0,1,.015-.1v-.026a.906.906,0,0,1,.026-.1.03.03,0,0,1,0-.015,1.086,1.086,0,0,1,.039-.118v-.021a1.087,1.087,0,0,1,.052-.114.067.067,0,0,1,.011-.022c.017-.034.037-.067.056-.1a1.847,1.847,0,0,1,.155-.215l.019-.022.088-.1a2.364,2.364,0,0,1,.215-.2H71.5l.125-.1.133-.095.142-.09c.1-.058.2-.116.308-.17h.011l.286-.135.1-.043h.013c.938.3,2.66,1.088,4.516,1.875a26.722,26.722,0,0,0,5.783,1.963,3.32,3.32,0,0,1-.454,0Z" opacity="0.4"/>
      <path id="패스_379" data-name="패스 379" d="M82.927,72.349a26.839,26.839,0,0,1-5.783-1.963c-1.845-.787-3.568-1.572-4.516-1.875,2.8-1.172,7.78-1.144,7.78-1.144a6.6,6.6,0,0,1,2.725-1.518,3.011,3.011,0,0,1,.587-.062l.041.056C86.262,69.162,85.346,72.026,82.927,72.349Z" fill="#2ba5f7"/>
      <path id="패스_380" data-name="패스 380" d="M73.43,61.332c1.217,1.114,3.615-1.523,4-1.837.826-.673,3.254-2.942,3.125-3.729-.378-2.316-4.183.966-5.279,3.226Z" fill="#263238"/>
      <path id="패스_381" data-name="패스 381" d="M84.1,54.362c.611.131,1.273-.09,1.7.363a2.873,2.873,0,0,1,.673,1.72,11.447,11.447,0,0,1-.135,2.6q-.2,1.568-.4,3.135a9.436,9.436,0,0,0,.1,2.581h0a.417.417,0,0,1-.237.449s-4.746.163-6.127.112c-.733-.028-.23-1.957-.454-3.082-.049-.249-.542-1.28-.615-1.544a5.869,5.869,0,0,1,.2-3.353c.23-.91.323-2.221.787-2.32C80.428,54.837,82.4,54,84.1,54.362Z" fill="#263238"/>
      <path id="패스_382" data-name="패스 382" d="M84.783,55.252c.062-.095,1.731-1.505,2.034.123a9.11,9.11,0,0,1-.452,4.484s-.2,2.445-.91,2.69-1.387.3-1.626-.114a2.488,2.488,0,0,1-.239-1.045S83.675,56.94,84.783,55.252Z" fill="#263238"/>
      <path id="패스_383" data-name="패스 383" d="M83.626,51.261c-.172,1.041-.318,2.942.43,3.611a9.765,9.765,0,0,0-3.011,2.611,1.574,1.574,0,0,1-.553-1.755,1.54,1.54,0,0,1,.766-.925c.705-.387.645-1.114.445-1.8Z" fill="#e8bfbf"/>
      <path id="패스_384" data-name="패스 384" d="M83.389,53.027l-.68.26a2.26,2.26,0,0,1-.91.148h0a1.473,1.473,0,0,1,0,.645,1.29,1.29,0,0,0,1.346-.43,2.28,2.28,0,0,0,.243-.624Z" opacity="0.2" style="mix-blend-mode: normal;isolation: isolate"/>
      <path id="패스_385" data-name="패스 385" d="M86.077,65.222l.2.628c.028.049-.028.1-.112.1l-7.148.215c-.065,0-.116-.028-.123-.069l-.082-.632c0-.043.047-.082.116-.086l7.026-.215a.129.129,0,0,1,.125.056Z" fill="#2ba5f7"/>
      <path id="패스_386" data-name="패스 386" d="M71.035,69.7a1.628,1.628,0,0,1,.155-.215,1.847,1.847,0,0,0-.155.215Z" fill="#2ba5f7"/>
      <path id="패스_387" data-name="패스 387" d="M71.51,69.162a2.367,2.367,0,0,0-.215.2A1.881,1.881,0,0,1,71.51,69.162Z" fill="#2ba5f7"/>
      <path id="패스_388" data-name="패스 388" d="M71.035,69.7a1.628,1.628,0,0,1,.155-.215,1.847,1.847,0,0,0-.155.215Z" opacity="0.6"/>
      <path id="패스_389" data-name="패스 389" d="M71.51,69.162a2.367,2.367,0,0,0-.215.2A1.881,1.881,0,0,1,71.51,69.162Z" opacity="0.6"/>
      <path id="패스_390" data-name="패스 390" d="M74.007,60.6a2.9,2.9,0,0,1-.9-1.441,2.983,2.983,0,0,1-.041-.6,33.551,33.551,0,0,1,.361-3.522l1.011-.333s.314,1.733.383,2.686c.015.187.037.409.058.645.045.43.1.892.148,1.29Z" fill="#e8bfbf"/>
      <path id="패스_391" data-name="패스 391" d="M73.428,61.332c-.31-.284-.361-.628-.523-1.359-.153-.692.019-1.535.161-1.415a.153.153,0,0,1,.041.06c.243.578,1.2.071,1.469-.215a2.052,2.052,0,0,0,.3-.372.312.312,0,0,0,0-.351c.292-.123.527,1.032.387,1.316l-.071.215a2.946,2.946,0,0,1-.531.953l-.531.645Z" fill="#263238"/>
      <path id="패스_392" data-name="패스 392" d="M74.465,54.85l.12-1.763a7.1,7.1,0,0,1-.974.376c-.49.168-1.153-.129-1,.191a13.793,13.793,0,0,0,.821,1.381Z" fill="#e8bfbf"/>
      <path id="패스_393" data-name="패스 393" d="M74.585,53.087l-.751-1.766-.987.6a4.991,4.991,0,0,0-.241,1.72A3.062,3.062,0,0,0,74.585,53.087Z" fill="#e8bfbf"/>
      <path id="패스_394" data-name="패스 394" d="M79.7,48.3a4.916,4.916,0,0,0,.23,4.634c1.37-.929,3.359-.189,4.77-1.043a2.731,2.731,0,0,0,1.144-2.882A3.226,3.226,0,0,0,79.7,48.3Z" fill="#263238"/>
      <path id="패스_395" data-name="패스 395" d="M84.346,48.859a2.191,2.191,0,0,0-2.83-1.269c-1.6.6-1.9,2.985-1.6,4.451a2.056,2.056,0,0,0,3.546.94c.845-.813.871-1.505,1.017-3.116a2.228,2.228,0,0,0-.133-1.006Z" fill="#e8bfbf"/>
      <path id="패스_396" data-name="패스 396" d="M80.875,51.474a.566.566,0,0,1-.467-.1,3.441,3.441,0,0,0,.495-.83Z" fill="#ed893e"/>
      <path id="패스_397" data-name="패스 397" d="M82.1,51.624a.037.037,0,0,0,0-.054.039.039,0,0,0-.054,0,1.034,1.034,0,0,1-.86.387.041.041,0,0,0-.039.037h0a.034.034,0,0,0,.037.037,1.088,1.088,0,0,0,.927-.417Z" fill="#263238"/>
      <path id="패스_398" data-name="패스 398" d="M82.045,46.966a1.634,1.634,0,0,0-.385.6c1.72.86,2.6,3.077,2.684,5.015A16.714,16.714,0,0,0,86.709,50.8a1.938,1.938,0,0,0-.415-2.581,15.3,15.3,0,0,0-2.086-1.462A1.766,1.766,0,0,0,82.045,46.966Z" fill="#263238"/>
      <path id="패스_399" data-name="패스 399" d="M84.944,50.966a.533.533,0,0,0-.512-.551c-.4,0-.671.5-.731.847-.06.387.174.72.557.561a1.181,1.181,0,0,0,.632-.645.546.546,0,0,0,.054-.213Z" fill="#e8bfbf"/>
      <path id="패스_400" data-name="패스 400" d="M81.981,50.106c0,.161-.08.295-.185.3s-.2-.125-.2-.29.08-.295.183-.3S81.976,49.936,81.981,50.106Z" fill="#263238"/>
      <path id="패스_401" data-name="패스 401" d="M80.473,50.265c0,.161-.077.295-.183.3s-.2-.125-.2-.288.08-.3.185-.3S80.471,50.106,80.473,50.265Z" fill="#263238"/>
      <path id="패스_402" data-name="패스 402" d="M80.323,49.984l-.391-.1S80.138,50.181,80.323,49.984Z" fill="#263238"/>
      <path id="패스_403" data-name="패스 403" d="M82.436,49.48a.1.1,0,0,0,.037-.019.082.082,0,0,0,0-.114h0a.916.916,0,0,0-.8-.295.082.082,0,0,0-.065.092.077.077,0,0,0,.09.062.781.781,0,0,1,.662.254A.077.077,0,0,0,82.436,49.48Z" fill="#263238"/>
      <path id="패스_404" data-name="패스 404" d="M79.9,49.753a.062.062,0,0,0,.03-.028.781.781,0,0,1,.615-.342.08.08,0,0,0,.084-.075h0a.082.082,0,0,0-.077-.082.942.942,0,0,0-.751.411.08.08,0,0,0,.013.112.082.082,0,0,0,.086,0Z" fill="#263238"/>
      <path id="패스_405" data-name="패스 405" d="M81.828,49.818l-.391-.1S81.645,50.016,81.828,49.818Z" fill="#263238"/>
      <path id="패스_406" data-name="패스 406" d="M79.48,50.562A4.9,4.9,0,0,0,80.6,53.771c-.658.29-1.54-.43-2.039-.942a2.548,2.548,0,0,1-.634-1.985,4.3,4.3,0,0,1,.766-1.985,6.289,6.289,0,0,1,2.677-2.15c.215-.1.544-.144.613.08.047.155-.084.3-.2.411C80.615,48.242,79.731,48.954,79.48,50.562Z" fill="#263238"/>
      <path id="패스_407" data-name="패스 407" d="M83.383,53.343H83.37a.058.058,0,0,1-.026-.08c1.221-2.366-1.013-4.927-1.72-5.656a.06.06,0,0,1,.084-.084c.729.744,3.011,3.359,1.748,5.793A.058.058,0,0,1,83.383,53.343Z" fill="#263238"/>
      <path id="패스_408" data-name="패스 408" d="M84.29,51.635l-.262.877.189.249.181-.243Z" fill="#2ba5f7"/>
      <path id="패스_409" data-name="패스 409" d="M84.181,53.861c0-.056-.015-.131-.022-.215a.733.733,0,0,1,.6-.783h.011a.305.305,0,0,0,.232-.2c.133-.385.185-.5.312-.882a3.474,3.474,0,0,1,1.118.084,3.077,3.077,0,0,1,.019,1.314.572.572,0,0,1-.11.269,4.641,4.641,0,0,1-1.075.66C84.944,54.2,84.514,53.893,84.181,53.861Z" fill="#e8bfbf"/>
      <path id="패스_410" data-name="패스 410" d="M85.221,54.121s.948,6.116-.028,7.047a.869.869,0,0,1-1.381-.1,1.219,1.219,0,0,1-.3-.942l.667-6.269A.753.753,0,0,1,85.221,54.121Z" fill="#e8bfbf"/>
      <path id="패스_411" data-name="패스 411" d="M85.615,71.884a4,4,0,0,1-.86.333c-.075.019-.153.039-.23.054a5.191,5.191,0,0,1-1.1.114,3.224,3.224,0,0,1-.368-.022l-.133-.015-.138-.019c-.135-.021-.275-.047-.43-.077s-.323-.073-.492-.118l-.166-.045q-.316-.088-.645-.194l-.226-.073c-.43-.14-.86-.3-1.32-.473l-.178-.069c-.576-.215-1.163-.465-1.744-.708l-.443-.187c-1.845-.787-3.568-1.572-4.516-1.875h-.013l-.1.043-.286.135h-.011c-.108.054-.215.112-.308.17l-.142.09-.133.095-.125.1h-.011a2.365,2.365,0,0,0-.215.2l-.088.1-.019.022a1.848,1.848,0,0,0-.155.215c-.019.032-.039.065-.056.1a.067.067,0,0,0-.011.022,1.085,1.085,0,0,0-.052.114v.022a1.083,1.083,0,0,0-.039.118.03.03,0,0,0,0,.015.9.9,0,0,0-.026.1v.026a.853.853,0,0,1-.015.1v.314c0,.052.015.159.026.239a11.857,11.857,0,0,0,.308,1.572c-.3.751-.611,1.49-.912,2.2l-.3.692c-.342.8-.669,1.533-.957,2.181q-.065.14-.123.271l-.335.742c-.037.075-.069.151-.1.215l-.387.839c-.015.03-.03.06-.043.09s-.026.056-.039.082-.024.049-.034.073c-.088.187-.06.125-.06.125L65.8,78.774s1.533-5.43,2.531-10.443a4.43,4.43,0,0,1,3.836-3.546c3.927-.447,9.337,1.088,9.337,1.088h.366l.86-.013h1.348c.684,0,1.385-.013,1.935,0C87.916,69.084,87.193,71.035,85.615,71.884Z" fill="#2ba5f7"/>
      <g id="그룹_19" data-name="그룹 19" opacity="0.3">
        <path id="패스_412" data-name="패스 412" d="M85.615,71.884a4,4,0,0,1-.86.333c-.075.019-.153.039-.23.054a5.191,5.191,0,0,1-1.1.114,3.224,3.224,0,0,1-.368-.022l-.133-.015-.138-.019c-.135-.021-.275-.047-.43-.077s-.323-.073-.492-.118l-.166-.045q-.316-.088-.645-.194l-.226-.073c-.43-.14-.86-.3-1.32-.473l-.178-.069c-.576-.215-1.163-.465-1.744-.708l-.443-.187c-1.845-.787-3.568-1.572-4.516-1.875h-.013l-.1.043-.286.135h-.011c-.108.054-.215.112-.308.17l-.142.09-.133.095-.125.1h-.011a2.365,2.365,0,0,0-.215.2l-.088.1-.019.022a1.848,1.848,0,0,0-.155.215c-.019.032-.039.065-.056.1a.067.067,0,0,0-.011.022,1.085,1.085,0,0,0-.052.114v.022a1.083,1.083,0,0,0-.039.118.03.03,0,0,0,0,.015.9.9,0,0,0-.026.1v.026a.853.853,0,0,1-.015.1v.314c0,.052.015.159.026.239a11.857,11.857,0,0,0,.308,1.572c-.3.751-.611,1.49-.912,2.2l-.3.692c-.342.8-.669,1.533-.957,2.181q-.065.14-.123.271l-.335.742c-.037.075-.069.151-.1.215l-.387.839c-.015.03-.03.06-.043.09s-.026.056-.039.082-.024.049-.034.073c-.088.187-.06.125-.06.125L65.8,78.774s1.533-5.43,2.531-10.443a4.43,4.43,0,0,1,3.836-3.546c3.927-.447,9.337,1.088,9.337,1.088h.366l.86-.013h1.348c.684,0,1.385-.013,1.935,0C87.916,69.084,87.193,71.035,85.615,71.884Z"/>
      </g>
    </g>
    <g id="freepik--character-2--inject-1">
      <rect id="사각형_119" data-name="사각형 119" width="2.015" height="8.411" transform="translate(49.715 78.351)" fill="#263238"/>
      <rect id="사각형_120" data-name="사각형 120" width="2.015" height="8.411" transform="translate(49.715 78.351)" fill="#fff" opacity="0.2"/>
      <rect id="사각형_121" data-name="사각형 121" width="1.437" height="5.37" transform="translate(50.003 73.022)" fill="#263238"/>
      <path id="패스_413" data-name="패스 413" d="M51.439,74.017,50,74.542v-1.52h1.437Z" opacity="0.2" style="mix-blend-mode: normal;isolation: isolate"/>
      <path id="패스_414" data-name="패스 414" d="M56.508,88.013a.824.824,0,1,0,.824-.824.824.824,0,0,0-.824.824Z" fill="#263238"/>
      <path id="패스_415" data-name="패스 415" d="M44.41,88.013a.824.824,0,1,1-.824-.824.824.824,0,0,1,.824.824Z" fill="#263238"/>
      <path id="패스_416" data-name="패스 416" d="M51.545,87.74a.824.824,0,1,1-.824-.824.824.824,0,0,1,.824.824Z" fill="#263238"/>
      <path id="패스_417" data-name="패스 417" d="M41.792,86.907a.4.4,0,0,0,.4.32l8.591-.116,8.045.181a.4.4,0,0,0,.09-.791l-4.393-.86a7.471,7.471,0,0,0-1.383-.129h-4.72a7.413,7.413,0,0,0-1.381.129l-4.946.791a.4.4,0,0,0-.308.475Z" fill="#263238"/>
      <path id="패스_418" data-name="패스 418" d="M41.659,73v.019h.275A2.077,2.077,0,0,1,41.659,73Z" fill="#263238"/>
      <path id="패스_419" data-name="패스 419" d="M53.16,56.571a.261.261,0,0,1,0,.041V71.321H39.977V56.459A2.51,2.51,0,0,1,40,56.128h-.022l.125-2.071a2.46,2.46,0,0,1,.684-1.561L42.1,51.115l.68-3.441a1.146,1.146,0,0,1,1.123-.925h3.041a1.148,1.148,0,0,1,1.075.774L49.3,51.235l2.428,1.495a2.469,2.469,0,0,1,1.148,1.742l.316,2.112Z" fill="#2ba5f7"/>
      <path id="패스_420" data-name="패스 420" d="M53.16,56.571a.261.261,0,0,1,0,.041V71.321H41.745V56.459a2.511,2.511,0,0,1,.022-.335h-.022l.125-2.071a2.46,2.46,0,0,1,.684-1.561l1.316-1.374.68-3.441a1.146,1.146,0,0,1,1.123-.925h1.273a1.148,1.148,0,0,1,1.075.774l1.273,3.712,2.428,1.495a2.469,2.469,0,0,1,1.148,1.742l.316,2.112Z" opacity="0.1"/>
      <path id="패스_421" data-name="패스 421" d="M54.3,73.733H47.227a26.185,26.185,0,0,0,2.729.92V75.8h1.621V74.654a26.068,26.068,0,0,0,2.727-.92Z" fill="#263238"/>
      <path id="패스_422" data-name="패스 422" d="M47.59,70.633a85.51,85.51,0,0,0,12.527-.443,1.357,1.357,0,0,1,1.546,1.372v.215a1.781,1.781,0,0,1-1.546,1.72,85.511,85.511,0,0,1-12.527.443Z" fill="#2ba5f7"/>
      <path id="패스_423" data-name="패스 423" d="M47.59,70.633a85.51,85.51,0,0,0,12.527-.443,1.357,1.357,0,0,1,1.546,1.372v.215a1.781,1.781,0,0,1-1.546,1.72,85.511,85.511,0,0,1-12.527.443Z" opacity="0.2"/>
      <path id="패스_424" data-name="패스 424" d="M41.337,73.488c2.391.215,4.748.383,7.148.477a1.434,1.434,0,0,0,1.473-1.443v-.366a1.505,1.505,0,0,0-1.473-1.505c-2.4-.1-4.757-.254-7.148-.48a1.29,1.29,0,0,0-1.467,1.29v.366a1.688,1.688,0,0,0,1.467,1.66Z" fill="#2ba5f7"/>
      <path id="패스_425" data-name="패스 425" d="M61.009,52.921l.2.673-.378.559a3.043,3.043,0,0,1-1.391.789.712.712,0,0,1-.746-.32l-.08-.127a.86.86,0,0,1-.084-.181.645.645,0,0,1,.267-.791l.955-1a12.367,12.367,0,0,1,1.243-.273C61.123,52.237,61.022,52.792,61.009,52.921Z" fill="#ffb573"/>
      <path id="패스_426" data-name="패스 426" d="M54.958,57.2a45.552,45.552,0,0,1,3.391-3.236l.2-.151.895,1.131c-.125.127-4.329,7.411-5.92,4.692-.3-.51-.572-1.015-.824-1.527-.131-.265-.927-1.877-1.047-2.15l-.123-.265c-.578-1.29-.791-2.8.4-3.679h0c.447-.2,1.181.335,1.353,1.028Z" fill="#263238"/>
      <g id="그룹_20" data-name="그룹 20" opacity="0.1">
        <path id="패스_427" data-name="패스 427" d="M54.958,57.2a45.552,45.552,0,0,1,3.391-3.236l.2-.151.895,1.131c-.125.127-4.329,7.411-5.92,4.692-.3-.51-.572-1.015-.824-1.527-.131-.265-.927-1.877-1.047-2.15l-.123-.265c-.578-1.29-.791-2.8.4-3.679h0c.447-.2,1.181.335,1.353,1.028Z" fill="#fff"/>
      </g>
      <g id="freepik--character-2--inject-102--inject-1">
        <path id="패스_428" data-name="패스 428" d="M64.54,83.241l.553,3.589H63.581L62.51,83.241Z" fill="#ffb573"/>
        <path id="패스_429" data-name="패스 429" d="M65.142,86.589l-1.561.034a.116.116,0,0,0-.127.112h0a2.082,2.082,0,0,0-.084,1.129c.06.29.144.572.234.574.7,0,2.581.017,4.445,0,.781.017.781-.8.178-.8a4.6,4.6,0,0,1-2.77-.94.542.542,0,0,0-.316-.11Z" fill="#2ba5f7"/>
        <path id="패스_430" data-name="패스 430" d="M64.807,84.972l-.267-1.731H62.51l.632,2.11Z" opacity="0.2"/>
        <path id="패스_431" data-name="패스 431" d="M52.588,82.94l-1.174,3H49.758l.755-2.959Z" fill="#ffb573"/>
        <path id="패스_432" data-name="패스 432" d="M50.173,84.314l.323-1.634,2.092.26-.535,1.419Z" opacity="0.2"/>
        <path id="패스_433" data-name="패스 433" d="M51.459,85.684l-1.391-.645a.118.118,0,0,0-.17,0h0l-1.043.925a.3.3,0,0,0,.058.419c.542.413.912.774,1.589,1.305.415.327,1.2,1.006,1.77,1.458s.981-.1.774-.335a7.112,7.112,0,0,1-1.413-2.871A.5.5,0,0,0,51.459,85.684Z" fill="#2ba5f7"/>
      </g>
      <path id="패스_434" data-name="패스 434" d="M53.994,66.02c-1.781-4.806-.611-9.228-.834-11.675a2.8,2.8,0,0,0-2.254-2.486c-1.217-.237-2.72-.5-4.155-.692a2.645,2.645,0,0,0-.413-.026,2.811,2.811,0,0,0-2.772,2.847A31.007,31.007,0,0,0,46.02,66.02L49.773,66Z" fill="#2ba5f7"/>
      <path id="패스_435" data-name="패스 435" d="M49.923,49.145c-.256.991-.338,2.226,1.049,2.74.385.613.574,1.26-.91,1.03a4.555,4.555,0,0,1-2.989-1.692c.888-.776.725-3.157.5-4.5Z" fill="#ffb573"/>
      <path id="패스_436" data-name="패스 436" d="M54.925,65.327s8.6-.232,8.789,3.656c.273,5.591,1.219,15.165,1.219,15.165l-2.318.508s-3.307-9.365-3.441-13.737c-3.458-.688-8.654.355-9.7-1.916a6.1,6.1,0,0,1-.394-3.682Z" fill="#263238"/>
      <g id="그룹_21" data-name="그룹 21" opacity="0.1">
        <path id="패스_437" data-name="패스 437" d="M54.925,65.327s8.6-.232,8.789,3.656c.273,5.591,1.219,15.165,1.219,15.165l-2.318.508s-3.307-9.365-3.441-13.737c-3.458-.688-8.654.355-9.7-1.916a6.1,6.1,0,0,1-.394-3.682Z"/>
      </g>
      <path id="패스_438" data-name="패스 438" d="M51.612,64.9s5.826.819,5.553,4.712c-.3,4.26-4.765,14.137-4.765,14.137H50.147s1.505-8.963,2.178-13.305c-3.144,0-5.11.411-6.157-1.864a6.086,6.086,0,0,1-.391-3.682Z" fill="#263238"/>
      <path id="패스_439" data-name="패스 439" d="M52.216,51.947c.5.419,1.29,1.1,1.432,5.142.043,1.29-.157,2.581-.123,3.871a11.413,11.413,0,0,0,.91,3.942c0,.333-.5.52-.931.609A13.31,13.31,0,0,1,52.1,59.585c.12-7.636-2.262-8.348-2.174-8.621Z" fill="#263238"/>
      <path id="패스_440" data-name="패스 440" d="M48.842,49.872a1.239,1.239,0,0,0,.94.228,4.492,4.492,0,0,1,.052-.72L48.3,48.115a3.238,3.238,0,0,0-.065.5,1.406,1.406,0,0,0,.611,1.26Z" opacity="0.3" style="mix-blend-mode: normal;isolation: isolate"/>
      <path id="패스_441" data-name="패스 441" d="M51.143,43.276c1.626.918,1.643,3.518,1.142,5.021a2.252,2.252,0,0,1-3.946.662c-.8-1.006-.682-2.021-.645-3.765A2.258,2.258,0,0,1,51.143,43.276Z" fill="#ffb573"/>
      <path id="패스_442" data-name="패스 442" d="M50.874,47.665a6.2,6.2,0,0,0,1.505.3,2.456,2.456,0,0,1-.888,1.441,2.254,2.254,0,0,1-3.155-.449,3.148,3.148,0,0,1-.665-2.884,28.6,28.6,0,0,0,3.2,1.589Z" opacity="0.2" style="mix-blend-mode: normal;isolation: isolate"/>
      <path id="패스_443" data-name="패스 443" d="M47.917,46.586a.5.5,0,0,0-.215-.409,1.176,1.176,0,0,1-.323-.346.888.888,0,0,1-.039-.43l.1-1.232c.073-.951,1.542-.394,1.505.4-.03.542-.413.553-.731.875C47.844,45.827,47.982,46.145,47.917,46.586Z" fill="#ffb573"/>
      <path id="패스_444" data-name="패스 444" d="M47.917,46.586a.5.5,0,0,0-.215-.409,1.176,1.176,0,0,1-.323-.346.888.888,0,0,1-.039-.43l.1-1.232c.073-.951,1.542-.394,1.505.4-.03.542-.413.553-.731.875C47.844,45.827,47.982,46.145,47.917,46.586Z" opacity="0.2" style="mix-blend-mode: normal;isolation: isolate"/>
      <path id="패스_445" data-name="패스 445" d="M47.433,45.891c.488.11.695.811.682,1.26,0,.51-.378.843-.8.535a1.585,1.585,0,0,1-.611-.981C46.616,46.222,46.945,45.782,47.433,45.891Z" fill="#ffb573"/>
      <path id="패스_446" data-name="패스 446" d="M50.016,45.341a.989.989,0,0,1,.735-.181h0a.08.08,0,0,0,.09-.067.088.088,0,0,0-.071-.1,1.133,1.133,0,0,0-.86.234h0a.08.08,0,0,0,0,.116.073.073,0,0,0,.037.024.077.077,0,0,0,.069-.028Z" fill="#263238"/>
      <path id="패스_447" data-name="패스 447" d="M52.422,45.7h0a.08.08,0,0,0,.024-.11.873.873,0,0,0-.645-.43h0a.077.077,0,0,0-.077.077.088.088,0,0,0,.08.09.7.7,0,0,1,.5.353.092.092,0,0,0,.069.043.082.082,0,0,0,.049-.024Z" fill="#263238"/>
      <path id="패스_448" data-name="패스 448" d="M50.861,48.257a7.543,7.543,0,0,0-.492.714c-.039-.015-.077-.03-.116-.049-.523-.226-.671-.542-.677-.821a1.163,1.163,0,0,1,.2-.628,2.258,2.258,0,0,0,.912.7C50.792,48.229,50.861,48.257,50.861,48.257Z" fill="#2e353a"/>
      <path id="패스_449" data-name="패스 449" d="M50.685,48.171l-.075.1a.155.155,0,0,1-.191.052,1.443,1.443,0,0,1-.735-.583.142.142,0,0,1,0-.125,1.075,1.075,0,0,1,.084-.151A2.242,2.242,0,0,0,50.685,48.171Z" fill="#fff"/>
      <path id="패스_450" data-name="패스 450" d="M50.252,48.921c-.523-.226-.671-.542-.677-.821a1.49,1.49,0,0,1,.518.391.725.725,0,0,1,.159.43Z" fill="#de5753"/>
      <path id="패스_451" data-name="패스 451" d="M51.792,46.194c.09.017.142.146.116.286s-.125.239-.215.215-.142-.146-.116-.286S51.7,46.177,51.792,46.194Z" fill="#263238"/>
      <path id="패스_452" data-name="패스 452" d="M50.044,45.782c.09.015.142.144.114.284s-.125.241-.215.215-.142-.146-.114-.284S49.951,45.764,50.044,45.782Z" fill="#263238"/>
      <path id="패스_453" data-name="패스 453" d="M50.934,47.607a.832.832,0,0,0,.7.108,2.712,2.712,0,0,1-.305-1.443Z" fill="#ed847e"/>
      <path id="패스_454" data-name="패스 454" d="M51.775,65.8s-2.116.819-2.6.981a6.113,6.113,0,0,1-1.742.4,2.15,2.15,0,0,1-1.649-.615,4.07,4.07,0,0,1-.794-2.125q-.583-3.372-1.163-6.755a30.69,30.69,0,0,1-.645-3.417A3.919,3.919,0,0,1,45.9,50.96a1.7,1.7,0,0,1,2.088.561,6.265,6.265,0,0,1,1.72,3.389,35.587,35.587,0,0,1,.523,4.985A13.7,13.7,0,0,0,51.775,65.8Z" fill="#263238"/>
      <path id="패스_455" data-name="패스 455" d="M43.3,53.657a25.709,25.709,0,0,0,1.075,7.193c.888,2.864,3.327,1.32,3.682,1.189a19.016,19.016,0,0,0,1.826-.968,28.323,28.323,0,0,0,3.269-1.72l-.6-1.174c-1.157.4-4.434,1.241-4.974,1.374-.234.06-1.146.54-1.138-.092-.129-.215-.308-4.3-.7-5.744a1.269,1.269,0,0,0-.228-.445l-.037-.045a1.252,1.252,0,0,0-2.181.43Z" fill="#263238"/>
      <path id="패스_456" data-name="패스 456" d="M43.3,53.657a25.709,25.709,0,0,0,1.075,7.193c.888,2.864,3.327,1.32,3.682,1.189a19.016,19.016,0,0,0,1.826-.968,28.323,28.323,0,0,0,3.269-1.72l-.6-1.174c-1.157.4-4.434,1.241-4.974,1.374-.234.06-1.146.54-1.138-.092-.129-.215-.308-4.3-.7-5.744a1.269,1.269,0,0,0-.228-.445l-.037-.045a1.252,1.252,0,0,0-2.181.43Z" fill="#fff" opacity="0.1"/>
      <path id="패스_457" data-name="패스 457" d="M52.113,58.566l-.125.671c.3.774,2,.57,2,.57V57.824l-1.505.351a.5.5,0,0,0-.372.391Z" fill="#ffb573"/>
      <path id="패스_458" data-name="패스 458" d="M53.994,57.824l-.009,1.987,1.51.037.346-1.746Z" fill="#ffb573"/>
      <path id="패스_459" data-name="패스 459" d="M53.1,44.438a.456.456,0,0,1-.2.482.684.684,0,0,1-.43.019l-1.484-.256c-.86-.148-1.7-.3-2.544-.5-.376-.09-.925-.2-.948-.589-.114-1.86,2.925-1.492,3.574-1.267C53.2,43.076,53.067,44.255,53.1,44.438Z" fill="#263238"/>
    </g>
    <g id="freepik--character-1--inject-1">
      <rect id="사각형_122" data-name="사각형 122" width="2.015" height="8.411" transform="translate(24.027 78.351)" fill="#263238"/>
      <rect id="사각형_123" data-name="사각형 123" width="2.015" height="8.411" transform="translate(24.027 78.351)" fill="#fff" opacity="0.2"/>
      <rect id="사각형_124" data-name="사각형 124" width="1.437" height="5.37" transform="translate(24.315 73.022)" fill="#263238"/>
      <path id="패스_460" data-name="패스 460" d="M25.752,74.017l-1.437.525v-1.52h1.437Z" opacity="0.2" style="mix-blend-mode: normal;isolation: isolate"/>
      <path id="패스_461" data-name="패스 461" d="M30.821,88.013a.824.824,0,1,0,.824-.824.824.824,0,0,0-.824.824Z" fill="#263238"/>
      <path id="패스_462" data-name="패스 462" d="M18.722,88.013a.826.826,0,1,1-.824-.824.826.826,0,0,1,.824.824Z" fill="#263238"/>
      <path id="패스_463" data-name="패스 463" d="M25.857,87.74a.824.824,0,1,1-.824-.824.824.824,0,0,1,.824.824Z" fill="#263238"/>
      <path id="패스_464" data-name="패스 464" d="M16.1,86.907a.4.4,0,0,0,.406.32l8.6-.116,8.045.181a.4.4,0,0,0,.088-.791l-4.393-.86a7.454,7.454,0,0,0-1.383-.129H22.737a7.447,7.447,0,0,0-1.381.129l-4.946.791a.4.4,0,0,0-.308.475Z" fill="#263238"/>
      <path id="패스_465" data-name="패스 465" d="M15.972,73v.019h.282A2.022,2.022,0,0,1,15.972,73Z" fill="#263238"/>
      <path id="패스_466" data-name="패스 466" d="M27.47,56.571a.26.26,0,0,1,0,.041V71.321H14.288V56.459a2.51,2.51,0,0,1,.022-.335h-.022l.125-2.071a2.46,2.46,0,0,1,.684-1.561l1.318-1.381.68-3.441a1.146,1.146,0,0,1,1.123-.925h3.041a1.148,1.148,0,0,1,1.075.774l1.273,3.712,2.428,1.495a2.469,2.469,0,0,1,1.148,1.742l.316,2.112Z" fill="#2ba5f7"/>
      <path id="패스_467" data-name="패스 467" d="M27.47,56.571a.26.26,0,0,1,0,.041V71.321H16.055V56.459a2.509,2.509,0,0,1,.022-.335h-.022l.125-2.071a2.46,2.46,0,0,1,.684-1.561l1.318-1.381.68-3.441a1.146,1.146,0,0,1,1.123-.925h1.273a1.148,1.148,0,0,1,1.075.774l1.273,3.712,2.428,1.495a2.469,2.469,0,0,1,1.148,1.742l.316,2.112Z" opacity="0.1"/>
      <path id="패스_468" data-name="패스 468" d="M28.616,73.733H21.539a26.068,26.068,0,0,0,2.727.92V75.8h1.621V74.654a26.182,26.182,0,0,0,2.729-.92Z" fill="#263238"/>
      <path id="패스_469" data-name="패스 469" d="M21.9,70.633a85.48,85.48,0,0,0,12.524-.443,1.357,1.357,0,0,1,1.546,1.372v.215a1.781,1.781,0,0,1-1.546,1.72A85.481,85.481,0,0,1,21.9,73.94Z" fill="#2ba5f7"/>
      <path id="패스_470" data-name="패스 470" d="M21.9,70.633a85.48,85.48,0,0,0,12.524-.443,1.357,1.357,0,0,1,1.546,1.372v.215a1.781,1.781,0,0,1-1.546,1.72A85.481,85.481,0,0,1,21.9,73.94Z" opacity="0.2"/>
      <path id="패스_471" data-name="패스 471" d="M15.647,73.488c2.391.215,4.75.383,7.15.477a1.437,1.437,0,0,0,1.473-1.443v-.366A1.505,1.505,0,0,0,22.8,70.652c-2.4-.1-4.759-.254-7.15-.48a1.29,1.29,0,0,0-1.467,1.29v.366A1.688,1.688,0,0,0,15.647,73.488Z" fill="#2ba5f7"/>
      <path id="패스_472" data-name="패스 472" d="M35.922,82.983,35.907,86.6l1.8-.037.372-3.411Z" fill="#b55b52"/>
      <path id="패스_473" data-name="패스 473" d="M38.027,86.522a.041.041,0,0,1-.032-.034.039.039,0,0,1,.019-.043c.028-.015.645-.357.931-.273a.215.215,0,0,1,.129.1.155.155,0,0,1,0,.178.748.748,0,0,1-.516.129A3.183,3.183,0,0,1,38.027,86.522Zm.135-.054c.325.043.763.045.847-.067a.12.12,0,0,0,0-.09.11.11,0,0,0-.08-.06.337.337,0,0,0-.08-.011,1.91,1.91,0,0,0-.688.228Z" fill="#2ba5f7"/>
      <path id="패스_474" data-name="패스 474" d="M38.005,86.52a.039.039,0,0,1-.017-.039,1.17,1.17,0,0,1,.277-.673.31.31,0,0,1,.232-.067c.114.013.148.071.151.118.037.2-.387.57-.6.66h-.017a.041.041,0,0,1-.028,0Zm.462-.7a.215.215,0,0,0-.142.049.976.976,0,0,0-.239.533c.215-.125.5-.419.486-.538,0,0,0-.041-.082-.047Z" fill="#2ba5f7"/>
      <path id="패스_475" data-name="패스 475" d="M37.848,86.275l-1.905-.021a.157.157,0,0,0-.153.118l-.361,1.546a.256.256,0,0,0,.189.308h.052c.688,0,1.29-.037,2.15-.026,1.009.013.751.131,1.935.161.714.017.86-.794.553-.839a2.709,2.709,0,0,1-2.056-1.112.611.611,0,0,0-.4-.135Z" fill="#263238"/>
      <path id="패스_476" data-name="패스 476" d="M36.072,85.084l1.914-.129.116-2.346-2.17-.039Z" opacity="0.1"/>
      <path id="패스_477" data-name="패스 477" d="M35.369,69.245a.522.522,0,0,0,.022.1,9.369,9.369,0,0,0-.2-1.323c-.615-2.393-7.023-2.8-9.645-2.856l-3.15.346a9.256,9.256,0,0,0,.456,4.12C23.6,71.228,35.369,69.245,35.369,69.245Z" opacity="0.4"/>
      <path id="패스_478" data-name="패스 478" d="M31.64,83.632,31.8,87.3l1.776-.065.211-3.884Z" fill="#b55b52"/>
      <path id="패스_479" data-name="패스 479" d="M33.861,86.74a.043.043,0,0,1-.037-.032.039.039,0,0,1,.017-.043c.024-.019.6-.417.9-.361a.215.215,0,0,1,.138.084.159.159,0,0,1,.019.181.753.753,0,0,1-.5.176A3.18,3.18,0,0,1,33.861,86.74Zm.129-.067c.327,0,.766-.028.837-.148.011-.015.019-.041-.017-.09a.112.112,0,0,0-.086-.049.245.245,0,0,0-.08,0,1.936,1.936,0,0,0-.654.28Z" fill="#2ba5f7"/>
      <path id="패스_480" data-name="패스 480" d="M33.84,86.74a.041.041,0,0,1-.022-.037,1.128,1.128,0,0,1,.215-.7.32.32,0,0,1,.215-.09c.114,0,.155.056.163.1.054.194-.331.606-.531.716a.024.024,0,0,1-.017,0,.043.043,0,0,1-.024,0ZM34.233,86a.215.215,0,0,0-.14.065.974.974,0,0,0-.185.553c.2-.146.454-.465.43-.583,0,0-.011-.039-.086-.039h-.022Z" fill="#2ba5f7"/>
      <path id="패스_481" data-name="패스 481" d="M33.664,86.512l-1.9.161a.157.157,0,0,0-.14.133L31.41,88.38a.258.258,0,0,0,.215.288h.054c.684-.069,1.29-.159,2.15-.23,1-.086.759.056,1.935-.028.712-.052.774-.873.469-.888a2.686,2.686,0,0,1-2.15-.91.617.617,0,0,0-.419-.1Z" fill="#263238"/>
      <path id="패스_482" data-name="패스 482" d="M33.666,85.557l.1-1.852-2.116.047.084,1.94Z" opacity="0.1"/>
      <path id="패스_483" data-name="패스 483" d="M27.367,64.944s11.182-.86,11.955,2.161-.942,17.236-.942,17.236l-2.766.232s-.363-8.387-.413-15.331c0,0-11.772,1.983-12.522.385a9.256,9.256,0,0,1-.456-4.12Z" fill="#2ba5f7"/>
      <path id="패스_484" data-name="패스 484" d="M27.367,64.944s11.182-.86,11.955,2.161-.942,17.236-.942,17.236l-2.766.232s-.363-8.387-.413-15.331c0,0-11.772,1.983-12.522.385a9.256,9.256,0,0,1-.456-4.12Z" fill="#263238"/>
      <path id="패스_485" data-name="패스 485" d="M27.367,64.944s11.182-.86,11.955,2.161-.942,17.236-.942,17.236l-2.766.232s-.363-8.387-.413-15.331c0,0-11.772,1.983-12.522.385a9.256,9.256,0,0,1-.456-4.12Z" opacity="0.1"/>
      <path id="패스_486" data-name="패스 486" d="M24.543,65.385s11.271-.43,11.425,2.673c.12,2.432-1.935,16.875-1.935,16.875l-2.581.2s-.473-8.679-.151-14.6c0,0-9.727,1.116-11.441-.254-1.626-1.305-.355-4.9-.355-4.9Z" fill="#263238"/>
      <g id="freepik--group--inject-1">
        <path id="패스_487" data-name="패스 487" d="M35.094,63.076v-.043a1.206,1.206,0,0,1,.991-.981l1.2-.2s2,.987,1.542,1.206H36.621Z" fill="#b55b52"/>
        <path id="패스_488" data-name="패스 488" d="M36.715,61.949l-1.621,1.127L30.378,60l-2.064-2.071s-3.91-6-1.983-6.348c.88-.161,3.957,3.8,5.922,7.039h0C34.6,60.506,36.715,61.949,36.715,61.949Z" fill="#2ba5f7"/>
        <g id="그룹_22" data-name="그룹 22" opacity="0.3">
          <path id="패스_489" data-name="패스 489" d="M36.715,61.949l-1.621,1.127L30.378,60l-2.064-2.071s-3.91-6-1.983-6.348c.88-.161,3.957,3.8,5.922,7.039h0C34.6,60.506,36.715,61.949,36.715,61.949Z"/>
        </g>
        <path id="패스_490" data-name="패스 490" d="M28.313,65.16h0a15.991,15.991,0,0,1-5.051.508l-3.656-.215c-.086-.753-.645-2.4-1.424-6.666-.963-6.8.178-7.155.763-7.258h.019c.542-.09,1.221-.189,1.89-.239a35.626,35.626,0,0,1,3.832-.116,10.827,10.827,0,0,1,1.269.163,1.6,1.6,0,0,1,1.275,1.017C27.829,54.082,28.036,58.183,28.313,65.16Z" fill="#2ba5f7"/>
        <path id="패스_491" data-name="패스 491" d="M28.313,65.16h0a15.991,15.991,0,0,1-5.051.508l-3.656-.215c-.086-.753-.645-2.4-1.424-6.666-.963-6.8.178-7.155.763-7.258h.019c.542-.09,1.221-.189,1.89-.239a35.626,35.626,0,0,1,3.832-.116,10.827,10.827,0,0,1,1.269.163,1.6,1.6,0,0,1,1.275,1.017C27.829,54.082,28.036,58.183,28.313,65.16Z" opacity="0.4"/>
        <path id="패스_492" data-name="패스 492" d="M23.346,52.257a2.767,2.767,0,0,1-2.621-.957c.809-.86.419-3.1.1-4.322l1.049.819L23.3,48.913a5.093,5.093,0,0,0-.071.57,2.178,2.178,0,0,0,0,.411v.028c.065.574.383,1.049,1.29,1.232C24.515,51.156,24.961,52.115,23.346,52.257Z" fill="#b55b52"/>
        <path id="패스_493" data-name="패스 493" d="M23.3,48.915a5.093,5.093,0,0,0-.071.57,2.179,2.179,0,0,0,0,.411v.028a1.788,1.788,0,0,1-1.32-1.153,2.557,2.557,0,0,1-.037-.529Z" opacity="0.2" style="mix-blend-mode: normal;isolation: isolate"/>
        <path id="패스_494" data-name="패스 494" d="M20.331,51.181l.578-.234a5.783,5.783,0,0,0,2.316,1.31,2.237,2.237,0,0,0-.791,1.032C20.384,52.67,20.331,51.181,20.331,51.181Z" fill="#fff"/>
        <path id="패스_495" data-name="패스 495" d="M24.515,51.05l-.548-.1s-.187,1.142-.742,1.318c.991.351,1.168.828,1.168.828C25.782,52.6,24.515,51.05,24.515,51.05Z" fill="#fff"/>
        <path id="패스_496" data-name="패스 496" d="M24.158,43.354c.286.335.372,1.153.645,1.486A6.236,6.236,0,0,0,25.18,43.8a.51.51,0,0,0-.161-.49C24.827,43.154,24.4,43.268,24.158,43.354Z" fill="#263238"/>
        <path id="패스_497" data-name="패스 497" d="M20.554,44.547a2.209,2.209,0,0,1,2.671-1.63c1.742.374,2.48,2.763,2.434,4.3a2.183,2.183,0,0,1-3.441,1.755c-1.011-.695-1.189-1.662-1.63-3.279A2.2,2.2,0,0,1,20.554,44.547Z" fill="#b55b52"/>
        <path id="패스_498" data-name="패스 498" d="M24.834,47.336a8.02,8.02,0,0,0-1.705,0,.974.974,0,0,0,1.09.682.628.628,0,0,0,.615-.624Z" fill="#263238"/>
        <path id="패스_499" data-name="패스 499" d="M23.911,47.706a1.075,1.075,0,0,1,.705.159.669.669,0,0,1-.4.151,1.06,1.06,0,0,1-.705-.157.645.645,0,0,1,.4-.153Z" fill="#e83f3f"/>
        <path id="패스_500" data-name="패스 500" d="M24.776,47.33a.284.284,0,0,1-.189.215,6,6,0,0,1-1.112-.032.342.342,0,0,1-.288-.187,9.338,9.338,0,0,1,1.589,0Z" fill="#fff"/>
        <path id="패스_501" data-name="패스 501" d="M24.483,46.857a.774.774,0,0,0,.609-.228,4.959,4.959,0,0,1-.88-1.028Z" opacity="0.2" style="mix-blend-mode: normal;isolation: isolate"/>
        <path id="패스_502" data-name="패스 502" d="M23.849,43.592a3.368,3.368,0,0,0-.226-.368.645.645,0,0,0-.662-.155,1.041,1.041,0,0,0-.546.449,3.441,3.441,0,0,0-.351.744.729.729,0,0,1-.215.609h0a.718.718,0,0,1-.613.161c-.082.245.447.957.548,1.049a.86.86,0,0,0,.333.194.716.716,0,0,1-.363.067l-.116-.013A1.942,1.942,0,0,1,20.488,43.5a2.467,2.467,0,0,1,3.383-.873C25.008,43.36,23.933,43.713,23.849,43.592Z" fill="#263238"/>
        <path id="패스_503" data-name="패스 503" d="M21.208,46.635a18.867,18.867,0,0,1-.037,2.286,5.887,5.887,0,0,1-1.406-2.209,3.041,3.041,0,0,1,.084-2.441,2.43,2.43,0,0,1,.63-.772,2.213,2.213,0,0,1,1.387-.514c0,.645,0,1.267-.026,1.89a.718.718,0,0,1-.613.161,1.658,1.658,0,0,0,.265.953,1.129,1.129,0,0,0,.243.32,2.138,2.138,0,0,1-.028.26c-.026.2-.052.4-.084.6Z" fill="#263238"/>
        <path id="패스_504" data-name="패스 504" d="M20.6,46.08c.415-.069.86.445,1.047.821.2.43.067.819-.374.723a1.578,1.578,0,0,1-.86-.6C20.131,46.648,20.184,46.149,20.6,46.08Z" fill="#b55b52"/>
        <path id="패스_505" data-name="패스 505" d="M23.251,45.59c.088-.013.185.095.215.215s-.024.241-.112.256-.17-.082-.215-.215A.181.181,0,0,1,23.251,45.59Z" fill="#263238"/>
        <path id="패스_506" data-name="패스 506" d="M24.743,45.246c.088-.015.181.08.215.215s-.019.254-.108.269-.183-.082-.215-.215S24.655,45.261,24.743,45.246Z" fill="#263238"/>
        <path id="패스_507" data-name="패스 507" d="M24.41,44.73a.088.088,0,0,0,.073.017.675.675,0,0,1,.587.073.077.077,0,0,0,.11-.011h0a.084.084,0,0,0-.013-.112h0a.819.819,0,0,0-.731-.1.082.082,0,0,0-.054.1.112.112,0,0,0,.028.034Z" fill="#263238"/>
        <path id="패스_508" data-name="패스 508" d="M22.8,45.392a.088.088,0,0,0,.069-.032.686.686,0,0,1,.508-.3.075.075,0,0,0,.08-.075h0a.082.082,0,0,0-.08-.08h0a.832.832,0,0,0-.645.37.082.082,0,0,0,.022.112A.129.129,0,0,0,22.8,45.392Z" fill="#263238"/>
        <path id="패스_509" data-name="패스 509" d="M19.9,55.869l.215-.447c.28-.587,1.443-2.925,2.011-3.172l.215-.133.781,1.215c-.135.116-1.626,3.965-1.983,4.772a2.84,2.84,0,0,0-.14.378c-.243.882-1.744,2.234-2.748-.305-.249-.533-.48-1.06-.686-1.591-.105-.277-.2-.538-.3-.813l-.1-.28c-.462-1.327-.542-2.847.725-3.628l.86-.288Z" fill="#2ba5f7"/>
        <g id="그룹_23" data-name="그룹 23" opacity="0.3">
          <path id="패스_510" data-name="패스 510" d="M19.9,55.869l.215-.447c.28-.587,1.443-2.925,2.011-3.172l.215-.133.781,1.215c-.135.116-1.626,3.965-1.983,4.772a2.84,2.84,0,0,0-.14.378c-.243.882-1.744,2.234-2.748-.305-.249-.533-.48-1.06-.686-1.591-.105-.277-.2-.538-.3-.813l-.1-.28c-.462-1.327-.542-2.847.725-3.628l.86-.288Z"/>
        </g>
        <path id="패스_511" data-name="패스 511" d="M24.393,51.25a.735.735,0,0,0,.041.168,1.312,1.312,0,0,0,.1.234,1.207,1.207,0,0,0,.215.258s.054.045.056.049a1.253,1.253,0,0,0,.159.123.974.974,0,0,0,.353.161.084.084,0,0,1,.056.045c.015.03.034.06.052.088a.52.52,0,0,1,.039.077.191.191,0,0,0,.077.092.645.645,0,0,0,.215.08,2.312,2.312,0,0,0,.609.043,3.08,3.08,0,0,0,.316-.026,2.564,2.564,0,0,0,.333-.073.953.953,0,0,0,.249-.108.17.17,0,0,0,.075-.08.463.463,0,0,1,.022-.058l.067-.161c.032-.082.06-.168.086-.252a2.413,2.413,0,0,0,.071-.252c.017-.086.037-.172.049-.26.022-.146.039-.295.054-.445a1.413,1.413,0,0,1,.011-.215.645.645,0,0,0-.019-.17.245.245,0,0,0-.06-.1.794.794,0,0,0-.277-.181,1.346,1.346,0,0,0-.3-.082c-.043,0-.086-.017-.129-.021a3.2,3.2,0,0,0-1.366.1,1.882,1.882,0,0,0-.26.095,1.092,1.092,0,0,0-.215.133.467.467,0,0,0-.116.142.215.215,0,0,0-.022.067c0,.026,0,.028-.032.024a.4.4,0,0,0-.394.123.443.443,0,0,0-.084.157A.628.628,0,0,0,24.393,51.25ZM25.52,50.9a1.29,1.29,0,0,1-.269-.077.155.155,0,0,1-.058-.032.378.378,0,0,1,.114-.135.933.933,0,0,1,.1-.06,1.117,1.117,0,0,1,.191-.077,2.5,2.5,0,0,1,.31-.075c.1-.017.2-.028.3-.037s.17,0,.265,0a2.758,2.758,0,0,1,.355.022,1.787,1.787,0,0,1,.353.082.6.6,0,0,1,.256.161h0l-.026.019a.5.5,0,0,1-.073.043,1.252,1.252,0,0,1-.3.112l-.071.019h-.041a2.271,2.271,0,0,1-.237.041,2.124,2.124,0,0,1-.232.024l-.181.013h-.5A2.249,2.249,0,0,1,25.52,50.9Zm-.759.28a.168.168,0,0,1,.138-.135h.049c.022.116.049.226.075.335.032.146.077.286.123.43a.729.729,0,0,0,.09.2l-.084-.065a1.191,1.191,0,0,1-.215-.23,1.12,1.12,0,0,1-.159-.28.415.415,0,0,1-.017-.254Z" fill="#2ba5f7"/>
        <path id="패스_512" data-name="패스 512" d="M24.393,51.25a.735.735,0,0,0,.041.168,1.312,1.312,0,0,0,.1.234,1.207,1.207,0,0,0,.215.258s.054.045.056.049a1.253,1.253,0,0,0,.159.123.974.974,0,0,0,.353.161.084.084,0,0,1,.056.045c.015.03.034.06.052.088a.52.52,0,0,1,.039.077.191.191,0,0,0,.077.092.645.645,0,0,0,.215.08,2.312,2.312,0,0,0,.609.043,3.08,3.08,0,0,0,.316-.026,2.564,2.564,0,0,0,.333-.073.953.953,0,0,0,.249-.108.17.17,0,0,0,.075-.08.463.463,0,0,1,.022-.058l.067-.161c.032-.082.06-.168.086-.252a2.413,2.413,0,0,0,.071-.252c.017-.086.037-.172.049-.26.022-.146.039-.295.054-.445a1.413,1.413,0,0,1,.011-.215.645.645,0,0,0-.019-.17.245.245,0,0,0-.06-.1.794.794,0,0,0-.277-.181,1.346,1.346,0,0,0-.3-.082c-.043,0-.086-.017-.129-.021a3.2,3.2,0,0,0-1.366.1,1.882,1.882,0,0,0-.26.095,1.092,1.092,0,0,0-.215.133.467.467,0,0,0-.116.142.215.215,0,0,0-.022.067c0,.026,0,.028-.032.024a.4.4,0,0,0-.394.123.443.443,0,0,0-.084.157A.628.628,0,0,0,24.393,51.25ZM25.52,50.9a1.29,1.29,0,0,1-.269-.077.155.155,0,0,1-.058-.032.378.378,0,0,1,.114-.135.933.933,0,0,1,.1-.06,1.117,1.117,0,0,1,.191-.077,2.5,2.5,0,0,1,.31-.075c.1-.017.2-.028.3-.037s.17,0,.265,0a2.758,2.758,0,0,1,.355.022,1.787,1.787,0,0,1,.353.082.6.6,0,0,1,.256.161h0l-.026.019a.5.5,0,0,1-.073.043,1.252,1.252,0,0,1-.3.112l-.071.019h-.041a2.271,2.271,0,0,1-.237.041,2.124,2.124,0,0,1-.232.024l-.181.013h-.5A2.249,2.249,0,0,1,25.52,50.9Zm-.759.28a.168.168,0,0,1,.138-.135h.049c.022.116.049.226.075.335.032.146.077.286.123.43a.729.729,0,0,0,.09.2l-.084-.065a1.191,1.191,0,0,1-.215-.23,1.12,1.12,0,0,1-.159-.28.415.415,0,0,1-.017-.254Z" fill="#fff" opacity="0.7"/>
        <path id="패스_513" data-name="패스 513" d="M25.191,50.792a.359.359,0,0,1,.114-.135.783.783,0,0,1,.1-.06,1.03,1.03,0,0,1,.189-.077,2.5,2.5,0,0,1,.31-.075c.1-.017.2-.028.3-.037s.17,0,.265,0a2.817,2.817,0,0,1,.357.024,1.654,1.654,0,0,1,.351.08.6.6,0,0,1,.256.161h0l-.026.019a.645.645,0,0,1-.073.043,1.437,1.437,0,0,1-.3.114l-.073.017h-.041c-.077.017-.157.032-.237.043a2.07,2.07,0,0,1-.232.022l-.181.013h-.505a1.33,1.33,0,0,1-.243-.039,1.118,1.118,0,0,1-.267-.077.148.148,0,0,1-.062-.034Z" fill="#fff" opacity="0.9"/>
        <path id="패스_514" data-name="패스 514" d="M25.2,50.792a.335.335,0,0,1,.114-.135.933.933,0,0,1,.1-.06,1.334,1.334,0,0,1,.191-.08,3.04,3.04,0,0,1,.308-.073c.1-.017.2-.028.3-.037s.17,0,.265,0a2.815,2.815,0,0,1,.357.022,1.8,1.8,0,0,1,.351.082.617.617,0,0,1,.256.161h0a.086.086,0,0,1-.026.022.48.48,0,0,1-.071.043,1.41,1.41,0,0,1-.305.114l-.073.017h-.039c-.08.017-.157.03-.237.041s-.155.019-.232.024l-.181.013h-.505a1.33,1.33,0,0,1-.243-.039,1.29,1.29,0,0,1-.269-.077A.155.155,0,0,1,25.2,50.792Z" fill="none"/>
        <path id="패스_515" data-name="패스 515" d="M25.2,50.792a.335.335,0,0,1,.114-.135.933.933,0,0,1,.1-.06,1.334,1.334,0,0,1,.191-.08,3.04,3.04,0,0,1,.308-.073c.1-.017.2-.028.3-.037s.17,0,.265,0a2.815,2.815,0,0,1,.357.022,1.8,1.8,0,0,1,.351.082.617.617,0,0,1,.256.161h0a.086.086,0,0,1-.026.022.48.48,0,0,1-.071.043,1.41,1.41,0,0,1-.305.114l-.073.017h-.039c-.08.017-.157.03-.237.041s-.155.019-.232.024l-.181.013h-.505a1.33,1.33,0,0,1-.243-.039,1.29,1.29,0,0,1-.269-.077A.155.155,0,0,1,25.2,50.792Z" fill="none"/>
        <path id="패스_516" data-name="패스 516" d="M25.193,50.792a.155.155,0,0,0,.058.032,1.29,1.29,0,0,0,.269.077,2.247,2.247,0,0,0,.241.039h.488l.181-.013a2.124,2.124,0,0,0,.232-.024,2.268,2.268,0,0,0,.237-.041h.041l.071-.019a1.252,1.252,0,0,0,.3-.112.5.5,0,0,0,.073-.043l.026-.019h0a.6.6,0,0,0-.256-.161,1.787,1.787,0,0,0-.353-.082,2.758,2.758,0,0,0-.355-.022h-.265a1.883,1.883,0,0,0-.3.037,2.5,2.5,0,0,0-.31.075,1.116,1.116,0,0,0-.191.077.932.932,0,0,0-.1.06A.378.378,0,0,0,25.193,50.792Z" fill="#263238"/>
        <path id="패스_517" data-name="패스 517" d="M25.184,50.592a.686.686,0,0,1,.069-.069,1.748,1.748,0,0,1,.806-.282,2.429,2.429,0,0,1,.484-.026,1.879,1.879,0,0,1,.806.187.544.544,0,0,1,.077.062.146.146,0,0,1,.015.194l-.03.024h0a1.906,1.906,0,0,0-1.112-.249,1.762,1.762,0,0,0-1.075.374h0l-.03-.022a.142.142,0,0,1-.011-.194Z" opacity="0.3"/>
        <path id="패스_518" data-name="패스 518" d="M24.857,51.446l.142.69-.43.523a3.049,3.049,0,0,1-1.452.673.71.71,0,0,1-.714-.385l-.069-.133a.86.86,0,0,1-.069-.187.645.645,0,0,1,.335-.766l1.039-.914a12.384,12.384,0,0,1,1.262-.161C25.032,50.775,24.883,51.319,24.857,51.446Z" fill="#b55b52"/>
      </g>
    </g>
    <g id="freepik--speech-bubble-3--inject-1">
      <g id="freepik--freepik--speech-bubbles--inject-120--inject-1">
        <path id="패스_519" data-name="패스 519" d="M77.11,41.354l.755,7.109a.683.683,0,0,1,0,.133.813.813,0,0,1-.845.781H75.4a8.279,8.279,0,0,0,1.83,2.366,6.98,6.98,0,0,1-4.086-2.378l-11.593-.071a1.075,1.075,0,0,1-1.037-.927l-.731-7.116a.715.715,0,0,1,0-.135.813.813,0,0,1,.845-.781l15.462.092a1.075,1.075,0,0,1,1.019.927Z" fill="#2ba5f7"/>
        <path id="패스_520" data-name="패스 520" d="M77.563,51.889l-.342-.047a7.172,7.172,0,0,1-4.105-2.381L61.573,49.39a1.172,1.172,0,0,1-1.142-1.019l-.759-7.112a.874.874,0,0,1,0-.151.927.927,0,0,1,.957-.884l15.458.092a1.172,1.172,0,0,1,1.14,1.021h0l.757,7.107a.875.875,0,0,1,0,.151.92.92,0,0,1-.957.884H75.57a8.94,8.94,0,0,0,1.744,2.178ZM60.575,40.442a.7.7,0,0,0-.482.187.714.714,0,0,0-.226.49.526.526,0,0,0,0,.116l.776,7.112a.957.957,0,0,0,.931.83l11.643.071.032.039a6.925,6.925,0,0,0,3.656,2.267,7.106,7.106,0,0,1-1.589-2.15l-.049-.144h1.77a.71.71,0,0,0,.738-.677.7.7,0,0,0,0-.116l-.757-7.109a.959.959,0,0,0-.931-.832l-15.458-.092Z" fill="#2ba5f7"/>
      </g>
      <rect id="사각형_125" data-name="사각형 125" width="8.611" height="0.215" transform="translate(67.065 42.231)" fill="#fff"/>
      <rect id="사각형_126" data-name="사각형 126" width="3.112" height="0.215" transform="translate(62.682 42.231)" fill="#fff"/>
      <rect id="사각형_127" data-name="사각형 127" width="3.819" height="0.215" transform="translate(72.265 44.091)" fill="#fff"/>
      <rect id="사각형_128" data-name="사각형 128" width="5" height="0.215" transform="translate(65.904 44.091)" fill="#fff"/>
      <rect id="사각형_129" data-name="사각형 129" width="3.043" height="0.215" transform="translate(61.691 44.091)" fill="#fff"/>
      <rect id="사각형_130" data-name="사각형 130" width="5.892" height="0.215" transform="translate(70.405 45.951)" fill="#fff"/>
      <rect id="사각형_131" data-name="사각형 131" width="2.684" height="0.215" transform="translate(66.592 45.951)" fill="#fff"/>
      <rect id="사각형_132" data-name="사각형 132" width="2.355" height="0.215" transform="translate(64.239 45.951)" fill="#fff"/>
      <rect id="사각형_133" data-name="사각형 133" width="1.699" height="0.215" transform="translate(61.906 45.951)" fill="#fff"/>
      <rect id="사각형_134" data-name="사각형 134" width="2.52" height="0.215" transform="translate(62.078 47.812)" fill="#fff"/>
    </g>
    <g id="freepik--speech-bubble-2--inject-1">
      <g id="freepik--freepik-speech-bubbles-inject-120--inject-1">
        <path id="패스_521" data-name="패스 521" d="M56.085,32.354l15.46-.092a.815.815,0,0,1,.845.783.7.7,0,0,1,0,.133l-.757,7.109a1.075,1.075,0,0,1-1.037.927L59,41.283a6.991,6.991,0,0,1-4.082,2.372,8.273,8.273,0,0,0,1.83-2.366l-1.619.011a.815.815,0,0,1-.845-.783.692.692,0,0,1,0-.133l.755-7.1a1.075,1.075,0,0,1,1.043-.933Z" fill="#fff"/>
        <path id="패스_522" data-name="패스 522" d="M54.594,43.816l.254-.232a8.791,8.791,0,0,0,1.744-2.178H55.134a.925.925,0,0,1-.955-.886.882.882,0,0,1,0-.151l.757-7.1a1.174,1.174,0,0,1,1.138-1.024h0l15.462-.092a.929.929,0,0,1,.953.886.884.884,0,0,1,0,.151l-.757,7.1a1.176,1.176,0,0,1-1.14,1.024l-11.546.069a7.161,7.161,0,0,1-4.112,2.378ZM56.9,41.188l-.049.144a7.154,7.154,0,0,1-1.587,2.15,6.92,6.92,0,0,0,3.656-2.267l.032-.039L70.6,41.109a.961.961,0,0,0,.931-.834l.757-7.107a.712.712,0,0,0-.729-.8l-15.473.1a.959.959,0,0,0-.929.834L54.4,40.4a.739.739,0,0,0,0,.118.712.712,0,0,0,.733.68Z" fill="#2ba5f7"/>
      </g>
      <rect id="사각형_135" data-name="사각형 135" width="6.972" height="0.215" transform="translate(58.274 33.801)" fill="#2ba5f7"/>
      <rect id="사각형_136" data-name="사각형 136" width="4.208" height="0.215" transform="translate(66.873 33.801)" fill="#2ba5f7"/>
      <rect id="사각형_137" data-name="사각형 137" width="3.819" height="0.215" transform="translate(56.229 35.661)" fill="#2ba5f7"/>
      <rect id="사각형_138" data-name="사각형 138" width="9.213" height="0.215" transform="translate(61.409 35.661)" fill="#2ba5f7"/>
      <rect id="사각형_139" data-name="사각형 139" width="9.705" height="0.215" transform="translate(56.014 37.522)" fill="#2ba5f7"/>
      <rect id="사각형_140" data-name="사각형 140" width="3.172" height="0.215" transform="translate(67.235 37.522)" fill="#2ba5f7"/>
      <rect id="사각형_141" data-name="사각형 141" width="2.52" height="0.215" transform="translate(55.859 39.382)" fill="#2ba5f7"/>
    </g>
    <g id="freepik--speech-bubble-1--inject-1">
      <g id="freepik--freepik-speech-bubbles-inject-120--inject-1-2" data-name="freepik--freepik-speech-bubbles-inject-120--inject-1">
        <path id="패스_523" data-name="패스 523" d="M28.771,34.726l15.46-.092a.815.815,0,0,1,.845.783.931.931,0,0,1,0,.133l-.759,7.107a1.075,1.075,0,0,1-1.034.927l-11.6.071A6.98,6.98,0,0,1,27.6,46.033a8.24,8.24,0,0,0,1.83-2.366H27.814a.811.811,0,0,1-.845-.781.912.912,0,0,1,0-.133l.757-7.1a1.075,1.075,0,0,1,1.045-.931Z" fill="#263238"/>
      </g>
      <rect id="사각형_142" data-name="사각형 142" width="6.972" height="0.215" transform="translate(36.201 36.246)" fill="#2ba5f7"/>
      <rect id="사각형_143" data-name="사각형 143" width="4.208" height="0.215" transform="translate(30.367 36.246)" fill="#2ba5f7"/>
      <rect id="사각형_144" data-name="사각형 144" width="3.819" height="0.215" transform="translate(39.354 38.107)" fill="#2ba5f7"/>
      <rect id="사각형_145" data-name="사각형 145" width="9.213" height="0.215" transform="translate(28.78 38.107)" fill="#2ba5f7"/>
      <rect id="사각형_146" data-name="사각형 146" width="9.705" height="0.215" transform="translate(33.468 39.967)" fill="#2ba5f7"/>
      <rect id="사각형_147" data-name="사각형 147" width="3.172" height="0.215" transform="translate(28.78 39.967)" fill="#2ba5f7"/>
      <rect id="사각형_148" data-name="사각형 148" width="2.348" height="0.215" transform="translate(28.78 41.827)" fill="#2ba5f7"/>
    </g>
    <g id="freepik--Table--inject-1">
      <rect id="사각형_149" data-name="사각형 149" width="2.409" height="3.222" rx="0.454" transform="matrix(-1, 0.01, -0.01, -1, 59.768, 63.14)" fill="#2ba5f7"/>
      <path id="패스_524" data-name="패스 524" d="M56.71,61.884v-.606a.9.9,0,0,1,.892-.908h.2l.022,2.406h-.2a.9.9,0,0,1-.914-.892Zm.4-.611v.606a.5.5,0,0,0,.3.449l-.013-1.505a.5.5,0,0,0-.284.449Z" fill="#2ba5f7"/>
      <g id="그룹_24" data-name="그룹 24" opacity="0.7">
        <rect id="사각형_150" data-name="사각형 150" width="2.409" height="3.222" rx="0.454" transform="matrix(-1, 0.01, -0.01, -1, 59.768, 63.14)" fill="#fff"/>
        <path id="패스_525" data-name="패스 525" d="M56.71,61.884v-.606a.9.9,0,0,1,.892-.908h.2l.022,2.406h-.2a.9.9,0,0,1-.914-.892Zm.4-.611v.606a.5.5,0,0,0,.3.449l-.013-1.505a.5.5,0,0,0-.284.449Z" fill="#fff"/>
      </g>
      <path id="패스_526" data-name="패스 526" d="M76.041,63.033H71.525a.176.176,0,0,1-.176-.176h0a.176.176,0,0,1,.176-.176h4.516a.178.178,0,0,1,.176.178h0a.176.176,0,0,1-.176.174Z" fill="#2ba5f7"/>
      <path id="패스_527" data-name="패스 527" d="M76.041,63.033H71.525a.176.176,0,0,1-.176-.176h0a.176.176,0,0,1,.176-.176h4.516a.178.178,0,0,1,.176.178h0a.176.176,0,0,1-.176.174Z" opacity="0.4"/>
      <path id="패스_528" data-name="패스 528" d="M71.495,63.031l-9.4.015a.174.174,0,0,1-.174-.176h0a.176.176,0,0,1,.176-.176l9.4-.015a.174.174,0,0,1,.174.176h0A.176.176,0,0,1,71.495,63.031Z" fill="#263238"/>
      <path id="패스_529" data-name="패스 529" d="M71.241,62.676l-8.656.039a.624.624,0,0,1-.606-.566l-.355-4.439a.508.508,0,0,1,.516-.559l8.656-.039a.624.624,0,0,1,.606.566l.355,4.439a.508.508,0,0,1-.516.559Z" fill="#2ba5f7"/>
      <path id="패스_530" data-name="패스 530" d="M71.241,62.676l-8.656.039a.624.624,0,0,1-.606-.566l-.355-4.439a.508.508,0,0,1,.516-.559l8.656-.039a.624.624,0,0,1,.606.566l.355,4.439a.508.508,0,0,1-.516.559Z" opacity="0.4"/>
      <path id="패스_531" data-name="패스 531" d="M70.983,62.654l-8.656.039a.624.624,0,0,1-.609-.566l-.355-4.439a.508.508,0,0,1,.516-.559l8.656-.039a.624.624,0,0,1,.606.566L71.5,62.1a.51.51,0,0,1-.516.559Z" fill="#2ba5f7"/>
      <path id="패스_532" data-name="패스 532" d="M70.983,62.654l-8.656.039a.624.624,0,0,1-.609-.566l-.355-4.439a.508.508,0,0,1,.516-.559l8.656-.039a.624.624,0,0,1,.606.566L71.5,62.1a.51.51,0,0,1-.516.559Z" fill="#fff" opacity="0.5"/>
      <path id="패스_533" data-name="패스 533" d="M65.19,60.039a.987.987,0,0,0,.944.905.8.8,0,0,0,.826-.86.985.985,0,0,0-.944-.9.8.8,0,0,0-.826.858Z" fill="#fff"/>
      <path id="패스_534" data-name="패스 534" d="M79.037,60.719l.088.159a.587.587,0,0,1,.075.286v.9c0,.551.6,1,1.344,1h.2a1.424,1.424,0,0,0,1.217-.583.43.43,0,0,0,.17-.075l.523-.389a.271.271,0,0,0,.123-.215v-.488c0-.168-.187-.305-.413-.305h-.275c-.015-.032.015-.084.056-.135l.009-.019a1.291,1.291,0,0,1,.142-.138H82.3s-.024-.114-.3-.056c-.08.017-.155.037-.215.056h-.052q-.688-.012-1.376-.017c.017,0-.015,0,0,0a1.15,1.15,0,0,0-.7.017h-.095c-.069-.019-.146-.039-.226-.056C79.06,60.6,79.037,60.719,79.037,60.719Zm3.032,1.553c0-.011.011-.723.013-1.028a.166.166,0,0,1,.183-.133h.114c.142,0,.258.088.258.194v.445c0,.146,0,.14-.146.245Z" fill="#2ba5f7"/>
      <path id="패스_535" data-name="패스 535" d="M82.363,61.011h-.28c-.015-.032.015-.084.056-.135l.009-.017a1.108,1.108,0,0,1,.144-.138h0s-.024-.116-.3-.056c-.08.017-.155.037-.215.056h-.052q-.688-.012-1.376-.017a1.151,1.151,0,0,0-.7.017h-.086c-.069-.019-.146-.039-.226-.056-.275-.06-.3.056-.3.056l.088.159a.587.587,0,0,1,.075.286v.9c0,.551.6,1,1.344,1h.2a1.424,1.424,0,0,0,1.217-.583.469.469,0,0,0,.17-.073l.523-.391a.277.277,0,0,0,.123-.215v-.488A.387.387,0,0,0,82.363,61.011Zm.277.738c0,.146,0,.14-.146.245l-.43.277c0-.011.011-.723.013-1.028a.166.166,0,0,1,.183-.133h.114c.144,0,.258.088.258.194Z" fill="#fff" opacity="0.7"/>
      <path id="패스_536" data-name="패스 536" d="M19.535,64.446,16.924,90.084h.834l4.372-25.638Z" fill="#2ba5f7"/>
      <path id="패스_537" data-name="패스 537" d="M79.578,64.446l4.647,25.638h.837L82.174,64.446Z" fill="#2ba5f7"/>
      <path id="패스_538" data-name="패스 538" d="M22.214,90.109h.834l4.738-25.664H25.193Z" fill="#2ba5f7"/>
      <path id="패스_539" data-name="패스 539" d="M87.5,64.446H84.9l5.116,25.664h.834Z" fill="#2ba5f7"/>
      <path id="패스_540" data-name="패스 540" d="M92.78,63.891a.817.817,0,0,0-.841-.794H15.092a.794.794,0,1,0,0,1.585H91.939A.817.817,0,0,0,92.78,63.891Z" fill="#2ba5f7"/>
      <g id="그룹_25" data-name="그룹 25" opacity="0.6">
        <path id="패스_541" data-name="패스 541" d="M19.535,64.446,16.924,90.084h.834l4.372-25.638Z" fill="#fff"/>
        <path id="패스_542" data-name="패스 542" d="M79.578,64.446l4.647,25.638h.837L82.174,64.446Z" fill="#fff"/>
        <path id="패스_543" data-name="패스 543" d="M22.214,90.109h.834l4.738-25.664H25.193Z" fill="#fff"/>
        <path id="패스_544" data-name="패스 544" d="M87.5,64.446H84.9l5.116,25.664h.834Z" fill="#fff"/>
        <path id="패스_545" data-name="패스 545" d="M92.78,63.891a.817.817,0,0,0-.841-.794H15.092a.794.794,0,1,0,0,1.585H91.939A.817.817,0,0,0,92.78,63.891Z" fill="#fff"/>
      </g>
    </g>
  </g>
</svg>
