<svg xmlns="http://www.w3.org/2000/svg" xmlns:xlink="http://www.w3.org/1999/xlink" width="112" height="105" viewBox="0 0 112 105">
  <defs>
    <clipPath id="clip-path">
      <rect id="사각형_152" data-name="사각형 152" width="112" height="105" transform="translate(-0.481)" fill="#fff" stroke="#707070" stroke-width="1"/>
    </clipPath>
  </defs>
  <g id="마스크_그룹_2" data-name="마스크 그룹 2" transform="translate(0.481)" clip-path="url(#clip-path)">
    <g id="web-design-svgrepo-com_6_" data-name="web-design-svgrepo-com (6)" transform="translate(0 0.063)">
      <path id="패스_676" data-name="패스 676" d="M45.455,37.031H85.7a3.216,3.216,0,0,1,3.214,3.214v63.028H23.09L0,99.58V40.245a3.216,3.216,0,0,1,3.214-3.214Z" transform="translate(0 -3.563)" fill="#f2f2f2"/>
      <path id="패스_677" data-name="패스 677" d="M45.455,43.625H82.318V92.985H6.594V43.625Z" transform="translate(0 -3.563)" fill="#2ba5f7"/>
      <path id="패스_678" data-name="패스 678" d="M33.4,108.437H6.558A6.559,6.559,0,0,1,0,101.88v-2.3H27.511v2.973A5.884,5.884,0,0,0,33.4,108.437Z" transform="translate(0 -3.563)" fill="#ccc"/>
      <path id="패스_679" data-name="패스 679" d="M112,99.58v2.973a5.884,5.884,0,0,1-5.885,5.885H28.975a5.884,5.884,0,0,1-5.885-5.885V99.58H112Z" transform="translate(0 -3.563)" fill="#e6e6e6"/>
      <path id="패스_680" data-name="패스 680" d="M27.988,56.526a3.933,3.933,0,0,1,3.932,3.932V69.3a3.932,3.932,0,1,1-7.863,0V60.457A3.933,3.933,0,0,1,27.988,56.526Z" transform="translate(0 -3.563)" fill="#ccc"/>
      <g id="그룹_36" data-name="그룹 36" transform="translate(24.056 52.963)">
        <path id="패스_681" data-name="패스 681" d="M66.7,72.843v4.916a5.874,5.874,0,0,1-2.844,5.056C62.075,83.874,61.2,85.7,58.169,85.7c-4.266,0-4.266-3.626-8.529-3.626S45.374,85.7,41.111,85.7s-4.263-3.626-8.526-3.626a5.366,5.366,0,0,0-2.533.567,4.076,4.076,0,0,1-6-3.567V68.911a3.933,3.933,0,0,0,3.932,3.932Z" transform="translate(-24.056 -56.526)" fill="#f95428"/>
        <path id="패스_682" data-name="패스 682" d="M74.559,60.457V69.3a3.931,3.931,0,0,1-3.932,3.932H27.988A3.935,3.935,0,0,0,31.919,69.3V60.457a3.933,3.933,0,0,0-3.932-3.932H70.627A3.931,3.931,0,0,1,74.559,60.457Z" transform="translate(-24.056 -56.526)" fill="#f95428"/>
      </g>
      <path id="패스_683" data-name="패스 683" d="M26.646,66.821H19.933a5.207,5.207,0,0,1-5.2-5.2V53.959a5.208,5.208,0,0,1,5.2-5.2H42.2a1.317,1.317,0,0,0,1.316-1.316V31.356a1.943,1.943,0,0,1,3.885,0V47.44a5.207,5.207,0,0,1-5.2,5.2H19.933a1.319,1.319,0,0,0-1.316,1.318V61.62a1.317,1.317,0,0,0,1.316,1.316h6.713a1.942,1.942,0,0,1,0,3.885Z" transform="translate(0 -3.563)" fill="#666"/>
      <path id="패스_684" data-name="패스 684" d="M52.638,29.8H49.956V5.5a1.935,1.935,0,0,0-1.935-1.935H42.389A1.935,1.935,0,0,0,40.453,5.5V29.8H37.771a2,2,0,0,0-2.023,1.883,1.943,1.943,0,0,0,1.942,2H52.72a1.943,1.943,0,0,0,1.942-2A2,2,0,0,0,52.638,29.8Z" transform="translate(0 -3.563)" fill="#f7b239"/>
      <path id="패스_685" data-name="패스 685" d="M66.7,72.843v3.105H24.056V68.911a3.933,3.933,0,0,0,3.932,3.932Z" transform="translate(0 -3.563)" fill="#e54728"/>
    </g>
  </g>
</svg>
