<svg id="placeholder" xmlns="http://www.w3.org/2000/svg" width="112" height="112" viewBox="0 0 112 112">
  <g id="web-development-svgrepo-com">
    <circle id="타원_9" data-name="타원 9" cx="56" cy="56" r="56" fill="#2ba5f7"/>
    <ellipse id="타원_10" data-name="타원 10" cx="39.878" cy="3.15" rx="39.878" ry="3.15" transform="translate(16.122 89.075)" fill="#edb937"/>
    <path id="패스_31" data-name="패스 31" d="M14.438,14.7H97.563a4.976,4.976,0,0,1,4.966,4.966V70.875H9.472V19.666A4.976,4.976,0,0,1,14.438,14.7Z" fill="#666"/>
    <g id="그룹_8" data-name="그룹 8">
      <path id="패스_32" data-name="패스 32" d="M12.841,67.506H99.159V19.666a1.606,1.606,0,0,0-1.6-1.6H14.438a1.606,1.606,0,0,0-1.6,1.6V67.506Z" fill="#fff"/>
      <path id="패스_33" data-name="패스 33" d="M102.528,70.875V76.3a5.256,5.256,0,0,1-5.469,4.966H14.941A5.242,5.242,0,0,1,9.472,76.3V70.875Z" fill="#fff"/>
    </g>
    <circle id="타원_11" data-name="타원 11" cx="1.706" cy="1.706" r="1.706" transform="translate(54.294 74.156)" fill="#b6b6b8"/>
    <path id="패스_34" data-name="패스 34" d="M66.741,89.1l7.9,2.538H37.362L43.728,89.1V81.287H66.719l.022,7.809Z" fill="#c2c2c4"/>
    <path id="패스_35" data-name="패스 35" d="M43.75,89.1H66.741l7.9,2.538v1.094H37.362V91.634Z" fill="#ecf0f1"/>
    <path id="패스_36" data-name="패스 36" d="M43.75,81.287H66.741V89.1Z" fill="#919191"/>
    <rect id="사각형_13" data-name="사각형 13" width="8.903" height="1.531" transform="translate(16.581 21.328)" fill="#20d0c2"/>
    <rect id="사각형_14" data-name="사각형 14" width="15.816" height="1.531" transform="translate(26.534 21.328)" fill="#ff5b62"/>
    <g id="그룹_9" data-name="그룹 9">
      <rect id="사각형_15" data-name="사각형 15" width="13.453" height="1.531" transform="translate(43.116 21.328)" fill="#fad24d"/>
      <rect id="사각형_16" data-name="사각형 16" width="4.725" height="1.531" transform="translate(25.944 27.65)" fill="#fad24d"/>
    </g>
    <rect id="사각형_17" data-name="사각형 17" width="8.378" height="1.531" transform="translate(31.238 27.65)" fill="#ff5b62"/>
    <g id="그룹_10" data-name="그룹 10">
      <rect id="사각형_18" data-name="사각형 18" width="7.131" height="1.531" transform="translate(40.031 27.65)" fill="#20d0c2"/>
      <rect id="사각형_19" data-name="사각형 19" width="8.313" height="1.531" transform="translate(16.538 30.341)" fill="#20d0c2"/>
    </g>
    <rect id="사각형_20" data-name="사각형 20" width="14.722" height="1.531" transform="translate(25.791 30.341)" fill="#fad24d"/>
    <rect id="사각형_21" data-name="사각형 21" width="8.313" height="1.531" transform="translate(25.397 33.556)" fill="#ff5b62"/>
    <rect id="사각형_22" data-name="사각형 22" width="14.722" height="1.531" transform="translate(34.672 33.556)" fill="#20d0c2"/>
    <rect id="사각형_23" data-name="사각형 23" width="8.313" height="1.531" transform="translate(18.025 36.641)" fill="#fad24d"/>
    <rect id="사각형_24" data-name="사각형 24" width="5.95" height="1.531" transform="translate(27.431 36.641)" fill="#20d0c2"/>
    <rect id="사각형_25" data-name="사각형 25" width="16.691" height="1.531" transform="translate(34.759 36.641)" fill="#ff5b62"/>
    <g id="그룹_11" data-name="그룹 11">
      <rect id="사각형_26" data-name="사각형 26" width="5.95" height="1.531" transform="translate(52.675 36.641)" fill="#20d0c2"/>
      <rect id="사각형_27" data-name="사각형 27" width="22.225" height="1.531" transform="translate(16.231 39.856)" fill="#20d0c2"/>
    </g>
    <rect id="사각형_28" data-name="사각형 28" width="5.95" height="1.531" transform="translate(39.441 39.856)" fill="#fad24d"/>
    <rect id="사각형_29" data-name="사각형 29" width="8.313" height="1.531" transform="translate(46.222 39.856)" fill="#ff5b62"/>
    <g id="그룹_12" data-name="그룹 12">
      <rect id="사각형_30" data-name="사각형 30" width="0.613" height="1.837" transform="translate(26.337 24.303)" fill="#fff"/>
      <rect id="사각형_31" data-name="사각형 31" width="0.613" height="1.837" transform="translate(42.263 30.341)" fill="#fff"/>
    </g>
    <rect id="사각형_32" data-name="사각형 32" width="8.903" height="1.531" transform="translate(16.581 44.406)" fill="#20d0c2"/>
    <rect id="사각형_33" data-name="사각형 33" width="15.816" height="1.531" transform="translate(26.534 44.406)" fill="#ff5b62"/>
    <g id="그룹_13" data-name="그룹 13">
      <rect id="사각형_34" data-name="사각형 34" width="13.453" height="1.531" transform="translate(43.116 44.406)" fill="#fad24d"/>
      <rect id="사각형_35" data-name="사각형 35" width="4.725" height="1.531" transform="translate(25.944 50.706)" fill="#fad24d"/>
    </g>
    <rect id="사각형_36" data-name="사각형 36" width="8.378" height="1.531" transform="translate(31.238 50.706)" fill="#ff5b62"/>
    <g id="그룹_14" data-name="그룹 14">
      <rect id="사각형_37" data-name="사각형 37" width="7.131" height="1.531" transform="translate(40.031 50.706)" fill="#20d0c2"/>
      <rect id="사각형_38" data-name="사각형 38" width="8.313" height="1.531" transform="translate(16.538 53.419)" fill="#20d0c2"/>
    </g>
    <rect id="사각형_39" data-name="사각형 39" width="14.722" height="1.531" transform="translate(25.791 53.419)" fill="#fad24d"/>
    <g id="그룹_15" data-name="그룹 15">
      <rect id="사각형_40" data-name="사각형 40" width="0.613" height="1.837" transform="translate(26.337 47.381)" fill="#fff"/>
      <rect id="사각형_41" data-name="사각형 41" width="0.613" height="1.837" transform="translate(42.263 53.419)" fill="#fff"/>
    </g>
    <g id="그룹_16" data-name="그룹 16">
      <rect id="사각형_42" data-name="사각형 42" width="32.244" height="7.438" transform="translate(63.481 21.328)" fill="#dce3db"/>
      <path id="패스_37" data-name="패스 37" d="M63.481,29.816H78.838v9.822H63.481Z" fill="#dce3db"/>
      <path id="패스_38" data-name="패스 38" d="M80.369,29.816H95.725v9.822H80.369V29.816Z" fill="#dce3db"/>
      <path id="패스_39" data-name="패스 39" d="M63.525,41.038H95.681v.481H63.525Zm0,4.484H84.656V46H63.547v-.481Zm0-1.488H95.681v.481H63.525Zm0-1.509H95.681v.481H63.525Z" fill="#dce3db"/>
      <path id="패스_40" data-name="패스 40" d="M63.438,47.163h9.581v9.494H63.438Zm22.75,0h9.581v9.494H86.188Zm-11.375,0h9.581v9.494H74.813Z" fill="#dce3db"/>
      <path id="패스_41" data-name="패스 41" d="M63.525,57.991H95.681v.481H63.525Zm0,4.484H84.656v.481H63.547v-.481Zm0-1.488H95.681v.481H63.525Zm0-1.509H95.681v.481H63.525Z" fill="#dce3db"/>
    </g>
  </g>
</svg>
