<svg xmlns="http://www.w3.org/2000/svg" xmlns:xlink="http://www.w3.org/1999/xlink" width="84.8" height="80" viewBox="0 0 84.8 80">
  <defs>
    <clipPath id="clip-path">
      <rect id="사각형_151" data-name="사각형 151" width="84.8" height="80" transform="translate(136.1 1244)" fill="#fff"/>
    </clipPath>
    <clipPath id="clip-path-2">
      <path id="패스_597" data-name="패스 597" d="M43.391,38.215a11.588,11.588,0,0,1-.836,1.351A11.377,11.377,0,0,1,28,42.981c-.251-.132-.5-.273-.731-.421s-.464-.3-.684-.462c-.267-.193-.524-.4-.769-.614h0a.3.3,0,0,1-.043-.04h0A11.392,11.392,0,1,1,43.4,38.224Z" fill="#2ba5f7" stroke="#263238" stroke-linecap="round" stroke-linejoin="round" stroke-width="0.181"/>
    </clipPath>
    <clipPath id="clip-path-3">
      <path id="패스_636" data-name="패스 636" d="M47.163,73.6a1.47,1.47,0,0,1-.614-.168,21.835,21.835,0,0,1-6.9-6.149,22.706,22.706,0,0,1-1.54-2.274l.737-3.157a8.6,8.6,0,0,0,3.48,3.581c2.787,1.775,6.1,2.36,7.168,4.154C50.447,71.153,48.776,73.682,47.163,73.6Z" fill="#fff" stroke="#263238" stroke-linecap="round" stroke-linejoin="round" stroke-width="0.181"/>
    </clipPath>
    <clipPath id="clip-path-4">
      <path id="패스_643" data-name="패스 643" d="M55.362,69s-1.14-.034-2.664.016c-2.3.072-5.488.332-6.944,1.179l-.069-.023-1.333-.466-.027-.04a12.877,12.877,0,0,0-5.057-4.363l-4-11.182a8.478,8.478,0,0,1,6.424,3.933l1.14.412s6.781-2.008,10.577-1.286Z" fill="#2ba5f7" stroke="#263238" stroke-linecap="round" stroke-linejoin="round" stroke-width="0.181"/>
    </clipPath>
    <clipPath id="clip-path-5">
      <path id="패스_650" data-name="패스 650" d="M64.076,77.27c-1.147.312-2.393-1.7-3.913-3.9h0a17.846,17.846,0,0,0-3.419-3.973c-.1-.078-.208-.154-.312-.226l.755-3.792c1.568.822,2.539,2.138,4.166,3.491,2.619,2.18,4.939,3.518,5.582,4.482S66.041,76.734,64.076,77.27Z" fill="#fff" stroke="#263238" stroke-linecap="round" stroke-linejoin="round" stroke-width="0.181"/>
    </clipPath>
    <clipPath id="clip-path-6">
      <path id="패스_654" data-name="패스 654" d="M57.609,69.019a.627.627,0,0,1-.361.293,1.262,1.262,0,0,1-.125.042h-.034a11.885,11.885,0,0,1-3.939-.341,12.691,12.691,0,0,1-1.894-1.049,4.915,4.915,0,0,1-.2-.488l-.049-.143s-.643-.361-.722-.643-.215-.361.181-.412,2.528,0,2.528,0l-2.321-.946a8.322,8.322,0,0,1-1.68-1.047c-.143-.273-.321-.453.464-.345s2.5.607,2.5.607l1.353.287-1.344-.572s-2.644-.32-2.144-1.141h1.5a15.492,15.492,0,0,1,2.528.321c.437.134,3.327,1.929,3.327,1.929" fill="#fff" stroke="#263238" stroke-linecap="round" stroke-linejoin="round" stroke-width="0.181"/>
    </clipPath>
    <clipPath id="clip-path-7">
      <path id="패스_658" data-name="패스 658" d="M24.7,75.419l6.613,1.987,12.1-2.761s-7.39-2.1-7.458-2.046S24.7,75.419,24.7,75.419Z" fill="#2ba5f7" stroke="#263238" stroke-linecap="round" stroke-linejoin="round" stroke-width="0.181"/>
    </clipPath>
    <clipPath id="clip-path-8">
      <path id="패스_662" data-name="패스 662" d="M24.8,73.089c-.464.033-.58,1.7-.1,2.33L35.385,73.2l.856-2.026Z" fill="#2ba5f7" stroke="#263238" stroke-linecap="round" stroke-linejoin="round" stroke-width="0.181"/>
    </clipPath>
    <clipPath id="clip-path-9">
      <path id="패스_670" data-name="패스 670" d="M25.138,73.32a1.593,1.593,0,0,1,.081,1.987,1.88,1.88,0,0,1-.081-1.987Z" fill="#263238" stroke="#263238" stroke-linecap="round" stroke-linejoin="round" stroke-width="0.181"/>
    </clipPath>
    <clipPath id="clip-path-10">
      <path id="패스_674" data-name="패스 674" d="M49.856,75.961l11.549.473L60.28,80.409l-14.207-.542Z" fill="#fff" stroke="#263238" stroke-linecap="round" stroke-linejoin="round" stroke-width="0.181"/>
    </clipPath>
  </defs>
  <g id="마스크_그룹_1" data-name="마스크 그룹 1" transform="translate(-136.1 -1244)" clip-path="url(#clip-path)">
    <g id="Learning-bro" transform="translate(132.427 1238.742)">
      <g id="freepik--background-simple--inject-57">
        <path id="패스_546" data-name="패스 546" d="M12.268,30.175s-5.035,13,2.041,26.1S35.958,76.28,47.622,82.195,71.4,85.229,77.154,75.542s-2.138-16.6-2.149-30.415,2.068-17.471-5.418-29.14-25.836-14.254-39.712-5.6S12.268,30.175,12.268,30.175Z" fill="#fff" opacity="0.7"/>
        <path id="패스_547" data-name="패스 547" d="M11.5,25.131C16.326,15.769,25.283,8.686,36.435,7.69a30.975,30.975,0,0,1,21.442,6.2,27.443,27.443,0,0,1,7.547,8.748c2.062,3.919,2.664,8.437,4.786,12.338,2.638,4.849,7.594,6.85,10.922,11.04,2.74,3.451,3.68,8.076,3.366,12.472a25.5,25.5,0,0,1-12.19,19.753c-5.846,3.476-12.892,4.435-19.685,4.119A51.224,51.224,0,0,1,23.472,71.952,41.26,41.26,0,0,1,7.888,45.526,34.619,34.619,0,0,1,11.5,25.131Z" fill="#2ba5f7"/>
        <path id="패스_548" data-name="패스 548" d="M11.5,25.131C16.326,15.769,25.283,8.686,36.435,7.69a30.975,30.975,0,0,1,21.442,6.2,27.443,27.443,0,0,1,7.547,8.748c2.062,3.919,2.664,8.437,4.786,12.338,2.638,4.849,7.594,6.85,10.922,11.04,2.74,3.451,3.68,8.076,3.366,12.472a25.5,25.5,0,0,1-12.19,19.753c-5.846,3.476-12.892,4.435-19.685,4.119A51.224,51.224,0,0,1,23.472,71.952,41.26,41.26,0,0,1,7.888,45.526,34.619,34.619,0,0,1,11.5,25.131Z" fill="#fff" opacity="0.7"/>
      </g>
      <g id="freepik--Elements--inject-57">
        <path id="패스_549" data-name="패스 549" d="M8.32,28.553c.213.845.108-.71.526-2.61S9.98,24.813,9.98,24.813" fill="none" stroke="#263238" stroke-linecap="round" stroke-linejoin="round" stroke-width="0.181"/>
        <line id="선_9" data-name="선 9" y1="0.536" x2="1.309" transform="translate(8.19 26.076)" fill="none" stroke="#263238" stroke-linecap="round" stroke-linejoin="round" stroke-width="0.181"/>
        <path id="패스_550" data-name="패스 550" d="M10.581,25.431s-.782,1.625.4,2.308" fill="none" stroke="#263238" stroke-linecap="round" stroke-linejoin="round" stroke-width="0.181"/>
        <path id="패스_551" data-name="패스 551" d="M11.692,24.976a1.6,1.6,0,0,1,.484,2.272" fill="none" stroke="#263238" stroke-linecap="round" stroke-linejoin="round" stroke-width="0.181"/>
        <line id="선_10" data-name="선 10" x2="0.926" y2="0.675" transform="translate(10.807 25.98)" fill="none" stroke="#263238" stroke-linecap="round" stroke-linejoin="round" stroke-width="0.181"/>
        <line id="선_11" data-name="선 11" x1="0.724" y2="1.154" transform="translate(10.808 25.682)" fill="none" stroke="#263238" stroke-linecap="round" stroke-linejoin="round" stroke-width="0.181"/>
        <circle id="타원_14" data-name="타원 14" cx="1.97" cy="1.97" r="1.97" transform="translate(11.485 44.284) rotate(-80.68)" fill="none" stroke="#263238" stroke-linecap="round" stroke-linejoin="round" stroke-width="0.181"/>
        <circle id="타원_15" data-name="타원 15" cx="2.185" cy="2.185" r="2.185" transform="translate(13.843 41.728) rotate(-11.59)" fill="none" stroke="#263238" stroke-linecap="round" stroke-linejoin="round" stroke-width="0.181"/>
        <line id="선_12" data-name="선 12" x1="0.907" y2="0.323" transform="translate(14.637 41.845)" fill="none" stroke="#263238" stroke-linecap="round" stroke-linejoin="round" stroke-width="0.181"/>
        <line id="선_13" data-name="선 13" x1="1.304" y2="0.471" transform="translate(14.366 42.219)" fill="none" stroke="#263238" stroke-linecap="round" stroke-linejoin="round" stroke-width="0.181"/>
        <line id="선_14" data-name="선 14" x1="1.456" y2="0.56" transform="translate(14.263 42.67)" fill="none" stroke="#263238" stroke-linecap="round" stroke-linejoin="round" stroke-width="0.181"/>
        <line id="선_15" data-name="선 15" x1="1.327" y2="0.607" transform="translate(14.288 43.286)" fill="none" stroke="#263238" stroke-linecap="round" stroke-linejoin="round" stroke-width="0.181"/>
        <line id="선_16" data-name="선 16" x1="1.008" y2="0.419" transform="translate(14.373 43.759)" fill="none" stroke="#263238" stroke-linecap="round" stroke-linejoin="round" stroke-width="0.181"/>
        <path id="패스_552" data-name="패스 552" d="M14.7,39.656c-.056-.181-.7-.293-.722.181s.674.079.872-.181c0,0-.361.486-.209.582" fill="none" stroke="#263238" stroke-linecap="round" stroke-linejoin="round" stroke-width="0.181"/>
        <path id="패스_553" data-name="패스 553" d="M18.24,40.245l-.567,1.179s.284-.591.587-.542c.374.067.125.679-.327.453" fill="none" stroke="#263238" stroke-linecap="round" stroke-linejoin="round" stroke-width="0.181"/>
        <line id="선_17" data-name="선 17" x2="0.89" y2="0.842" transform="translate(79.95 59.5)" fill="none" stroke="#263238" stroke-linecap="round" stroke-linejoin="round" stroke-width="0.181"/>
        <line id="선_18" data-name="선 18" x1="0.746" y2="1.114" transform="translate(80.095 59.279)" fill="none" stroke="#263238" stroke-linecap="round" stroke-linejoin="round" stroke-width="0.181"/>
        <line id="선_19" data-name="선 19" y1="0.332" x2="0.892" transform="translate(81.716 59.267)" fill="none" stroke="#263238" stroke-linecap="round" stroke-linejoin="round" stroke-width="0.181"/>
        <line id="선_20" data-name="선 20" x2="0.542" y2="0.479" transform="translate(83.036 58.339)" fill="none" stroke="#263238" stroke-linecap="round" stroke-linejoin="round" stroke-width="0.181"/>
        <line id="선_21" data-name="선 21" x1="0.686" y2="2.355" transform="translate(83.307 57.762)" fill="none" stroke="#263238" stroke-linecap="round" stroke-linejoin="round" stroke-width="0.181"/>
        <path id="패스_554" data-name="패스 554" d="M42.434,46.271l2.4-1.649L48,44.845l.2,4.024-2.33,1.665L43,50.324Z" fill="none" stroke="#263238" stroke-linecap="round" stroke-linejoin="round" stroke-width="0.181"/>
        <path id="패스_555" data-name="패스 555" d="M43,50.324l2.321-1.67,2.884.215" fill="none" stroke="#263238" stroke-linecap="round" stroke-linejoin="round" stroke-width="0.181"/>
        <line id="선_22" data-name="선 22" x1="0.488" y1="4.031" transform="translate(44.83 44.623)" fill="none" stroke="#263238" stroke-linecap="round" stroke-linejoin="round" stroke-width="0.181"/>
        <path id="패스_556" data-name="패스 556" d="M42.434,46.271l3.166.367L48,44.845" fill="none" stroke="#263238" stroke-linecap="round" stroke-linejoin="round" stroke-width="0.181"/>
        <line id="선_23" data-name="선 23" x2="0.273" y2="3.895" transform="translate(45.6 46.638)" fill="none" stroke="#263238" stroke-linecap="round" stroke-linejoin="round" stroke-width="0.181"/>
        <path id="패스_557" data-name="패스 557" d="M70.4,32.754l-1.062,3.3,3.3-.446Z" fill="none" stroke="#263238" stroke-linecap="round" stroke-linejoin="round" stroke-width="0.181"/>
        <line id="선_24" data-name="선 24" x2="0.591" y2="3.057" transform="translate(70.404 32.754)" fill="none" stroke="#263238" stroke-linecap="round" stroke-linejoin="round" stroke-width="0.181"/>
        <path id="패스_558" data-name="패스 558" d="M70.9,35.322l.386-.061.09.518" fill="none" stroke="#263238" stroke-linecap="round" stroke-linejoin="round" stroke-width="0.181"/>
        <line id="선_25" data-name="선 25" x2="1.651" y2="0.811" transform="translate(28.785 62.947)" fill="none" stroke="#263238" stroke-linecap="round" stroke-linejoin="round" stroke-width="0.181"/>
        <line id="선_26" data-name="선 26" x1="0.473" y2="1.725" transform="translate(29.429 62.328)" fill="none" stroke="#263238" stroke-linecap="round" stroke-linejoin="round" stroke-width="0.181"/>
        <path id="패스_559" data-name="패스 559" d="M30.132,61.486a.249.249,0,0,1,.4.052c.166.26-.159.805-.159.805l.663-.253" fill="none" stroke="#263238" stroke-linecap="round" stroke-linejoin="round" stroke-width="0.181"/>
        <path id="패스_560" data-name="패스 560" d="M41.744,6.14c1.577.887-.229,3.054-.229,4.318s1.806,1.084,2.709,1.445c.361,0,1.084,0,1.064.917" fill="none" stroke="#263238" stroke-linecap="round" stroke-linejoin="round" stroke-width="0.181"/>
        <path id="패스_561" data-name="패스 561" d="M39.987,7.291c.275,1.493,1.987.964,3.038,1.306,1.806.587.8,2.451.265,3.578-.323.672-.645,1.614-.067,2.252" fill="none" stroke="#263238" stroke-linecap="round" stroke-linejoin="round" stroke-width="0.181"/>
        <line id="선_27" data-name="선 27" y1="1.562" x2="1.88" transform="translate(40.218 6.308)" fill="none" stroke="#263238" stroke-linecap="round" stroke-linejoin="round" stroke-width="0.181"/>
        <line id="선_28" data-name="선 28" y1="1.174" x2="1.416" transform="translate(40.955 7.162)" fill="none" stroke="#263238" stroke-linecap="round" stroke-linejoin="round" stroke-width="0.181"/>
        <line id="선_29" data-name="선 29" y1="0.939" x2="1.196" transform="translate(41.787 8.585)" fill="none" stroke="#263238" stroke-linecap="round" stroke-linejoin="round" stroke-width="0.181"/>
        <line id="선_30" data-name="선 30" y1="1.68" x2="2.337" transform="translate(41.54 9.25)" fill="none" stroke="#263238" stroke-linecap="round" stroke-linejoin="round" stroke-width="0.181"/>
        <line id="선_31" data-name="선 31" y1="1.196" x2="1.629" transform="translate(42.436 10.389)" fill="none" stroke="#263238" stroke-linecap="round" stroke-linejoin="round" stroke-width="0.181"/>
        <line id="선_32" data-name="선 32" y1="1.658" x2="2.035" transform="translate(43.129 12.468)" fill="none" stroke="#263238" stroke-linecap="round" stroke-linejoin="round" stroke-width="0.181"/>
        <line id="선_33" data-name="선 33" y1="0.934" x2="1.327" transform="translate(43.18 11.888)" fill="none" stroke="#263238" stroke-linecap="round" stroke-linejoin="round" stroke-width="0.181"/>
        <circle id="타원_16" data-name="타원 16" cx="3.782" cy="3.782" r="3.782" transform="translate(10.286 58.229) rotate(-21.8)" fill="none" stroke="#263238" stroke-linecap="round" stroke-linejoin="round" stroke-width="0.181"/>
        <path id="패스_562" data-name="패스 562" d="M16.152,56.677c1.318-1.548,2.44-2.424,2.871-2.138.657.432-.522,3.379-2.633,6.581s-4.356,5.448-5.013,5.015c-.433-.284-.069-1.66.834-3.482" fill="none" stroke="#263238" stroke-linecap="round" stroke-linejoin="round" stroke-width="0.181"/>
        <path id="패스_563" data-name="패스 563" d="M11.5,61.112c-1.838-.529-3.012-1.147-2.938-1.64.107-.78,3.283-.961,7.077-.392S22.417,60.728,22.3,61.5c-.081.542-1.625.789-3.82.706" fill="none" stroke="#263238" stroke-linecap="round" stroke-linejoin="round" stroke-width="0.181"/>
        <path id="패스_564" data-name="패스 564" d="M11.982,58.373c-1.387-2.5-2.08-4.455-1.611-4.76.618-.4,3.005,2.191,5.333,5.779s3.713,6.832,3.1,7.233c-.408.264-1.591-.78-3.02-2.557" fill="none" stroke="#263238" stroke-linecap="round" stroke-linejoin="round" stroke-width="0.181"/>
        <path id="패스_565" data-name="패스 565" d="M19.556,56.175a.621.621,0,1,1,.089-.468.621.621,0,0,1-.089.468Z" fill="#263238"/>
        <path id="패스_566" data-name="패스 566" d="M17.5,65.69a.621.621,0,1,1,.089-.468.621.621,0,0,1-.089.468Z" fill="#263238"/>
        <path id="패스_567" data-name="패스 567" d="M14.18,59.234A.621.621,0,1,1,14,58.373a.621.621,0,0,1,.181.861Z" fill="#263238"/>
        <path id="패스_568" data-name="패스 568" d="M53.786,32.2h2.127l1.064-1.842-1.064-1.842H53.786l-1.064,1.842Z" fill="none" stroke="#263238" stroke-linecap="round" stroke-linejoin="round" stroke-width="0.181"/>
        <path id="패스_569" data-name="패스 569" d="M53.477,36.247,52.413,34.4H50.286" fill="none" stroke="#263238" stroke-linecap="round" stroke-linejoin="round" stroke-width="0.181"/>
        <path id="패스_570" data-name="패스 570" d="M50.571,30.361H52.7l1.064-1.842L52.7,26.675H50.571l-1.064,1.844Z" fill="none" stroke="#263238" stroke-linecap="round" stroke-linejoin="round" stroke-width="0.181"/>
        <path id="패스_571" data-name="패스 571" d="M53.786,28.519h2.127l1.064-1.844-1.064-1.842H53.786l-1.064,1.842Z" fill="none" stroke="#263238" stroke-linecap="round" stroke-linejoin="round" stroke-width="0.181"/>
        <circle id="타원_17" data-name="타원 17" cx="0.285" cy="0.285" r="0.285" transform="translate(53.477 28.234)" fill="#263238"/>
        <circle id="타원_18" data-name="타원 18" cx="0.285" cy="0.285" r="0.285" transform="translate(49.034 24.366)" fill="#263238"/>
        <path id="패스_572" data-name="패스 572" d="M53.192,36.247a.285.285,0,1,1,.285.285.285.285,0,0,1-.285-.285Z" fill="#263238"/>
        <circle id="타원_19" data-name="타원 19" cx="0.285" cy="0.285" r="0.285" transform="translate(50.001 34.119)" fill="#263238"/>
        <path id="패스_573" data-name="패스 573" d="M59.036,26.728a.285.285,0,1,1,.083.2A.287.287,0,0,1,59.036,26.728Z" fill="#263238"/>
        <circle id="타원_20" data-name="타원 20" cx="0.285" cy="0.285" r="0.285" transform="translate(52.106 34.119)" fill="#263238"/>
        <path id="패스_574" data-name="패스 574" d="M56.692,26.728a.287.287,0,1,1,.287.287A.287.287,0,0,1,56.692,26.728Z" fill="#263238"/>
        <path id="패스_575" data-name="패스 575" d="M53.477,32.205a.287.287,0,1,1,.285.285A.287.287,0,0,1,53.477,32.205Z" fill="#263238"/>
        <line id="선_34" data-name="선 34" x2="2.342" transform="translate(56.979 26.724)" fill="none" stroke="#263238" stroke-linecap="round" stroke-linejoin="round" stroke-width="0.181"/>
        <line id="선_35" data-name="선 35" x1="1.371" y2="2.2" transform="translate(52.392 32.205)" fill="none" stroke="#263238" stroke-linecap="round" stroke-linejoin="round" stroke-width="0.181"/>
        <line id="선_36" data-name="선 36" x1="1.252" y1="2.024" transform="translate(49.32 24.651)" fill="none" stroke="#263238" stroke-linecap="round" stroke-linejoin="round" stroke-width="0.181"/>
        <path id="패스_576" data-name="패스 576" d="M65.66,19.414a3.941,3.941,0,0,1,7.6.168" fill="none" stroke="#263238" stroke-linecap="round" stroke-linejoin="round" stroke-width="0.181"/>
        <path id="패스_577" data-name="패스 577" d="M68.986,24.441A3.939,3.939,0,0,1,65.5,20.528" fill="none" stroke="#263238" stroke-linecap="round" stroke-linejoin="round" stroke-width="0.181"/>
        <path id="패스_578" data-name="패스 578" d="M73.376,20.528a3.939,3.939,0,0,1-3.937,3.939" fill="none" stroke="#263238" stroke-linecap="round" stroke-linejoin="round" stroke-width="0.181"/>
        <path id="패스_579" data-name="패스 579" d="M73.6,18.03c1.232-.157,2.057-.072,2.185.3.255.733-2.38,2.313-5.886,3.531s-6.552,1.607-6.808.872c-.135-.392.554-1.026,1.761-1.717" fill="none" stroke="#263238" stroke-linecap="round" stroke-linejoin="round" stroke-width="0.181"/>
        <path id="패스_580" data-name="패스 580" d="M52.392,15.332l.377.764.843.123-.61.6.144.84-.755-.4-.755.4.144-.84-.61-.6.843-.123Z" fill="none" stroke="#263238" stroke-linecap="round" stroke-linejoin="round" stroke-width="0.181"/>
        <path id="패스_581" data-name="패스 581" d="M25.729,13.3a2.564,2.564,0,0,1-2.561,2.563q-.125,0-.244-.011a2.563,2.563,0,1,1,2.8-2.552Z" fill="none" stroke="#263238" stroke-linecap="round" stroke-linejoin="round" stroke-width="0.181"/>
        <path id="패스_582" data-name="패스 582" d="M25.319,13.759a.4.4,0,1,1-.4-.4.4.4,0,0,1,.4.4Z" fill="none" stroke="#263238" stroke-linecap="round" stroke-linejoin="round" stroke-width="0.181"/>
        <path id="패스_583" data-name="패스 583" d="M21.752,14.767a.639.639,0,0,1-.231.493,2.539,2.539,0,0,1-.753-1.046.623.623,0,0,1,.33-.092.645.645,0,0,1,.654.645Z" fill="none" stroke="#263238" stroke-linecap="round" stroke-linejoin="round" stroke-width="0.181"/>
        <path id="패스_584" data-name="패스 584" d="M24.922,15.17a2.545,2.545,0,0,1-1.754.7q-.125,0-.244-.011a1.022,1.022,0,0,1-.022-.211,1.065,1.065,0,0,1,2.019-.475Z" fill="none" stroke="#263238" stroke-linecap="round" stroke-linejoin="round" stroke-width="0.181"/>
        <circle id="타원_21" data-name="타원 21" cx="0.589" cy="0.589" r="0.589" transform="translate(21.958 11.103)" fill="none" stroke="#263238" stroke-linecap="round" stroke-linejoin="round" stroke-width="0.181"/>
        <path id="패스_585" data-name="패스 585" d="M23.092,13.364a.273.273,0,1,1-.273-.273A.273.273,0,0,1,23.092,13.364Z" fill="none" stroke="#263238" stroke-linecap="round" stroke-linejoin="round" stroke-width="0.181"/>
        <path id="패스_586" data-name="패스 586" d="M25.247,11.8a.69.69,0,0,1-.222.034.749.749,0,0,1-.749-.751.8.8,0,0,1,0-.094,2.552,2.552,0,0,1,.972.811Z" fill="none" stroke="#263238" stroke-linecap="round" stroke-linejoin="round" stroke-width="0.181"/>
        <path id="패스_587" data-name="패스 587" d="M84.129,43.033l.276-.621-.448-.246a1.354,1.354,0,0,0,.009-.33l.459-.224-.244-.634-.491.141a1.351,1.351,0,0,0-.228-.238l.168-.484-.621-.276-.247.448a1.351,1.351,0,0,0-.33,0l-.222-.459-.636.244.143.489a1.445,1.445,0,0,0-.24.229l-.482-.168-.269.612.448.247a1.351,1.351,0,0,0-.009.33l-.461.222.244.636.491-.143a1.43,1.43,0,0,0,.228.24l-.166.482.621.276.246-.448a1.354,1.354,0,0,0,.33.009l.224.461.634-.244-.141-.491a1.42,1.42,0,0,0,.238-.228Zm-1.889-.347a.789.789,0,1,1,1.042-.4A.789.789,0,0,1,82.24,42.687Z" fill="none" stroke="#263238" stroke-linecap="round" stroke-linejoin="round" stroke-width="0.181"/>
        <path id="패스_588" data-name="패스 588" d="M80.828,46.221l.376-.843-.607-.336a1.862,1.862,0,0,0,.011-.448l.625-.3-.327-.861-.666.193a1.806,1.806,0,0,0-.309-.325l.228-.657-.851-.381-.334.607a1.963,1.963,0,0,0-.448-.013l-.3-.623-.863.332.193.665a1.955,1.955,0,0,0-.325.311l-.656-.22-.376.843.607.336a1.862,1.862,0,0,0-.011.448l-.625.3.332.861.666-.191a1.874,1.874,0,0,0,.309.325l-.228.656.845.376.334-.609a1.865,1.865,0,0,0,.448.013l.3.623.863-.33-.193-.666A1.945,1.945,0,0,0,80.172,46Zm-2.564-.471a1.071,1.071,0,1,1,.82.023A1.073,1.073,0,0,1,78.263,45.749Z" fill="none" stroke="#263238" stroke-linecap="round" stroke-linejoin="round" stroke-width="0.181"/>
      </g>
      <g id="freepik--Earth--inject-57">
        <path id="패스_589" data-name="패스 589" d="M43.391,38.215a11.588,11.588,0,0,1-.836,1.351A11.377,11.377,0,0,1,28,42.981c-.251-.132-.5-.273-.731-.421s-.464-.3-.684-.462c-.267-.193-.524-.4-.769-.614h0a.3.3,0,0,1-.043-.04h0A11.392,11.392,0,1,1,43.4,38.224Z" fill="#2ba5f7"/>
        <g id="그룹_27" data-name="그룹 27" clip-path="url(#clip-path-2)">
          <g id="그룹_26" data-name="그룹 26" opacity="0.6">
            <path id="패스_590" data-name="패스 590" d="M43.391,38.215a11.588,11.588,0,0,1-.836,1.351l-.22-.181-.379-.2-.4-.209.067-.482-.022-.435c-.023-.435.291-.079.542-.211A1.461,1.461,0,0,0,42.6,37.3a2.333,2.333,0,0,0,.121-.813,6.576,6.576,0,0,0-.343-.784l-.647.9-.542-.042L40.68,36.3l-.067-.713-.264-.137-.11-.41-1.425-.4-.163-.285c-.163-.285-.818-.432-.818-.432l.161-.372.253-.415c.255-.415.518.275.518.275l.3.157.56-.47.148-.674.912.052a.406.406,0,0,1,.238-.451c.3-.119.17-.778.054-1.022s-.542-.047-.542-.047a5.261,5.261,0,0,1-.527-.988c-.063-.282.885-.181,1.291-.464s.267-.847.069-.86.388-1.282,1.517-.934a.636.636,0,0,0,.636-.045,11.377,11.377,0,0,1-.033,10.55Z" fill="#fff"/>
            <path id="패스_591" data-name="패스 591" d="M35.494,33.33l-.386.486s-.164-.392-.4-.181l-.361.321-.262.733-.47.3-.287-.15-.271-.144-.294-.155-.282.542-.229.433a2.767,2.767,0,0,0,.414.587l.5.879.607.307a4.616,4.616,0,0,1,.753.09l.417.219-.148.9s-.314.511-.524.37l-.211-.139-.343,1.188-.014.654s-.2.085-.41.154-.076.033-.507.166-.4.128-.748.228a4.719,4.719,0,0,0-.858.4l.031.628-.825.121-.462-.246.114-.4.054-.621-.063-.464-.2-.41.556-.5-.123-.316-.316-.628-.668.361-.343.181-.777-.349-.085-.471-.26-.847-.242-.527-.43-.582-.108-.5.242-.459.128-.242-.4-.533-.108-.379-.666-.6s.193-.013.15-.282.381-.722.381-.722c.24.126.961.628.961.628l.63.087s.126,0,.249-.238a3.375,3.375,0,0,1,.5-.6s-.291-1.01-.083-1.145.419-.8.419-.8l.166-.316s-.392-.172-.466-.379-1.04.069-1.04.069l-.666.462-.526.406-.228.432s-.464-.558-.466-.246a4.432,4.432,0,0,1-.209.941s.1.051-.031.293-.264.229-.542.264a6.943,6.943,0,0,1-1.084-.074s-.181.668-.056.784l.123.112s-.193.486-.385.385l-.466-.246-.652.264-.722.8-.161-.033a11.392,11.392,0,0,1,9.479-12.93c.042.181.087.35.087.35l-.181.892-.231.441-.2.377-.28.531.717.661-.154.782-.388.244-.112.587.666,1.3.181.511a1.79,1.79,0,0,0-.161.78,1.043,1.043,0,0,0,.437.681c.356.193.824.421.824.421l-.038.722-.161.181.267.778c.814.32.737.587.814.32l.079-.265.554-.2.706.843a.489.489,0,0,1,.415.22C35.56,33.07,35.882,32.844,35.494,33.33Z" fill="#fff"/>
            <path id="패스_592" data-name="패스 592" d="M25.922,39.62c.02.256-.305.578-.305.578l.265.139.081.722-.2.383a11.345,11.345,0,0,1-3.151-4.627l.144-.766.637-.09s.571-.379.824-.278.484.722.484.722.181.838.157.822h0l.26.137.074.33-.361.686h-.582s-.116-.061-.126.24a.733.733,0,0,0,.3.529l.628-.161.168-.65.618-.121s-.088.4.056.475l.146.078.087.477A.428.428,0,0,0,25.922,39.62Z" fill="#fff"/>
            <path id="패스_593" data-name="패스 593" d="M28.909,40.642c-.056-.155-.079-.291-.464-.493s-.361-.13-.513.038a.554.554,0,0,1-.574.2c-.253-.056-.121.229-.121.229l.061.771-.713.7q.33.244.684.462l.152-.466,1.185.347c-.251-.074-.1-.417-.1-.417l-.253-.134S28.965,40.794,28.909,40.642Z" fill="#fff"/>
            <path id="패스_594" data-name="패스 594" d="M36.371,36.633l-.388-.392-.444.139-.181.361-.135.26.181.361.361.439.206-.394a1.33,1.33,0,0,0,.872-.33C37.142,36.747,36.371,36.633,36.371,36.633Z" fill="#fff"/>
            <path id="패스_595" data-name="패스 595" d="M35.23,34.865l.722.379.029-.17a.981.981,0,0,1,.2-.37l-.553-.585Z" fill="#fff"/>
            <path id="패스_596" data-name="패스 596" d="M34.984,43.272l-.208-.305-.242-.126H33.8l-.421.8s-.4-.054-.932-.1-.4.172-.4.172l-.137.5a11.421,11.421,0,0,0,4-.215,5.055,5.055,0,0,0-.473-.293Z" fill="#fff"/>
          </g>
        </g>
        <path id="패스_598" data-name="패스 598" d="M43.391,38.215a11.588,11.588,0,0,1-.836,1.351A11.377,11.377,0,0,1,28,42.981c-.251-.132-.5-.273-.731-.421s-.464-.3-.684-.462c-.267-.193-.524-.4-.769-.614h0a.3.3,0,0,1-.043-.04h0A11.392,11.392,0,1,1,43.4,38.224Z" fill="none" stroke="#263238" stroke-linecap="round" stroke-linejoin="round" stroke-width="0.181"/>
        <path id="패스_599" data-name="패스 599" d="M35.905,44a11.421,11.421,0,0,1-4,.215l.137-.5s-.13-.219.4-.172.932.1.932.1l.421-.8h.739l.242.126.208.305.448.432a5.055,5.055,0,0,1,.473.293Z" fill="none" stroke="#263238" stroke-linecap="round" stroke-linejoin="round" stroke-width="0.181"/>
        <path id="패스_600" data-name="패스 600" d="M43.431,27.667a.636.636,0,0,1-.636.045c-1.129-.349-1.714.919-1.517.934s.336.585-.069.86-1.354.181-1.291.464a5.2,5.2,0,0,0,.527.988s.415-.2.533.047.251.9-.052,1.022a.406.406,0,0,0-.238.451l-.912-.052-.148.674-.56.47-.3-.157s-.264-.69-.518-.275l-.253.415-.161.372s.656.146.818.432l.163.285,1.425.4.11.41.264.137.067.713.531.278.542.042.647-.9a6.576,6.576,0,0,1,.343.784,2.249,2.249,0,0,1-.121.813,1.461,1.461,0,0,1-.461.542c-.258.132-.574-.224-.542.211l.022.435-.067.482.4.209.379.2.22.181" fill="none" stroke="#263238" stroke-linecap="round" stroke-linejoin="round" stroke-width="0.181"/>
        <path id="패스_601" data-name="패스 601" d="M22.045,34.582l.161.033.722-.8.652-.264.466.246c.191.1.385-.385.385-.385l-.123-.112c-.125-.116.056-.784.056-.784a6.943,6.943,0,0,0,1.084.074c.285-.034.421-.023.542-.264s.031-.293.031-.293a4.432,4.432,0,0,0,.209-.941c0-.312.466.246.466.246l.228-.432.509-.4.666-.462s.966-.278,1.04-.069.466.379.466.379l-.166.316s-.213.657-.419.8.083,1.145.083,1.145a3.375,3.375,0,0,0-.5.6c-.126.242-.249.238-.249.238l-.63-.087s-.722-.5-.961-.628c0,0-.424.453-.381.722s-.15.282-.15.282l.666.6.108.379.4.533-.128.242-.242.459.108.5.43.582.244.526.264.851.085.471.777.349.343-.181.668-.361.316.628.123.316-.556.5.2.41.063.464-.054.621-.114.4.462.246.825-.119-.031-.63a4.719,4.719,0,0,1,.858-.4c.35-.1.316-.094.748-.228s.3-.1.507-.166.41-.154.41-.154l.014-.654.343-1.188.211.139c.209.141.524-.37.524-.37l.148-.9-.426-.222a4.616,4.616,0,0,0-.753-.09l-.594-.312-.5-.879a2.767,2.767,0,0,1-.414-.587l.229-.433.282-.542.294.155.271.144.287.15.47-.3.262-.733.361-.321c.235-.213.4.181.4.181l.386-.486c.388-.486.067-.26-.132-.509a.489.489,0,0,0-.415-.22l-.706-.843-.562.213-.079.265c-.078.267,0,0-.814-.32l-.267-.778.161-.181.038-.722s-.468-.229-.824-.421a1.039,1.039,0,0,1-.437-.681,1.79,1.79,0,0,1,.161-.78l-.181-.511-.666-1.3.112-.587.388-.244.154-.782-.7-.661.28-.531.2-.377.231-.441.181-.892s-.045-.166-.087-.35" fill="none" stroke="#263238" stroke-linecap="round" stroke-linejoin="round" stroke-width="0.181"/>
        <path id="패스_602" data-name="패스 602" d="M25.825,41.482a.293.293,0,0,0-.047-.043h0l.2-.383-.081-.722-.265-.139s.325-.321.305-.578a.428.428,0,0,1,.2-.385l-.087-.477-.146-.078c-.144-.076-.056-.475-.056-.475l-.618.121-.168.65-.628.161a.733.733,0,0,1-.3-.529c.011-.3.126-.24.126-.24h.582l.361-.686-.074-.33-.26-.137" fill="none" stroke="#263238" stroke-linecap="round" stroke-linejoin="round" stroke-width="0.181"/>
        <path id="패스_603" data-name="패스 603" d="M24.855,37.211h0c.029.016-.157-.822-.157-.822s-.231-.612-.484-.722-.824.278-.824.278l-.637.09-.144.766" fill="none" stroke="#263238" stroke-linecap="round" stroke-linejoin="round" stroke-width="0.181"/>
        <path id="패스_604" data-name="패스 604" d="M27.421,42.092l-.152.466q-.361-.22-.684-.462l.713-.7-.061-.771s-.132-.285.121-.229a.554.554,0,0,0,.574-.2c.148-.168.13-.24.513-.038s.408.338.464.493-.659,1.252-.659,1.252l.253.134s-.148.343.1.417Z" fill="none" stroke="#263238" stroke-linecap="round" stroke-linejoin="round" stroke-width="0.181"/>
        <path id="패스_605" data-name="패스 605" d="M35.539,36.38l.444-.139.388.392s.768.1.468.433a1.309,1.309,0,0,1-.872.33l-.209.394-.361-.439-.181-.361.135-.26Z" fill="none" stroke="#263238" stroke-linecap="round" stroke-linejoin="round" stroke-width="0.181"/>
        <path id="패스_606" data-name="패스 606" d="M36.176,34.7a.981.981,0,0,0-.2.37l-.029.17-.722-.379.394-.746Z" fill="none" stroke="#263238" stroke-linecap="round" stroke-linejoin="round" stroke-width="0.181"/>
      </g>
      <g id="freepik--Character--inject-57">
        <path id="패스_607" data-name="패스 607" d="M75.367,77.3A29.158,29.158,0,0,1,56.3,82.4c-.572-4.843-2.756-24.741-.273-27.862,0,0,6.025-2.873,11.574-1.667s7.709,2.362,8.1,3.363C76.008,56.991,75.58,71.081,75.367,77.3Z" fill="#263238"/>
        <path id="패스_608" data-name="패스 608" d="M67.419,55c-3.2,2.768-7.314,2.183-7.224.058a1.605,1.605,0,0,1,.37-.744l-.125-.191L59.9,53.3c-.4-.612-.89-1.382-1.235-1.941-.289-.477,6.915-4.908,6.915-2.36,0,3.59,1.763,4.266,1.763,4.266C68.006,53.533,68.625,53.956,67.419,55Z" fill="#fff" stroke="#263238" stroke-linecap="round" stroke-linejoin="round" stroke-width="0.181"/>
        <path id="패스_609" data-name="패스 609" d="M69.44,60.48s-.645,2.21-.34,2.844" fill="none" stroke="#fff" stroke-linecap="round" stroke-linejoin="round" stroke-width="0.181"/>
        <path id="패스_610" data-name="패스 610" d="M68.686,54.062c0,2.133-6.362,4.222-8.226,2.082" fill="none" stroke="#fff" stroke-linecap="round" stroke-linejoin="round" stroke-width="0.181"/>
        <path id="패스_611" data-name="패스 611" d="M63.453,51.6a5.453,5.453,0,0,1-2.413,2.862.744.744,0,0,0-.428-.338.562.562,0,0,0-.181,0l-.542-.818A21.982,21.982,0,0,1,63.453,51.6Z" fill="#263238"/>
        <path id="패스_612" data-name="패스 612" d="M64.345,49.625s-.022,1.586-.361,1.909C61.465,53.95,59,54.142,58.595,53.5c-2.736-4.291-2.089-5.418-2.368-6.153a10.188,10.188,0,0,1-.831-4.67c.6-2.848,5.96-5.057,8.784-2.192,1.354,1.371,1.782,4.345,1.5,6.823" fill="#fff" stroke="#263238" stroke-linecap="round" stroke-linejoin="round" stroke-width="0.181"/>
        <path id="패스_613" data-name="패스 613" d="M56.572,46.026s-.753-.338-.916.065" fill="none" stroke="#263238" stroke-linecap="round" stroke-linejoin="round" stroke-width="0.181"/>
        <path id="패스_614" data-name="패스 614" d="M58.4,46.051s1.566-.656,2.27.141" fill="none" stroke="#263238" stroke-linecap="round" stroke-linejoin="round" stroke-width="0.181"/>
        <path id="패스_615" data-name="패스 615" d="M60.137,47.162c.025.235-.088.439-.256.459s-.323-.159-.349-.394.088-.441.256-.459S60.1,46.927,60.137,47.162Z" fill="#263238"/>
        <path id="패스_616" data-name="패스 616" d="M57.067,47.232c.027.235-.088.441-.256.459s-.323-.157-.349-.392.088-.441.256-.459S57.038,47,57.067,47.232Z" fill="#263238"/>
        <path id="패스_617" data-name="패스 617" d="M57.143,46.614c.219.352.1.954-.19,1.779s-.034,1.123,1.075,1.206" fill="#fff" stroke="#263238" stroke-linecap="round" stroke-linejoin="round" stroke-width="0.181"/>
        <path id="패스_618" data-name="패스 618" d="M58.028,51.028a7.268,7.268,0,0,0,2.106-.495" fill="none" stroke="#263238" stroke-linecap="round" stroke-linejoin="round" stroke-width="0.181"/>
        <path id="패스_619" data-name="패스 619" d="M67.18,42.84c0-1.073-1.058-3.274-2.915-3.522h0a4.436,4.436,0,0,0-4.434-1.1c-4.266.979-5.564,5.19-5.75,5.887-.018.065-.027.1-.027.1l1.141-.289-.491.959.6.4-.137.152.693.668-.217-1.221a5.55,5.55,0,0,1,1.04-1.889,2.945,2.945,0,0,0-.6,1.479c.361-.937,2.528-1.806,2.528-1.806a4.315,4.315,0,0,0-1.084,1.687,7.052,7.052,0,0,1,3.236-1.64,4.511,4.511,0,0,0,1.64,2.136,1.652,1.652,0,0,1,.7,1.362,4.211,4.211,0,0,1,1.625,2.232l.874,1.2S67.18,47.693,67.18,42.84Z" fill="#263238"/>
        <path id="패스_620" data-name="패스 620" d="M63.5,46.506c-.293-.627.769-2.324,1.522-2.115a2.2,2.2,0,0,1,1.084,1.7,3.449,3.449,0,0,1-1.075,2.682c-.388.217-.708-.374-.708-.374" fill="#fff" stroke="#263238" stroke-linecap="round" stroke-linejoin="round" stroke-width="0.181"/>
        <path id="패스_621" data-name="패스 621" d="M17.429,77.158l20.405-4.771L80.4,77.3,69.438,84.8Z" fill="#fff"/>
        <path id="패스_622" data-name="패스 622" d="M17.429,77.158l20.405-4.771L80.4,77.3" fill="#fff" stroke="#263238" stroke-linecap="round" stroke-linejoin="round" stroke-width="0.181"/>
        <path id="패스_623" data-name="패스 623" d="M35.087,78.115l8.26-3.652L53.791,75l-4.645,3.971Z" fill="#fff" stroke="#263238" stroke-linecap="round" stroke-linejoin="round" stroke-width="0.181"/>
        <path id="패스_624" data-name="패스 624" d="M56.431,54.358c-2.649,1.084-3.22,3.52-7.722,13.147a4.751,4.751,0,0,0-3.07,2.839,2.926,2.926,0,0,0,2.787,4.282,3.735,3.735,0,0,0,2.528.648c1.7-.074,9.21-11.567,9.21-11.567Z" fill="#263238"/>
        <path id="패스_625" data-name="패스 625" d="M49.5,68.071A4.468,4.468,0,0,1,51,72.389" fill="none" stroke="#fff" stroke-linecap="round" stroke-linejoin="round" stroke-width="0.181"/>
        <path id="패스_626" data-name="패스 626" d="M50.642,68.578a2.386,2.386,0,0,1,1.681,2.182" fill="none" stroke="#fff" stroke-linecap="round" stroke-linejoin="round" stroke-width="0.181"/>
        <path id="패스_627" data-name="패스 627" d="M54.9,63.124a10.626,10.626,0,0,1-.69-5.358" fill="none" stroke="#fff" stroke-linecap="round" stroke-linejoin="round" stroke-width="0.181"/>
        <path id="패스_628" data-name="패스 628" d="M54.694,60.668c-.11.758.674,4.8.668,9.042" fill="none" stroke="#fff" stroke-linecap="round" stroke-linejoin="round" stroke-width="0.181"/>
        <path id="패스_629" data-name="패스 629" d="M74.5,55.157c3.314,1.665,3.708,6.788.582,12.914-2.209,4.323-5.257,10.707-7.186,11.135a5.706,5.706,0,0,1-3.81-.773s-1.625-.076-2.117-1.232c-1.344-3.159,2.071-7.15,3.408-6.194,0,0,4.291-9.331,5.073-9.92" fill="#263238"/>
        <path id="패스_630" data-name="패스 630" d="M61.66,75.282c-.439-2.18,2.992-4.751,3.715-4.275,0,0,2.548.143,2.929,1.905" fill="none" stroke="#fff" stroke-linecap="round" stroke-linejoin="round" stroke-width="0.181"/>
        <path id="패스_631" data-name="패스 631" d="M70.994,75.746c1.492-2.631,4.085-7.675,4.085-7.675" fill="none" stroke="#fff" stroke-linecap="round" stroke-linejoin="round" stroke-width="0.181"/>
        <path id="패스_632" data-name="패스 632" d="M65.374,71.007s1.786-1.069,3.121-.058" fill="none" stroke="#fff" stroke-linecap="round" stroke-linejoin="round" stroke-width="0.181"/>
        <path id="패스_633" data-name="패스 633" d="M65.985,69.709s.986-2.167,1.987-4.154,3.29-4.928,4.242-5.071" fill="none" stroke="#fff" stroke-linecap="round" stroke-linejoin="round" stroke-width="0.181"/>
        <path id="패스_634" data-name="패스 634" d="M47.163,73.6a1.47,1.47,0,0,1-.614-.168,21.835,21.835,0,0,1-6.9-6.149,22.706,22.706,0,0,1-1.54-2.274l.737-3.157a8.6,8.6,0,0,0,3.48,3.581c2.787,1.775,6.1,2.36,7.168,4.154C50.447,71.153,48.776,73.682,47.163,73.6Z" fill="#fff"/>
        <g id="그룹_28" data-name="그룹 28" clip-path="url(#clip-path-3)">
          <path id="패스_635" data-name="패스 635" d="M47.163,73.6a2.989,2.989,0,0,0-.181-.666c-.645-1.614-4.546-4.824-4.546-4.824a7.174,7.174,0,0,1-2.779-.827,22.7,22.7,0,0,1-1.544-2.274l.737-3.157a8.6,8.6,0,0,0,3.48,3.581c2.787,1.775,6.1,2.36,7.168,4.154C50.447,71.153,48.776,73.682,47.163,73.6Z" fill="#2ba5f7" opacity="0.4"/>
        </g>
        <path id="패스_637" data-name="패스 637" d="M47.163,73.6a1.47,1.47,0,0,1-.614-.168,21.835,21.835,0,0,1-6.9-6.149,22.706,22.706,0,0,1-1.54-2.274l.737-3.157a8.6,8.6,0,0,0,3.48,3.581c2.787,1.775,6.1,2.36,7.168,4.154C50.447,71.153,48.776,73.682,47.163,73.6Z" fill="none" stroke="#263238" stroke-linecap="round" stroke-linejoin="round" stroke-width="0.181"/>
        <path id="패스_638" data-name="패스 638" d="M40.211,64.822s-.381,1.683-1.385,1.306a5.467,5.467,0,0,1-1.782-2.638Z" fill="#fff" stroke="#263238" stroke-linecap="round" stroke-linejoin="round" stroke-width="0.181"/>
        <path id="패스_639" data-name="패스 639" d="M35.784,54.458l.82-.423a6.939,6.939,0,0,1,3.755,1.188,7.6,7.6,0,0,1,1.968,2.725s5.073-2.8,10.254-1.194l2.113,11.776-9.714.636-6.062-5.759Z" fill="#fff" stroke="#263238" stroke-linecap="round" stroke-linejoin="round" stroke-width="0.181"/>
        <path id="패스_640" data-name="패스 640" d="M55.362,69s-1.14-.034-2.664.016c-2.3.072-5.488.332-6.944,1.179l-.069-.023-1.333-.466-.027-.04a12.877,12.877,0,0,0-5.057-4.363l-4-11.182a8.478,8.478,0,0,1,6.424,3.933l1.14.412s6.781-2.008,10.577-1.286Z" fill="#2ba5f7"/>
        <g id="그룹_29" data-name="그룹 29" clip-path="url(#clip-path-4)">
          <path id="패스_641" data-name="패스 641" d="M44.326,69.671a12.877,12.877,0,0,0-5.057-4.363l-4-11.182a8.478,8.478,0,0,1,6.424,3.933Z" fill="rgba(0,0,0,0.7)" opacity="0.3"/>
          <path id="패스_642" data-name="패스 642" d="M52.7,69.019c-2.3.072-5.488.332-6.944,1.179l-.069-.023-2.662-11.3a8.781,8.781,0,0,1,2.848-.242A22.428,22.428,0,0,1,52.7,69.019Z" fill="rgba(0,0,0,0.7)" opacity="0.3"/>
        </g>
        <path id="패스_644" data-name="패스 644" d="M55.362,69s-1.14-.034-2.664.016c-2.3.072-5.488.332-6.944,1.179l-.069-.023-1.333-.466-.027-.04a12.877,12.877,0,0,0-5.057-4.363l-4-11.182a8.478,8.478,0,0,1,6.424,3.933l1.14.412s6.781-2.008,10.577-1.286Z" fill="none" stroke="#263238" stroke-linecap="round" stroke-linejoin="round" stroke-width="0.181"/>
        <line id="선_37" data-name="선 37" x2="2.613" y2="10.841" transform="translate(42.835 58.47)" fill="none" stroke="#263238" stroke-linecap="round" stroke-linejoin="round" stroke-width="0.181"/>
        <line id="선_38" data-name="선 38" x1="2.539" y1="10.834" transform="translate(41.814 58.877)" fill="none" stroke="#263238" stroke-linecap="round" stroke-linejoin="round" stroke-width="0.181"/>
        <path id="패스_645" data-name="패스 645" d="M37.9,65.022c-.58-.161-1.748-3.644-1.214-5.145,0,0,.636-1.1.9-1.179.4-.117,2.037-.083,1.958.191-.181.636-1.434.625-1.434.625l-.406.744.016.41s.591-.43.807-.417a6.773,6.773,0,0,1,1.149.531c.392.208.632.321.542.509-.291.625-1.528.181-1.528.181l-.466.7s.45.078.647.1a6.768,6.768,0,0,1,1.782,1.246c-.193.531-1.743-.043-1.743-.043l-.275.229s1.141.294,1.264.338a3.511,3.511,0,0,1,.865.663c-.083.47-1.042.125-1.042.125l-.84-.034a1.033,1.033,0,0,1-.448.231" fill="#fff" stroke="#263238" stroke-linecap="round" stroke-linejoin="round" stroke-width="0.181"/>
        <path id="패스_646" data-name="패스 646" d="M37.719,60.668s-.542.455-.681.587-.1.551-.1.551" fill="none" stroke="#263238" stroke-linecap="round" stroke-linejoin="round" stroke-width="0.181"/>
        <path id="패스_647" data-name="패스 647" d="M37.327,62.731a1.253,1.253,0,0,0,.448.885c.141.148-.226.551.181.84" fill="none" stroke="#263238" stroke-linecap="round" stroke-linejoin="round" stroke-width="0.181"/>
        <path id="패스_648" data-name="패스 648" d="M64.076,77.27c-1.147.312-2.393-1.7-3.913-3.9h0a17.846,17.846,0,0,0-3.419-3.973c-.1-.078-.208-.154-.312-.226l.755-3.792c1.568.822,2.539,2.138,4.166,3.491,2.619,2.18,4.939,3.518,5.582,4.482S66.041,76.734,64.076,77.27Z" fill="#fff"/>
        <g id="그룹_30" data-name="그룹 30" clip-path="url(#clip-path-5)">
          <path id="패스_649" data-name="패스 649" d="M60.163,73.366a17.846,17.846,0,0,0-3.419-3.973,1.264,1.264,0,0,0,.5-.076A10.609,10.609,0,0,1,60.163,73.366Z" fill="#2ba5f7" opacity="0.4"/>
        </g>
        <path id="패스_651" data-name="패스 651" d="M64.076,77.27c-1.147.312-2.393-1.7-3.913-3.9h0a17.846,17.846,0,0,0-3.419-3.973c-.1-.078-.208-.154-.312-.226l.755-3.792c1.568.822,2.539,2.138,4.166,3.491,2.619,2.18,4.939,3.518,5.582,4.482S66.041,76.734,64.076,77.27Z" fill="none" stroke="#263238" stroke-linecap="round" stroke-linejoin="round" stroke-width="0.181"/>
        <path id="패스_652" data-name="패스 652" d="M57.609,69.019a.627.627,0,0,1-.361.293,1.262,1.262,0,0,1-.125.042h-.034a11.885,11.885,0,0,1-3.939-.341,12.691,12.691,0,0,1-1.894-1.049,4.915,4.915,0,0,1-.2-.488l-.049-.143s-.643-.361-.722-.643-.215-.361.181-.412,2.528,0,2.528,0l-2.321-.946a8.322,8.322,0,0,1-1.68-1.047c-.143-.273-.321-.453.464-.345s2.5.607,2.5.607l1.353.287-1.344-.572s-2.644-.32-2.144-1.141h1.5a15.492,15.492,0,0,1,2.528.321c.437.134,3.327,1.929,3.327,1.929" fill="#fff"/>
        <g id="그룹_31" data-name="그룹 31" clip-path="url(#clip-path-6)">
          <path id="패스_653" data-name="패스 653" d="M57.085,69.36a11.885,11.885,0,0,1-3.939-.341,12.691,12.691,0,0,1-1.894-1.049,4.918,4.918,0,0,1-.2-.488l2.192.24a.93.93,0,0,0,0,.9C53.488,69.064,56.265,69.508,57.085,69.36Z" fill="#2ba5f7" opacity="0.4"/>
        </g>
        <path id="패스_655" data-name="패스 655" d="M57.609,69.019a.627.627,0,0,1-.361.293,1.262,1.262,0,0,1-.125.042h-.034a11.885,11.885,0,0,1-3.939-.341,12.691,12.691,0,0,1-1.894-1.049,4.915,4.915,0,0,1-.2-.488l-.049-.143s-.643-.361-.722-.643-.215-.361.181-.412,2.528,0,2.528,0l-2.321-.946a8.322,8.322,0,0,1-1.68-1.047c-.143-.273-.321-.453.464-.345s2.5.607,2.5.607l1.353.287-1.344-.572s-2.644-.32-2.144-1.141h1.5a15.492,15.492,0,0,1,2.528.321c.437.134,3.327,1.929,3.327,1.929" fill="none" stroke="#263238" stroke-linecap="round" stroke-linejoin="round" stroke-width="0.181"/>
        <line id="선_39" data-name="선 39" x2="2.638" y2="0.388" transform="translate(51.003 67.339)" fill="none" stroke="#263238" stroke-linecap="round" stroke-linejoin="round" stroke-width="0.181"/>
        <path id="패스_656" data-name="패스 656" d="M24.7,75.419l6.613,1.987,12.1-2.761s-7.39-2.1-7.458-2.046S24.7,75.419,24.7,75.419Z" fill="#2ba5f7"/>
        <g id="그룹_32" data-name="그룹 32" clip-path="url(#clip-path-7)">
          <path id="패스_657" data-name="패스 657" d="M24.7,75.419l6.613,1.987,12.1-2.761s-7.39-2.1-7.458-2.046S24.7,75.419,24.7,75.419Z" fill="rgba(0,0,0,0.7)" opacity="0.3"/>
        </g>
        <path id="패스_659" data-name="패스 659" d="M24.7,75.419l6.613,1.987,12.1-2.761s-7.39-2.1-7.458-2.046S24.7,75.419,24.7,75.419Z" fill="none" stroke="#263238" stroke-linecap="round" stroke-linejoin="round" stroke-width="0.181"/>
        <path id="패스_660" data-name="패스 660" d="M24.8,73.089c-.464.033-.58,1.7-.1,2.33L35.385,73.2l.856-2.026Z" fill="#2ba5f7"/>
        <g id="그룹_33" data-name="그룹 33" clip-path="url(#clip-path-8)">
          <path id="패스_661" data-name="패스 661" d="M24.8,73.089c-.464.033-.58,1.7-.1,2.33L35.385,73.2l.856-2.026Z" fill="rgba(0,0,0,0.7)" opacity="0.3"/>
        </g>
        <path id="패스_663" data-name="패스 663" d="M24.8,73.089c-.464.033-.58,1.7-.1,2.33L35.385,73.2l.856-2.026Z" fill="none" stroke="#263238" stroke-linecap="round" stroke-linejoin="round" stroke-width="0.181"/>
        <path id="패스_664" data-name="패스 664" d="M42.9,73.066a5.022,5.022,0,0,0-.056,1.421L31.3,77.1,25.22,75.307a2.154,2.154,0,0,1-.081-1.987l11.114-1.887Z" fill="#fff" stroke="#263238" stroke-linecap="round" stroke-linejoin="round" stroke-width="0.181"/>
        <path id="패스_665" data-name="패스 665" d="M24.8,73.089l11.444-1.914,7.106,1.8L31.4,75.358Z" fill="#2ba5f7" stroke="#263238" stroke-linecap="round" stroke-linejoin="round" stroke-width="0.181"/>
        <path id="패스_666" data-name="패스 666" d="M25.2,74.158l6.052,1.8,9.905-1.994" fill="none" stroke="#263238" stroke-linecap="round" stroke-linejoin="round" stroke-width="0.181"/>
        <line id="선_40" data-name="선 40" x1="10.651" y2="2.272" transform="translate(32.156 74.151)" fill="none" stroke="#263238" stroke-linecap="round" stroke-linejoin="round" stroke-width="0.181"/>
        <path id="패스_667" data-name="패스 667" d="M25.346,74.868c.092.009,4.562,1.385,4.562,1.385" fill="none" stroke="#263238" stroke-linecap="round" stroke-linejoin="round" stroke-width="0.181"/>
        <line id="선_41" data-name="선 41" y1="0.137" x2="0.847" transform="translate(41.937 73.597)" fill="none" stroke="#263238" stroke-linecap="round" stroke-linejoin="round" stroke-width="0.181"/>
        <line id="선_42" data-name="선 42" x1="0.45" y1="0.101" transform="translate(30.609 76.486)" fill="none" stroke="#263238" stroke-linecap="round" stroke-linejoin="round" stroke-width="0.181"/>
        <path id="패스_668" data-name="패스 668" d="M25.138,73.32a1.593,1.593,0,0,1,.081,1.987,1.88,1.88,0,0,1-.081-1.987Z" fill="#263238"/>
        <g id="그룹_34" data-name="그룹 34" clip-path="url(#clip-path-9)">
          <path id="패스_669" data-name="패스 669" d="M25.138,73.32a1.593,1.593,0,0,1,.081,1.987,1.88,1.88,0,0,1-.081-1.987Z" fill="rgba(255,255,255,0.7)" opacity="0.3"/>
        </g>
        <path id="패스_671" data-name="패스 671" d="M25.138,73.32a1.593,1.593,0,0,1,.081,1.987,1.88,1.88,0,0,1-.081-1.987Z" fill="none" stroke="#263238" stroke-linecap="round" stroke-linejoin="round" stroke-width="0.181"/>
        <path id="패스_672" data-name="패스 672" d="M49.856,75.961l11.549.473L60.28,80.409l-14.207-.542Z" fill="#fff"/>
        <g id="그룹_35" data-name="그룹 35" clip-path="url(#clip-path-10)">
          <path id="패스_673" data-name="패스 673" d="M49.856,75.961l11.549.473L60.28,80.409l-14.207-.542Z" fill="#2ba5f7" opacity="0.4"/>
        </g>
        <path id="패스_675" data-name="패스 675" d="M49.856,75.961l11.549.473L60.28,80.409l-14.207-.542Z" fill="none" stroke="#263238" stroke-linecap="round" stroke-linejoin="round" stroke-width="0.181"/>
      </g>
    </g>
  </g>
</svg>
