<svg xmlns="http://www.w3.org/2000/svg" xmlns:xlink="http://www.w3.org/1999/xlink" width="112" height="105" viewBox="0 0 112 105">
  <defs>
    <clipPath id="clip-path">
      <rect id="사각형_153" data-name="사각형 153" width="112" height="105" transform="translate(101 34)" fill="#fff" stroke="#707070" stroke-width="1"/>
    </clipPath>
  </defs>
  <g id="마스크_그룹_3" data-name="마스크 그룹 3" transform="translate(-101 -34)" clip-path="url(#clip-path)">
    <g id="web-design-svgrepo-com_5_" data-name="web-design-svgrepo-com (5)" transform="translate(101 30.5)">
      <path id="패스_686" data-name="패스 686" d="M6.482,26H20.157a5.59,5.59,0,0,0-5.59,5.59V84.2a5.59,5.59,0,0,0,5.59,5.587H6.482A6.48,6.48,0,0,1,0,83.305V32.479A6.481,6.481,0,0,1,6.482,26Z" fill="#ccc"/>
      <path id="패스_687" data-name="패스 687" d="M63.472,88.172l-.995,4.046-2.28,9.261H36.335l2.28-9.261.995-4.046Z" fill="#999"/>
      <path id="패스_688" data-name="패스 688" d="M63.472,88.172l-.995,4.046H38.615l.995-4.046Z" fill="gray"/>
      <rect id="사각형_154" data-name="사각형 154" width="43.487" height="3.959" transform="translate(34.356 99.103)" fill="#ccc"/>
      <path id="패스_689" data-name="패스 689" d="M104.906,65.156V31.6a5.59,5.59,0,0,0-5.59-5.59H14.156a5.59,5.59,0,0,0-5.59,5.59V77.475h96.366V65.156Z" fill="#2ba5f7"/>
      <path id="패스_690" data-name="패스 690" d="M53.42,31.154a8.763,8.763,0,1,1-8.764,8.764A8.763,8.763,0,0,1,53.42,31.154Z" fill="#f95428"/>
      <path id="패스_691" data-name="패스 691" d="M48.646,57.3,66.969,77.468h-21L41.214,65.478Z" fill="#e09b2d"/>
      <path id="패스_692" data-name="패스 692" d="M41.214,65.478l10.9,11.989H8.566v-9.7l17.951-18.45Z" fill="#f7b239"/>
      <path id="패스_693" data-name="패스 693" d="M104.933,77.468V84.2a5.588,5.588,0,0,1-5.59,5.587H14.156A5.59,5.59,0,0,1,8.566,84.2v-6.73h96.366Z" fill="#f2f2f2"/>
      <rect id="사각형_155" data-name="사각형 155" width="96.366" height="2.375" transform="translate(8.566 76.28)" fill="gray"/>
      <path id="패스_694" data-name="패스 694" d="M77.222,8.939H87.594A5.994,5.994,0,0,0,81.6,14.932V59.155a5.994,5.994,0,0,0,5.993,5.993H77.222a5.994,5.994,0,0,1-5.993-5.993V14.935A6,6,0,0,1,77.222,8.939Z" fill="#b3b3b3"/>
      <g id="그룹_37" data-name="그룹 37">
        <path id="패스_695" data-name="패스 695" d="M112,14.932v4.312H77.563V14.932a5.994,5.994,0,0,1,5.993-5.993h22.451A5.994,5.994,0,0,1,112,14.932Z" fill="#ccc"/>
        <path id="패스_696" data-name="패스 696" d="M108.2,54.592H112v4.563a5.994,5.994,0,0,1-5.993,5.993H83.556a5.994,5.994,0,0,1-5.993-5.993V54.592H108.2Z" fill="#ccc"/>
      </g>
      <path id="패스_697" data-name="패스 697" d="M112,19.244V54.592H77.563V19.244Z" fill="#2ba5f7"/>
      <path id="패스_698" data-name="패스 698" d="M97.649,42.983,108.2,54.592H89.518l3.84-6.885Z" fill="#e09b2d"/>
      <path id="패스_699" data-name="패스 699" d="M93.357,47.707l6.257,6.885H77.563V45.756h.594l6.714-7.384Z" fill="#f7b239"/>
      <path id="패스_700" data-name="패스 700" d="M100.406,27.882a5.062,5.062,0,1,1-5.062,5.062A5.063,5.063,0,0,1,100.406,27.882Z" fill="#f95428"/>
      <g id="그룹_38" data-name="그룹 38">
        <rect id="사각형_156" data-name="사각형 156" width="34.437" height="2.375" transform="translate(77.563 53.405)" fill="gray"/>
        <rect id="사각형_157" data-name="사각형 157" width="34.437" height="2.375" transform="translate(77.563 18.056)" fill="gray"/>
      </g>
      <g id="그룹_39" data-name="그룹 39">
        <path id="패스_701" data-name="패스 701" d="M95.877,61.892H93.685a1.279,1.279,0,0,1-1.279-1.279v-.344a1.279,1.279,0,0,1,1.279-1.279h2.192a1.279,1.279,0,0,1,1.279,1.279v.344A1.279,1.279,0,0,1,95.877,61.892Z" fill="#999"/>
        <path id="패스_702" data-name="패스 702" d="M99.532,13.992h-9.5a.66.66,0,0,1,0-1.319h9.5a.66.66,0,0,1,0,1.319Z" fill="#999"/>
      </g>
    </g>
  </g>
</svg>
